<svg width="1140" height="162" viewBox="0 0 1140 162" fill="none" xmlns="http://www.w3.org/2000/svg">
<g clip-path="url(#clip0_1_5)">
<path d="M29.3979 116.095V0.330765H0.659302V142H82.0179V116.095H29.3979Z" fill="#2A1804"/>
<path d="M99.404 34.3314H128.547V10.45H99.404V34.3314ZM100.618 142H127.333V44.4506H100.618V142Z" fill="#2A1804"/>
<path d="M195.122 120.142C189.253 120.142 185.61 117.107 185.61 110.833V65.9034H205.039V44.4506H185.61V22.1883H158.896V44.4506H145.538V65.9034H158.896V109.618C158.896 131.881 167.396 143.619 188.646 143.619C197.349 143.619 203.015 142.81 209.694 141.393V117.714C206.456 118.928 200.789 120.142 195.122 120.142Z" fill="#2A1804"/>
<path d="M270.424 120.142C264.555 120.142 260.912 117.107 260.912 110.833V65.9034H280.341V44.4506H260.912V22.1883H234.197V44.4506H220.84V65.9034H234.197V109.618C234.197 131.881 242.697 143.619 263.947 143.619C272.65 143.619 278.317 142.81 284.995 141.393V117.714C281.757 118.928 276.091 120.142 270.424 120.142Z" fill="#2A1804"/>
<path d="M302.212 142H328.927V0.330765H302.212V142Z" fill="#2A1804"/>
<path d="M414.324 109.214C410.681 116.095 405.621 120.75 395.097 120.75C383.561 120.75 375.061 112.857 373.24 98.4873H439.824V88.7728C439.824 56.7961 420.8 42.8315 394.693 42.8315C369.192 42.8315 347.537 62.0581 347.537 93.2253C347.537 126.416 369.192 143.619 395.097 143.619C418.372 143.619 435.777 131.881 440.229 109.214H414.324ZM394.693 65.0938C405.621 65.0938 412.705 70.5582 413.919 80.0703H375.061C378.502 70.5582 385.788 65.0938 394.693 65.0938Z" fill="#2A1804"/>
<path d="M595 26.236V0.330765H517.689V142H546.427V74.8083H589.535V48.9031H546.427V26.236H595Z" fill="#2A1804"/>
<path d="M645.371 42.8315C623.716 42.8315 605.906 53.7603 605.097 72.7845H628.978C630.192 66.5105 636.264 62.6652 645.371 62.6652C655.491 62.6652 660.753 67.1177 660.753 75.4155V84.7251H644.157C622.907 84.7251 604.49 91.6062 604.49 114.273C604.49 134.714 618.252 143.619 635.657 143.619C647.597 143.619 655.086 139.774 660.753 131.274H661.562V142H686.253V74.6059C686.253 52.7484 670.872 42.8315 645.371 42.8315ZM642.336 122.571C635.05 122.571 629.788 120.142 629.788 113.261C629.788 106.38 635.657 102.94 645.371 102.94H660.753V107.999C660.753 117.714 651.645 122.571 642.336 122.571Z" fill="#2A1804"/>
<path d="M750.099 120.142C744.23 120.142 740.587 117.107 740.587 110.833V65.9034H760.016V44.4506H740.587V22.1883H713.872V44.4506H700.515V65.9034H713.872V109.618C713.872 131.881 722.372 143.619 743.623 143.619C752.325 143.619 757.992 142.81 764.671 141.393V117.714C761.433 118.928 755.766 120.142 750.099 120.142Z" fill="#2A1804"/>
<path d="M840.635 142H886.171C909.041 142 930.898 127.024 930.898 98.8921C930.898 81.487 923.612 69.1415 910.66 63.2724V62.4628C917.945 58.4151 925.636 49.5102 925.636 35.1409C925.636 12.0691 910.255 0.330765 885.159 0.330765H840.635V142ZM869.373 51.7365V25.4265H884.147C891.433 25.4265 896.897 29.0694 896.897 38.5815C896.897 48.4983 891.433 51.7365 884.147 51.7365H869.373ZM869.373 116.904V75.2131H883.742C894.874 75.2131 902.159 81.8918 902.159 96.0587C902.159 110.226 894.874 116.904 883.742 116.904H869.373Z" fill="#2A1804"/>
<path d="M993.15 143.619C1019.06 143.619 1040.31 126.416 1040.31 93.2253C1040.31 60.0342 1019.06 42.8315 993.15 42.8315C967.245 42.8315 945.995 60.0342 945.995 93.2253C945.995 126.416 967.245 143.619 993.15 143.619ZM993.15 119.738C981.817 119.738 973.519 110.833 973.519 93.2253C973.519 75.6179 981.817 66.7129 993.15 66.7129C1004.48 66.7129 1012.78 75.6179 1012.78 93.2253C1012.78 110.833 1004.48 119.738 993.15 119.738Z" fill="#2A1804"/>
<path d="M1112.32 44.4506L1092.69 97.6778L1071.64 44.4506H1044.32L1080.74 129.857C1078.32 135.524 1075.69 137.548 1069.41 137.548C1064.55 137.548 1060.1 136.94 1056.05 135.928V159.81C1061.11 160.619 1065.16 161.024 1070.42 161.024C1084.99 161.024 1094.71 156.167 1102 137.952L1139.44 44.4506H1112.32Z" fill="#2A1804"/>
</g>
<defs>
<clipPath id="clip0_1_5">
<rect width="1140" height="162" fill="white"/>
</clipPath>
</defs>
</svg>
