<svg width="31" height="32" viewBox="0 0 31 32" fill="none" xmlns="http://www.w3.org/2000/svg">
<g id="&#208;&#179;&#208;&#190;&#208;&#187;&#208;&#190;&#208;&#178;&#208;&#176;">
<path id="Vector" d="M30.585 26.3884H28.7146V28.2588H30.585V26.3884Z" fill="#4C3531"/>
<path id="Vector_2" d="M30.585 24.4778H28.7146V26.3482H30.585V24.4778Z" fill="#D17E46"/>
<path id="Vector_3" d="M30.585 22.6072H28.7146V24.4776H30.585V22.6072Z" fill="#D17E46"/>
<path id="Vector_4" d="M30.585 20.7368H28.7146V22.6072H30.585V20.7368Z" fill="#D17E46"/>
<path id="Vector_5" d="M30.585 18.8259H28.7146V20.6963H30.585V18.8259Z" fill="#4C3531"/>
<path id="Vector_6" d="M30.585 16.9556H28.7146V18.826H30.585V16.9556Z" fill="#4C3531"/>
<path id="Vector_7" d="M30.585 15.0442H28.7146V16.9146H30.585V15.0442Z" fill="#4C3531"/>
<path id="Vector_8" d="M30.585 13.1738H28.7146V15.0442H30.585V13.1738Z" fill="#684F4A"/>
<path id="Vector_9" d="M30.585 11.3035H28.7146V13.1739H30.585V11.3035Z" fill="#684F4A"/>
<path id="Vector_10" d="M30.585 9.39258H28.7146V11.263H30.585V9.39258Z" fill="#684F4A"/>
<path id="Vector_11" d="M30.585 7.52222H28.7146V9.39261H30.585V7.52222Z" fill="#8C615B"/>
<path id="Vector_12" d="M28.6741 28.259H26.8037V30.1294H28.6741V28.259Z" fill="#D17E46"/>
<path id="Vector_13" d="M28.6741 26.3884H26.8037V28.2588H28.6741V26.3884Z" fill="#D17E46"/>
<path id="Vector_14" d="M28.6741 24.4778H26.8037V26.3482H28.6741V24.4778Z" fill="#D17E46"/>
<path id="Vector_15" d="M28.6741 22.6072H26.8037V24.4776H28.6741V22.6072Z" fill="#D17E46"/>
<path id="Vector_16" d="M28.6741 20.7368H26.8037V22.6072H28.6741V20.7368Z" fill="#D17E46"/>
<path id="Vector_17" d="M28.6741 18.8259H26.8037V20.6963H28.6741V18.8259Z" fill="#4C3531"/>
<path id="Vector_18" d="M28.6741 16.9556H26.8037V18.826H28.6741V16.9556Z" fill="#4C3531"/>
<path id="Vector_19" d="M28.6741 15.0442H26.8037V16.9146H28.6741V15.0442Z" fill="#4C3531"/>
<path id="Vector_20" d="M28.6741 13.1738H26.8037V15.0442H28.6741V13.1738Z" fill="#4C3531"/>
<path id="Vector_21" d="M28.6741 11.3035H26.8037V13.1739H28.6741V11.3035Z" fill="#684F4A"/>
<path id="Vector_22" d="M28.6741 9.39258H26.8037V11.263H28.6741V9.39258Z" fill="#684F4A"/>
<path id="Vector_23" d="M28.6741 7.52222H26.8037V9.39261H28.6741V7.52222Z" fill="#684F4A"/>
<path id="Vector_24" d="M28.6741 5.65161H26.8037V7.52201H28.6741V5.65161Z" fill="#8C615B"/>
<path id="Vector_25" d="M26.8037 30.1294H24.9333V31.9998H26.8037V30.1294Z" fill="#D17E46"/>
<path id="Vector_26" d="M26.8037 28.259H24.9333V30.1294H26.8037V28.259Z" fill="#D17E46"/>
<path id="Vector_27" d="M26.8037 26.3884H24.9333V28.2588H26.8037V26.3884Z" fill="#D17E46"/>
<path id="Vector_28" d="M26.8037 24.4778H24.9333V26.3482H26.8037V24.4778Z" fill="#EAA36E"/>
<path id="Vector_29" d="M26.8037 22.6072H24.9333V24.4776H26.8037V22.6072Z" fill="#EAA36E"/>
<path id="Vector_30" d="M26.8037 20.7368H24.9333V22.6072H26.8037V20.7368Z" fill="#D17E46"/>
<path id="Vector_31" d="M26.8037 18.8259H24.9333V20.6963H26.8037V18.8259Z" fill="#D17E46"/>
<path id="Vector_32" d="M26.8037 16.9556H24.9333V18.826H26.8037V16.9556Z" fill="#D17E46"/>
<path id="Vector_33" d="M26.8037 15.0442H24.9333V16.9146H26.8037V15.0442Z" fill="#D17E46"/>
<path id="Vector_34" d="M26.8037 13.1738H24.9333V15.0442H26.8037V13.1738Z" fill="#4C3531"/>
<path id="Vector_35" d="M26.8037 11.3035H24.9333V13.1739H26.8037V11.3035Z" fill="#4C3531"/>
<path id="Vector_36" d="M26.8037 9.39258H24.9333V11.263H26.8037V9.39258Z" fill="#684F4A"/>
<path id="Vector_37" d="M26.8037 7.52222H24.9333V9.39261H26.8037V7.52222Z" fill="#684F4A"/>
<path id="Vector_38" d="M26.8037 5.65161H24.9333V7.52201H26.8037V5.65161Z" fill="#684F4A"/>
<path id="Vector_39" d="M26.8037 3.74097H24.9333V5.61135H26.8037V3.74097Z" fill="#8C615B"/>
<path id="Vector_40" d="M24.9331 30.1294H23.0627V31.9998H24.9331V30.1294Z" fill="#D17E46"/>
<path id="Vector_41" d="M24.9331 28.259H23.0627V30.1294H24.9331V28.259Z" fill="#EAA36E"/>
<path id="Vector_42" d="M24.9331 26.3884H23.0627V28.2588H24.9331V26.3884Z" fill="#EAA36E"/>
<path id="Vector_43" d="M24.9331 24.4778H23.0627V26.3482H24.9331V24.4778Z" fill="#EAA36E"/>
<path id="Vector_44" d="M24.9331 22.6072H23.0627V24.4776H24.9331V22.6072Z" fill="#EAA36E"/>
<path id="Vector_45" d="M24.9331 20.7368H23.0627V22.6072H24.9331V20.7368Z" fill="#D17E46"/>
<path id="Vector_46" d="M24.9331 18.8259H23.0627V20.6963H24.9331V18.8259Z" fill="#D17E46"/>
<path id="Vector_47" d="M24.9331 16.9556H23.0627V18.826H24.9331V16.9556Z" fill="#D17E46"/>
<path id="Vector_48" d="M24.9331 15.0442H23.0627V16.9146H24.9331V15.0442Z" fill="#D17E46"/>
<path id="Vector_49" d="M24.9331 13.1738H23.0627V15.0442H24.9331V13.1738Z" fill="#4C3531"/>
<path id="Vector_50" d="M24.9331 11.3035H23.0627V13.1739H24.9331V11.3035Z" fill="#4C3531"/>
<path id="Vector_51" d="M24.9331 9.39258H23.0627V11.263H24.9331V9.39258Z" fill="#684F4A"/>
<path id="Vector_52" d="M24.9331 7.52222H23.0627V9.39261H24.9331V7.52222Z" fill="#684F4A"/>
<path id="Vector_53" d="M24.9331 5.65161H23.0627V7.52201H24.9331V5.65161Z" fill="#684F4A"/>
<path id="Vector_54" d="M24.9331 3.74097H23.0627V5.61135H24.9331V3.74097Z" fill="#8C615B"/>
<path id="Vector_55" d="M23.0223 30.1294H21.1519V31.9998H23.0223V30.1294Z" fill="#D17E46"/>
<path id="Vector_56" d="M23.0223 28.259H21.1519V30.1294H23.0223V28.259Z" fill="#EAA36E"/>
<path id="Vector_57" d="M23.0223 26.3884H21.1519V28.2588H23.0223V26.3884Z" fill="#EAA36E"/>
<path id="Vector_58" d="M23.0223 24.4778H21.1519V26.3482H23.0223V24.4778Z" fill="#EAA36E"/>
<path id="Vector_59" d="M23.0223 22.6072H21.1519V24.4776H23.0223V22.6072Z" fill="#EAA36E"/>
<path id="Vector_60" d="M23.0223 20.7368H21.1519V22.6072H23.0223V20.7368Z" fill="#21140C"/>
<path id="Vector_61" d="M23.0223 18.8259H21.1519V20.6963H23.0223V18.8259Z" fill="#21140C"/>
<path id="Vector_62" d="M23.0223 16.9556H21.1519V18.826H23.0223V16.9556Z" fill="#EAA36E"/>
<path id="Vector_63" d="M23.0223 15.0442H21.1519V16.9146H23.0223V15.0442Z" fill="#D17E46"/>
<path id="Vector_64" d="M23.0223 13.1738H21.1519V15.0442H23.0223V13.1738Z" fill="#D17E46"/>
<path id="Vector_65" d="M23.0223 11.3035H21.1519V13.1739H23.0223V11.3035Z" fill="#4C3531"/>
<path id="Vector_66" d="M23.0223 9.39258H21.1519V11.263H23.0223V9.39258Z" fill="#684F4A"/>
<path id="Vector_67" d="M23.0223 7.52222H21.1519V9.39261H23.0223V7.52222Z" fill="#684F4A"/>
<path id="Vector_68" d="M23.0223 5.65161H21.1519V7.52201H23.0223V5.65161Z" fill="#684F4A"/>
<path id="Vector_69" d="M23.0223 3.74097H21.1519V5.61135H23.0223V3.74097Z" fill="#8C615B"/>
<path id="Vector_70" d="M21.1519 30.1294H19.2815V31.9998H21.1519V30.1294Z" fill="#D17E46"/>
<path id="Vector_71" d="M21.1519 28.259H19.2815V30.1294H21.1519V28.259Z" fill="#EAA36E"/>
<path id="Vector_72" d="M21.1519 26.3884H19.2815V28.2588H21.1519V26.3884Z" fill="#EAA36E"/>
<path id="Vector_73" d="M21.1519 24.4778H19.2815V26.3482H21.1519V24.4778Z" fill="#EAA36E"/>
<path id="Vector_74" d="M21.1519 22.6072H19.2815V24.4776H21.1519V22.6072Z" fill="#EAA36E"/>
<path id="Vector_75" d="M21.1519 20.7368H19.2815V22.6072H21.1519V20.7368Z" fill="#21140C"/>
<path id="Vector_76" d="M21.1519 18.8259H19.2815V20.6963H21.1519V18.8259Z" fill="#422C1C"/>
<path id="Vector_77" d="M21.1519 16.9556H19.2815V18.826H21.1519V16.9556Z" fill="#EAA36E"/>
<path id="Vector_78" d="M21.1519 15.0442H19.2815V16.9146H21.1519V15.0442Z" fill="#EAA36E"/>
<path id="Vector_79" d="M21.1519 13.1738H19.2815V15.0442H21.1519V13.1738Z" fill="#D17E46"/>
<path id="Vector_80" d="M21.1519 11.3035H19.2815V13.1739H21.1519V11.3035Z" fill="#4C3531"/>
<path id="Vector_81" d="M21.1519 9.39258H19.2815V11.263H21.1519V9.39258Z" fill="#684F4A"/>
<path id="Vector_82" d="M21.1519 7.52222H19.2815V9.39261H21.1519V7.52222Z" fill="#684F4A"/>
<path id="Vector_83" d="M21.1519 5.65161H19.2815V7.52201H21.1519V5.65161Z" fill="#684F4A"/>
<path id="Vector_84" d="M21.1519 3.74097H19.2815V5.61135H21.1519V3.74097Z" fill="#684F4A"/>
<path id="Vector_85" d="M21.1519 1.87036H19.2815V3.74076H21.1519V1.87036Z" fill="#8C615B"/>
<path id="Vector_86" d="M19.2813 30.1294H17.4109V31.9998H19.2813V30.1294Z" fill="#D17E46"/>
<path id="Vector_87" d="M19.2813 28.259H17.4109V30.1294H19.2813V28.259Z" fill="#EAA36E"/>
<path id="Vector_88" d="M19.2813 26.3884H17.4109V28.2588H19.2813V26.3884Z" fill="#EAA36E"/>
<path id="Vector_89" d="M19.2813 24.4778H17.4109V26.3482H19.2813V24.4778Z" fill="#EAA36E"/>
<path id="Vector_90" d="M19.2813 22.6072H17.4109V24.4776H19.2813V22.6072Z" fill="white"/>
<path id="Vector_91" d="M19.2813 20.7368H17.4109V22.6072H19.2813V20.7368Z" fill="#EAA36E"/>
<path id="Vector_92" d="M19.2813 18.8259H17.4109V20.6963H19.2813V18.8259Z" fill="#EAA36E"/>
<path id="Vector_93" d="M19.2813 16.9556H17.4109V18.826H19.2813V16.9556Z" fill="#EAA36E"/>
<path id="Vector_94" d="M19.2813 15.0442H17.4109V16.9146H19.2813V15.0442Z" fill="#EAA36E"/>
<path id="Vector_95" d="M19.2813 13.1738H17.4109V15.0442H19.2813V13.1738Z" fill="#D17E46"/>
<path id="Vector_96" d="M19.2813 11.3035H17.4109V13.1739H19.2813V11.3035Z" fill="#4C3531"/>
<path id="Vector_97" d="M19.2813 9.39258H17.4109V11.263H19.2813V9.39258Z" fill="#4C3531"/>
<path id="Vector_98" d="M19.2813 7.52222H17.4109V9.39261H19.2813V7.52222Z" fill="#684F4A"/>
<path id="Vector_99" d="M19.2813 5.65161H17.4109V7.52201H19.2813V5.65161Z" fill="#684F4A"/>
<path id="Vector_100" d="M19.2813 3.74097H17.4109V5.61135H19.2813V3.74097Z" fill="#684F4A"/>
<path id="Vector_101" d="M19.2813 1.87036H17.4109V3.74076H19.2813V1.87036Z" fill="#8C615B"/>
<path id="Vector_102" d="M17.3704 30.1294H15.5V31.9998H17.3704V30.1294Z" fill="#D17E46"/>
<path id="Vector_103" d="M17.3704 28.259H15.5V30.1294H17.3704V28.259Z" fill="#EAA36E"/>
<path id="Vector_104" d="M17.3704 26.3884H15.5V28.2588H17.3704V26.3884Z" fill="#EAA36E"/>
<path id="Vector_105" d="M17.3704 24.4778H15.5V26.3482H17.3704V24.4778Z" fill="white"/>
<path id="Vector_106" d="M17.3704 22.6072H15.5V24.4776H17.3704V22.6072Z" fill="white"/>
<path id="Vector_107" d="M17.3704 20.7368H15.5V22.6072H17.3704V20.7368Z" fill="#EAA36E"/>
<path id="Vector_108" d="M17.3704 18.8259H15.5V20.6963H17.3704V18.8259Z" fill="#EAA36E"/>
<path id="Vector_109" d="M17.3704 16.9556H15.5V18.826H17.3704V16.9556Z" fill="#EAA36E"/>
<path id="Vector_110" d="M17.3704 15.0442H15.5V16.9146H17.3704V15.0442Z" fill="#EAA36E"/>
<path id="Vector_111" d="M17.3704 13.1738H15.5V15.0442H17.3704V13.1738Z" fill="#D17E46"/>
<path id="Vector_112" d="M17.3704 11.3035H15.5V13.1739H17.3704V11.3035Z" fill="#4C3531"/>
<path id="Vector_113" d="M17.3704 9.39258H15.5V11.263H17.3704V9.39258Z" fill="#4C3531"/>
<path id="Vector_114" d="M17.3704 7.52222H15.5V9.39261H17.3704V7.52222Z" fill="#684F4A"/>
<path id="Vector_115" d="M17.3704 5.65161H15.5V7.52201H17.3704V5.65161Z" fill="#684F4A"/>
<path id="Vector_116" d="M17.3704 3.74097H15.5V5.61135H17.3704V3.74097Z" fill="#684F4A"/>
<path id="Vector_117" d="M17.3704 1.87036H15.5V3.74076H17.3704V1.87036Z" fill="#8C615B"/>
<path id="Vector_118" d="M15.5 30.1294H13.6296V31.9998H15.5V30.1294Z" fill="#D17E46"/>
<path id="Vector_119" d="M15.5 28.259H13.6296V30.1294H15.5V28.259Z" fill="#EAA36E"/>
<path id="Vector_120" d="M15.5 26.3884H13.6296V28.2588H15.5V26.3884Z" fill="white"/>
<path id="Vector_121" d="M15.5 24.4778H13.6296V26.3482H15.5V24.4778Z" fill="white"/>
<path id="Vector_122" d="M15.5 22.6072H13.6296V24.4776H15.5V22.6072Z" fill="white"/>
<path id="Vector_123" d="M15.5 20.7368H13.6296V22.6072H15.5V20.7368Z" fill="#EAA36E"/>
<path id="Vector_124" d="M15.5 18.8259H13.6296V20.6963H15.5V18.8259Z" fill="#EAA36E"/>
<path id="Vector_125" d="M15.5 16.9556H13.6296V18.826H15.5V16.9556Z" fill="#EAA36E"/>
<path id="Vector_126" d="M15.5 15.0442H13.6296V16.9146H15.5V15.0442Z" fill="#EAA36E"/>
<path id="Vector_127" d="M15.5 13.1738H13.6296V15.0442H15.5V13.1738Z" fill="#D17E46"/>
<path id="Vector_128" d="M15.5 11.3035H13.6296V13.1739H15.5V11.3035Z" fill="#4C3531"/>
<path id="Vector_129" d="M15.5 9.39258H13.6296V11.263H15.5V9.39258Z" fill="#4C3531"/>
<path id="Vector_130" d="M15.5 7.52222H13.6296V9.39261H15.5V7.52222Z" fill="#684F4A"/>
<path id="Vector_131" d="M15.5 5.65161H13.6296V7.52201H15.5V5.65161Z" fill="#684F4A"/>
<path id="Vector_132" d="M15.5 3.74097H13.6296V5.61135H15.5V3.74097Z" fill="#684F4A"/>
<path id="Vector_133" d="M15.5 1.87036H13.6296V3.74076H15.5V1.87036Z" fill="#8C615B"/>
<path id="Vector_134" d="M13.6294 30.1294H11.759V31.9998H13.6294V30.1294Z" fill="#D17E46"/>
<path id="Vector_135" d="M13.6294 28.259H11.759V30.1294H13.6294V28.259Z" fill="#EAA36E"/>
<path id="Vector_136" d="M13.6294 26.3884H11.759V28.2588H13.6294V26.3884Z" fill="white"/>
<path id="Vector_137" d="M13.6294 24.4778H11.759V26.3482H13.6294V24.4778Z" fill="white"/>
<path id="Vector_138" d="M13.6294 22.6072H11.759V24.4776H13.6294V22.6072Z" fill="white"/>
<path id="Vector_139" d="M13.6294 20.7368H11.759V22.6072H13.6294V20.7368Z" fill="#EAA36E"/>
<path id="Vector_140" d="M13.6294 18.8259H11.759V20.6963H13.6294V18.8259Z" fill="#EAA36E"/>
<path id="Vector_141" d="M13.6294 16.9556H11.759V18.826H13.6294V16.9556Z" fill="#EAA36E"/>
<path id="Vector_142" d="M13.6294 15.0442H11.759V16.9146H13.6294V15.0442Z" fill="#EAA36E"/>
<path id="Vector_143" d="M13.6294 13.1738H11.759V15.0442H13.6294V13.1738Z" fill="#D17E46"/>
<path id="Vector_144" d="M13.6294 11.3035H11.759V13.1739H13.6294V11.3035Z" fill="#4C3531"/>
<path id="Vector_145" d="M13.6294 9.39258H11.759V11.263H13.6294V9.39258Z" fill="#4C3531"/>
<path id="Vector_146" d="M13.6294 7.52222H11.759V9.39261H13.6294V7.52222Z" fill="#684F4A"/>
<path id="Vector_147" d="M13.6294 5.65161H11.759V7.52201H13.6294V5.65161Z" fill="#684F4A"/>
<path id="Vector_148" d="M13.6294 3.74097H11.759V5.61135H13.6294V3.74097Z" fill="#684F4A"/>
<path id="Vector_149" d="M13.6294 1.87036H11.759V3.74076H13.6294V1.87036Z" fill="#8C615B"/>
<path id="Vector_150" d="M11.7185 30.1294H9.84814V31.9998H11.7185V30.1294Z" fill="#D17E46"/>
<path id="Vector_151" d="M11.7185 28.259H9.84814V30.1294H11.7185V28.259Z" fill="#EAA36E"/>
<path id="Vector_152" d="M11.7185 26.3884H9.84814V28.2588H11.7185V26.3884Z" fill="#EAA36E"/>
<path id="Vector_153" d="M11.7185 24.4778H9.84814V26.3482H11.7185V24.4778Z" fill="white"/>
<path id="Vector_154" d="M11.7185 22.6072H9.84814V24.4776H11.7185V22.6072Z" fill="white"/>
<path id="Vector_155" d="M11.7185 20.7368H9.84814V22.6072H11.7185V20.7368Z" fill="#EAA36E"/>
<path id="Vector_156" d="M11.7185 18.8259H9.84814V20.6963H11.7185V18.8259Z" fill="#EAA36E"/>
<path id="Vector_157" d="M11.7185 16.9556H9.84814V18.826H11.7185V16.9556Z" fill="#EAA36E"/>
<path id="Vector_158" d="M11.7185 15.0442H9.84814V16.9146H11.7185V15.0442Z" fill="#EAA36E"/>
<path id="Vector_159" d="M11.7185 13.1738H9.84814V15.0442H11.7185V13.1738Z" fill="#D17E46"/>
<path id="Vector_160" d="M11.7185 11.3035H9.84814V13.1739H11.7185V11.3035Z" fill="#4C3531"/>
<path id="Vector_161" d="M11.7185 9.39258H9.84814V11.263H11.7185V9.39258Z" fill="#4C3531"/>
<path id="Vector_162" d="M11.7185 7.52222H9.84814V9.39261H11.7185V7.52222Z" fill="#684F4A"/>
<path id="Vector_163" d="M11.7185 5.65161H9.84814V7.52201H11.7185V5.65161Z" fill="#684F4A"/>
<path id="Vector_164" d="M11.7185 3.74097H9.84814V5.61135H11.7185V3.74097Z" fill="#684F4A"/>
<path id="Vector_165" d="M11.7185 1.87036H9.84814V3.74076H11.7185V1.87036Z" fill="#684F4A"/>
<path id="Vector_166" d="M11.7185 0H9.84814V1.8704H11.7185V0Z" fill="#8C615B"/>
<path id="Vector_167" d="M9.84818 30.1294H7.97778V31.9998H9.84818V30.1294Z" fill="#D17E46"/>
<path id="Vector_168" d="M9.84818 28.259H7.97778V30.1294H9.84818V28.259Z" fill="#EAA36E"/>
<path id="Vector_169" d="M9.84818 26.3884H7.97778V28.2588H9.84818V26.3884Z" fill="#EAA36E"/>
<path id="Vector_170" d="M9.84818 24.4778H7.97778V26.3482H9.84818V24.4778Z" fill="#EAA36E"/>
<path id="Vector_171" d="M9.84818 22.6072H7.97778V24.4776H9.84818V22.6072Z" fill="white"/>
<path id="Vector_172" d="M9.84818 20.7368H7.97778V22.6072H9.84818V20.7368Z" fill="#EAA36E"/>
<path id="Vector_173" d="M9.84818 18.8259H7.97778V20.6963H9.84818V18.8259Z" fill="#EAA36E"/>
<path id="Vector_174" d="M9.84818 16.9556H7.97778V18.826H9.84818V16.9556Z" fill="#EAA36E"/>
<path id="Vector_175" d="M9.84818 15.0442H7.97778V16.9146H9.84818V15.0442Z" fill="#EAA36E"/>
<path id="Vector_176" d="M9.84818 13.1738H7.97778V15.0442H9.84818V13.1738Z" fill="#D17E46"/>
<path id="Vector_177" d="M9.84818 11.3035H7.97778V13.1739H9.84818V11.3035Z" fill="#4C3531"/>
<path id="Vector_178" d="M9.84818 9.39258H7.97778V11.263H9.84818V9.39258Z" fill="#4C3531"/>
<path id="Vector_179" d="M9.84818 7.52222H7.97778V9.39261H9.84818V7.52222Z" fill="#684F4A"/>
<path id="Vector_180" d="M9.84818 5.65161H7.97778V7.52201H9.84818V5.65161Z" fill="#684F4A"/>
<path id="Vector_181" d="M9.84818 3.74097H7.97778V5.61135H9.84818V3.74097Z" fill="#684F4A"/>
<path id="Vector_182" d="M9.84818 1.87036H7.97778V3.74076H9.84818V1.87036Z" fill="#684F4A"/>
<path id="Vector_183" d="M9.84818 0H7.97778V1.8704H9.84818V0Z" fill="#8C615B"/>
<path id="Vector_184" d="M7.97781 30.1294H6.10742V31.9998H7.97781V30.1294Z" fill="#D17E46"/>
<path id="Vector_185" d="M7.97781 28.259H6.10742V30.1294H7.97781V28.259Z" fill="#EAA36E"/>
<path id="Vector_186" d="M7.97781 26.3884H6.10742V28.2588H7.97781V26.3884Z" fill="#EAA36E"/>
<path id="Vector_187" d="M7.97781 24.4778H6.10742V26.3482H7.97781V24.4778Z" fill="#EAA36E"/>
<path id="Vector_188" d="M7.97781 22.6072H6.10742V24.4776H7.97781V22.6072Z" fill="#EAA36E"/>
<path id="Vector_189" d="M7.97781 20.7368H6.10742V22.6072H7.97781V20.7368Z" fill="#21140C"/>
<path id="Vector_190" d="M7.97781 18.8259H6.10742V20.6963H7.97781V18.8259Z" fill="#21140C"/>
<path id="Vector_191" d="M7.97781 16.9556H6.10742V18.826H7.97781V16.9556Z" fill="#EAA36E"/>
<path id="Vector_192" d="M7.97781 15.0442H6.10742V16.9146H7.97781V15.0442Z" fill="#EAA36E"/>
<path id="Vector_193" d="M7.97781 13.1738H6.10742V15.0442H7.97781V13.1738Z" fill="#D17E46"/>
<path id="Vector_194" d="M7.97781 11.3035H6.10742V13.1739H7.97781V11.3035Z" fill="#4C3531"/>
<path id="Vector_195" d="M7.97781 9.39258H6.10742V11.263H7.97781V9.39258Z" fill="#4C3531"/>
<path id="Vector_196" d="M7.97781 7.52222H6.10742V9.39261H7.97781V7.52222Z" fill="#684F4A"/>
<path id="Vector_197" d="M7.97781 5.65161H6.10742V7.52201H7.97781V5.65161Z" fill="#684F4A"/>
<path id="Vector_198" d="M7.97781 3.74097H6.10742V5.61135H7.97781V3.74097Z" fill="#684F4A"/>
<path id="Vector_199" d="M7.97781 1.87036H6.10742V3.74076H7.97781V1.87036Z" fill="#684F4A"/>
<path id="Vector_200" d="M7.97781 0H6.10742V1.8704H7.97781V0Z" fill="#8C615B"/>
<path id="Vector_201" d="M6.06669 30.1294H4.19629V31.9998H6.06669V30.1294Z" fill="#D17E46"/>
<path id="Vector_202" d="M6.06669 28.259H4.19629V30.1294H6.06669V28.259Z" fill="#EAA36E"/>
<path id="Vector_203" d="M6.06669 26.3884H4.19629V28.2588H6.06669V26.3884Z" fill="#EAA36E"/>
<path id="Vector_204" d="M6.06669 24.4778H4.19629V26.3482H6.06669V24.4778Z" fill="#EAA36E"/>
<path id="Vector_205" d="M6.06669 22.6072H4.19629V24.4776H6.06669V22.6072Z" fill="#EAA36E"/>
<path id="Vector_206" d="M6.06669 20.7368H4.19629V22.6072H6.06669V20.7368Z" fill="#21140C"/>
<path id="Vector_207" d="M6.06669 18.8259H4.19629V20.6963H6.06669V18.8259Z" fill="#422C1C"/>
<path id="Vector_208" d="M6.06669 16.9556H4.19629V18.826H6.06669V16.9556Z" fill="#EAA36E"/>
<path id="Vector_209" d="M6.06669 15.0442H4.19629V16.9146H6.06669V15.0442Z" fill="#EAA36E"/>
<path id="Vector_210" d="M6.06669 13.1738H4.19629V15.0442H6.06669V13.1738Z" fill="#D17E46"/>
<path id="Vector_211" d="M6.06669 11.3035H4.19629V13.1739H6.06669V11.3035Z" fill="#4C3531"/>
<path id="Vector_212" d="M6.06669 9.39258H4.19629V11.263H6.06669V9.39258Z" fill="#4C3531"/>
<path id="Vector_213" d="M6.06669 7.52222H4.19629V9.39261H6.06669V7.52222Z" fill="#684F4A"/>
<path id="Vector_214" d="M6.06669 5.65161H4.19629V7.52201H6.06669V5.65161Z" fill="#684F4A"/>
<path id="Vector_215" d="M6.06669 3.74097H4.19629V5.61135H6.06669V3.74097Z" fill="#684F4A"/>
<path id="Vector_216" d="M6.06669 1.87036H4.19629V3.74076H6.06669V1.87036Z" fill="#684F4A"/>
<path id="Vector_217" d="M6.06669 0H4.19629V1.8704H6.06669V0Z" fill="#8C615B"/>
<path id="Vector_218" d="M4.19632 28.259H2.32593V30.1294H4.19632V28.259Z" fill="#D17E46"/>
<path id="Vector_219" d="M4.19632 26.3884H2.32593V28.2588H4.19632V26.3884Z" fill="#EAA36E"/>
<path id="Vector_220" d="M4.19632 24.4778H2.32593V26.3482H4.19632V24.4778Z" fill="#EAA36E"/>
<path id="Vector_221" d="M4.19632 22.6072H2.32593V24.4776H4.19632V22.6072Z" fill="#EAA36E"/>
<path id="Vector_222" d="M4.19632 20.7368H2.32593V22.6072H4.19632V20.7368Z" fill="#EAA36E"/>
<path id="Vector_223" d="M4.19632 18.8259H2.32593V20.6963H4.19632V18.8259Z" fill="#EAA36E"/>
<path id="Vector_224" d="M4.19632 16.9556H2.32593V18.826H4.19632V16.9556Z" fill="#EAA36E"/>
<path id="Vector_225" d="M4.19632 15.0442H2.32593V16.9146H4.19632V15.0442Z" fill="#EAA36E"/>
<path id="Vector_226" d="M4.19632 13.1738H2.32593V15.0442H4.19632V13.1738Z" fill="#D17E46"/>
<path id="Vector_227" d="M4.19632 11.3035H2.32593V13.1739H4.19632V11.3035Z" fill="#4C3531"/>
<path id="Vector_228" d="M4.19632 9.39258H2.32593V11.263H4.19632V9.39258Z" fill="#4C3531"/>
<path id="Vector_229" d="M4.19632 7.52222H2.32593V9.39261H4.19632V7.52222Z" fill="#684F4A"/>
<path id="Vector_230" d="M4.19632 5.65161H2.32593V7.52201H4.19632V5.65161Z" fill="#684F4A"/>
<path id="Vector_231" d="M4.19632 3.74097H2.32593V5.61135H4.19632V3.74097Z" fill="#684F4A"/>
<path id="Vector_232" d="M4.19632 1.87036H2.32593V3.74076H4.19632V1.87036Z" fill="#684F4A"/>
<path id="Vector_233" d="M4.19632 0H2.32593V1.8704H4.19632V0Z" fill="#8C615B"/>
<path id="Vector_234" d="M2.28518 9.39258H0.414795V11.263H2.28518V9.39258Z" fill="#4C3531"/>
<path id="Vector_235" d="M2.28518 7.52222H0.414795V9.39261H2.28518V7.52222Z" fill="#4C3531"/>
<path id="Vector_236" d="M2.28518 5.65161H0.414795V7.52201H2.28518V5.65161Z" fill="#4C3531"/>
<path id="Vector_237" d="M2.28518 3.74097H0.414795V5.61135H2.28518V3.74097Z" fill="#684F4A"/>
<path id="Vector_238" d="M2.28518 1.87036H0.414795V3.74076H2.28518V1.87036Z" fill="#8C615B"/>
</g>
</svg>
