<svg width="279" height="90" viewBox="0 0 279 90" fill="none" xmlns="http://www.w3.org/2000/svg">
<path d="M-0.000146389 71.0601H5.88403V76.9442H-0.000146389V71.0601Z" fill="#322642"/>
<path d="M9.77516e-05 11.8962H5.88428V17.7804H9.77516e-05V11.8962Z" fill="#322642"/>
<path d="M6.01206 77.0713H11.8962V82.9554H6.01206V77.0713Z" fill="#322642"/>
<path d="M6.01206 5.88477H11.8962V11.7689H6.01206V5.88477Z" fill="#322642"/>
<path d="M11.8963 82.9563H17.7805V88.8405H11.8963V82.9563Z" fill="#322642"/>
<path d="M11.8963 0H17.7805V5.88418H11.8963V0Z" fill="#322642"/>
<path d="M17.7804 0H23.6646V5.88418H17.7804V0Z" fill="#322642"/>
<path d="M41.5729 82.9563H47.457V88.8405H41.5729V82.9563Z" fill="#322642"/>
<path d="M47.4569 82.9563H53.3411V88.8405H47.4569V82.9563Z" fill="#322642"/>
<path d="M53.4693 82.9563H59.3535V88.8405H53.4693V82.9563Z" fill="#322642"/>
<path d="M59.3534 82.9563H65.2375V88.8405H59.3534V82.9563Z" fill="#322642"/>
<path d="M65.2376 82.9563H71.1218V88.8405H65.2376V82.9563Z" fill="#322642"/>
<path d="M71.2496 82.9563H77.1338V88.8405H71.2496V82.9563Z" fill="#322642"/>
<path d="M77.1339 82.9563H83.0181V88.8405H77.1339V82.9563Z" fill="#322642"/>
<path d="M83.0179 82.9563H88.9021V88.8405H83.0179V82.9563Z" fill="#322642"/>
<path d="M83.0179 0H88.9021V5.88418H83.0179V0Z" fill="#322642"/>
<path d="M89.0299 82.9563H94.9141V88.8405H89.0299V82.9563Z" fill="#322642"/>
<path d="M89.0299 77.0713H94.9141V82.9554H89.0299V77.0713Z" fill="#B9CEE2"/>
<path d="M89.0299 71.0601H94.9141V76.9442H89.0299V71.0601Z" fill="#B9CEE2"/>
<path d="M89.0299 65.1753H94.9141V71.0595H89.0299V65.1753Z" fill="#E4F4FF"/>
<path d="M89.0299 59.3542H94.9141V65.2384H89.0299V59.3542Z" fill="#E4F4FF"/>
<path d="M89.0299 53.3428H94.9141V59.227H89.0299V53.3428Z" fill="white"/>
<path d="M89.0299 47.457H94.9141V53.3412H89.0299V47.457Z" fill="white"/>
<path d="M89.0299 41.5732H94.9141V47.4574H89.0299V41.5732Z" fill="white"/>
<path d="M89.0299 35.561H94.9141V41.4452H89.0299V35.561Z" fill="white"/>
<path d="M89.0299 29.677H94.9141V35.5612H89.0299V29.677Z" fill="white"/>
<path d="M89.0299 23.7932H94.9141V29.6774H89.0299V23.7932Z" fill="white"/>
<path d="M89.0299 17.781H94.9141V23.6652H89.0299V17.781Z" fill="white"/>
<path d="M89.0299 11.8962H94.9141V17.7804H89.0299V11.8962Z" fill="white"/>
<path d="M89.0299 5.88477H94.9141V11.7689H89.0299V5.88477Z" fill="white"/>
<path d="M89.0299 0H94.9141V5.88418H89.0299V0Z" fill="#322642"/>
<path d="M94.9142 82.9563H100.798V88.8405H94.9142V82.9563Z" fill="#322642"/>
<path d="M94.9142 77.0713H100.798V82.9554H94.9142V77.0713Z" fill="#B9CEE2"/>
<path d="M94.9142 71.0601H100.798V76.9442H94.9142V71.0601Z" fill="#B9CEE2"/>
<path d="M94.9142 65.1753H100.798V71.0595H94.9142V65.1753Z" fill="#E4F4FF"/>
<path d="M94.9142 59.3542H100.798V65.2384H94.9142V59.3542Z" fill="#E4F4FF"/>
<path d="M94.9142 53.3428H100.798V59.227H94.9142V53.3428Z" fill="white"/>
<path d="M94.9142 47.457H100.798V53.3412H94.9142V47.457Z" fill="white"/>
<path d="M94.9142 41.5732H100.798V47.4574H94.9142V41.5732Z" fill="white"/>
<path d="M94.9142 35.561H100.798V41.4452H94.9142V35.561Z" fill="white"/>
<path d="M94.9142 29.677H100.798V35.5612H94.9142V29.677Z" fill="white"/>
<path d="M94.9142 23.7932H100.798V29.6774H94.9142V23.7932Z" fill="white"/>
<path d="M94.9142 17.781H100.798V23.6652H94.9142V17.781Z" fill="white"/>
<path d="M94.9142 11.8962H100.798V17.7804H94.9142V11.8962Z" fill="white"/>
<path d="M94.9142 5.88477H100.798V11.7689H94.9142V5.88477Z" fill="white"/>
<path d="M94.9142 0H100.798V5.88418H94.9142V0Z" fill="#322642"/>
<path d="M100.798 82.9563H106.683V88.8405H100.798V82.9563Z" fill="#322642"/>
<path d="M100.798 77.0713H106.683V82.9554H100.798V77.0713Z" fill="#B9CEE2"/>
<path d="M100.798 71.0601H106.683V76.9442H100.798V71.0601Z" fill="#B9CEE2"/>
<path d="M100.798 65.1753H106.683V71.0595H100.798V65.1753Z" fill="#E4F4FF"/>
<path d="M100.798 59.3542H106.683V65.2384H100.798V59.3542Z" fill="#E4F4FF"/>
<path d="M100.798 53.3428H106.683V59.227H100.798V53.3428Z" fill="white"/>
<path d="M100.798 47.457H106.683V53.3412H100.798V47.457Z" fill="white"/>
<path d="M100.798 41.5732H106.683V47.4574H100.798V41.5732Z" fill="white"/>
<path d="M100.798 35.561H106.683V41.4452H100.798V35.561Z" fill="white"/>
<path d="M100.798 29.677H106.683V35.5612H100.798V29.677Z" fill="white"/>
<path d="M100.798 23.7932H106.683V29.6774H100.798V23.7932Z" fill="white"/>
<path d="M100.798 17.781H106.683V23.6652H100.798V17.781Z" fill="white"/>
<path d="M100.798 11.8962H106.683V17.7804H100.798V11.8962Z" fill="white"/>
<path d="M100.798 5.88477H106.683V11.7689H100.798V5.88477Z" fill="white"/>
<path d="M100.798 0H106.683V5.88418H100.798V0Z" fill="#322642"/>
<path d="M106.811 82.9563H112.695V88.8405H106.811V82.9563Z" fill="#322642"/>
<path d="M106.811 77.0713H112.695V82.9554H106.811V77.0713Z" fill="#B9CEE2"/>
<path d="M106.811 71.0601H112.695V76.9442H106.811V71.0601Z" fill="#B9CEE2"/>
<path d="M106.811 65.1753H112.695V71.0595H106.811V65.1753Z" fill="#E4F4FF"/>
<path d="M106.811 59.3542H112.695V65.2384H106.811V59.3542Z" fill="#E4F4FF"/>
<path d="M106.811 53.3428H112.695V59.227H106.811V53.3428Z" fill="white"/>
<path d="M106.811 47.457H112.695V53.3412H106.811V47.457Z" fill="white"/>
<path d="M106.811 41.5732H112.695V47.4574H106.811V41.5732Z" fill="white"/>
<path d="M106.811 35.561H112.695V41.4452H106.811V35.561Z" fill="white"/>
<path d="M106.811 29.677H112.695V35.5612H106.811V29.677Z" fill="white"/>
<path d="M106.811 23.7932H112.695V29.6774H106.811V23.7932Z" fill="white"/>
<path d="M106.811 17.781H112.695V23.6652H106.811V17.781Z" fill="white"/>
<path d="M106.811 11.8962H112.695V17.7804H106.811V11.8962Z" fill="white"/>
<path d="M106.811 5.88477H112.695V11.7689H106.811V5.88477Z" fill="white"/>
<path d="M106.811 0H112.695V5.88418H106.811V0Z" fill="#322642"/>
<path d="M112.694 82.9563H118.579V88.8405H112.694V82.9563Z" fill="#322642"/>
<path d="M112.694 77.0713H118.579V82.9554H112.694V77.0713Z" fill="#B9CEE2"/>
<path d="M112.694 71.0601H118.579V76.9442H112.694V71.0601Z" fill="#B9CEE2"/>
<path d="M112.694 65.1753H118.579V71.0595H112.694V65.1753Z" fill="#E4F4FF"/>
<path d="M112.694 59.3542H118.579V65.2384H112.694V59.3542Z" fill="#E4F4FF"/>
<path d="M112.694 53.3428H118.579V59.227H112.694V53.3428Z" fill="white"/>
<path d="M112.694 47.457H118.579V53.3412H112.694V47.457Z" fill="white"/>
<path d="M112.694 41.5732H118.579V47.4574H112.694V41.5732Z" fill="white"/>
<path d="M112.694 35.561H118.579V41.4452H112.694V35.561Z" fill="white"/>
<path d="M112.694 29.677H118.579V35.5612H112.694V29.677Z" fill="white"/>
<path d="M112.694 23.7932H118.579V29.6774H112.694V23.7932Z" fill="white"/>
<path d="M112.694 17.781H118.579V23.6652H112.694V17.781Z" fill="white"/>
<path d="M112.694 11.8962H118.579V17.7804H112.694V11.8962Z" fill="white"/>
<path d="M112.694 5.88477H118.579V11.7689H112.694V5.88477Z" fill="white"/>
<path d="M112.694 0H118.579V5.88418H112.694V0Z" fill="#322642"/>
<path d="M118.707 82.9563H124.591V88.8405H118.707V82.9563Z" fill="#322642"/>
<path d="M118.707 77.0713H124.591V82.9554H118.707V77.0713Z" fill="#B9CEE2"/>
<path d="M118.707 71.0601H124.591V76.9442H118.707V71.0601Z" fill="#B9CEE2"/>
<path d="M118.707 65.1753H124.591V71.0595H118.707V65.1753Z" fill="#E4F4FF"/>
<path d="M118.707 59.3542H124.591V65.2384H118.707V59.3542Z" fill="#E4F4FF"/>
<path d="M118.707 53.3428H124.591V59.227H118.707V53.3428Z" fill="white"/>
<path d="M118.707 47.457H124.591V53.3412H118.707V47.457Z" fill="white"/>
<path d="M118.707 41.5732H124.591V47.4574H118.707V41.5732Z" fill="white"/>
<path d="M118.707 35.561H124.591V41.4452H118.707V35.561Z" fill="white"/>
<path d="M118.707 29.677H124.591V35.5612H118.707V29.677Z" fill="white"/>
<path d="M118.707 23.7932H124.591V29.6774H118.707V23.7932Z" fill="white"/>
<path d="M118.707 17.781H124.591V23.6652H118.707V17.781Z" fill="white"/>
<path d="M118.707 11.8962H124.591V17.7804H118.707V11.8962Z" fill="white"/>
<path d="M118.707 5.88477H124.591V11.7689H118.707V5.88477Z" fill="white"/>
<path d="M118.707 0H124.591V5.88418H118.707V0Z" fill="#322642"/>
<path d="M124.591 82.9563H130.475V88.8405H124.591V82.9563Z" fill="#322642"/>
<path d="M124.591 77.0713H130.475V82.9554H124.591V77.0713Z" fill="#B9CEE2"/>
<path d="M124.591 71.0601H130.475V76.9442H124.591V71.0601Z" fill="#B9CEE2"/>
<path d="M124.591 65.1753H130.475V71.0595H124.591V65.1753Z" fill="#E4F4FF"/>
<path d="M124.591 59.3542H130.475V65.2384H124.591V59.3542Z" fill="#E4F4FF"/>
<path d="M124.591 53.3428H130.475V59.227H124.591V53.3428Z" fill="white"/>
<path d="M124.591 47.457H130.475V53.3412H124.591V47.457Z" fill="white"/>
<path d="M124.591 41.5732H130.475V47.4574H124.591V41.5732Z" fill="white"/>
<path d="M124.591 35.561H130.475V41.4452H124.591V35.561Z" fill="white"/>
<path d="M124.591 29.677H130.475V35.5612H124.591V29.677Z" fill="white"/>
<path d="M124.591 23.7932H130.475V29.6774H124.591V23.7932Z" fill="white"/>
<path d="M124.591 17.781H130.475V23.6652H124.591V17.781Z" fill="white"/>
<path d="M124.591 11.8962H130.475V17.7804H124.591V11.8962Z" fill="white"/>
<path d="M124.591 5.88477H130.475V11.7689H124.591V5.88477Z" fill="white"/>
<path d="M124.591 0H130.475V5.88418H124.591V0Z" fill="#322642"/>
<path d="M130.475 82.9563H136.359V88.8405H130.475V82.9563Z" fill="#322642"/>
<path d="M130.475 77.0713H136.359V82.9554H130.475V77.0713Z" fill="#B9CEE2"/>
<path d="M130.475 71.0601H136.359V76.9442H130.475V71.0601Z" fill="#B9CEE2"/>
<path d="M130.475 65.1753H136.359V71.0595H130.475V65.1753Z" fill="#E4F4FF"/>
<path d="M130.475 59.3542H136.359V65.2384H130.475V59.3542Z" fill="#E4F4FF"/>
<path d="M130.475 53.3428H136.359V59.227H130.475V53.3428Z" fill="white"/>
<path d="M130.475 47.457H136.359V53.3412H130.475V47.457Z" fill="white"/>
<path d="M130.475 41.5732H136.359V47.4574H130.475V41.5732Z" fill="white"/>
<path d="M130.475 35.561H136.359V41.4452H130.475V35.561Z" fill="white"/>
<path d="M130.475 29.677H136.359V35.5612H130.475V29.677Z" fill="white"/>
<path d="M130.475 23.7932H136.359V29.6774H130.475V23.7932Z" fill="white"/>
<path d="M130.475 17.781H136.359V23.6652H130.475V17.781Z" fill="white"/>
<path d="M130.475 11.8962H136.359V17.7804H130.475V11.8962Z" fill="white"/>
<path d="M130.475 5.88477H136.359V11.7689H130.475V5.88477Z" fill="white"/>
<path d="M130.475 0H136.359V5.88418H130.475V0Z" fill="#322642"/>
<path d="M136.487 82.9563H142.371V88.8405H136.487V82.9563Z" fill="#322642"/>
<path d="M136.487 77.0713H142.371V82.9554H136.487V77.0713Z" fill="#B9CEE2"/>
<path d="M136.487 71.0601H142.371V76.9442H136.487V71.0601Z" fill="#B9CEE2"/>
<path d="M136.487 65.1753H142.371V71.0595H136.487V65.1753Z" fill="#E4F4FF"/>
<path d="M136.487 59.3542H142.371V65.2384H136.487V59.3542Z" fill="#E4F4FF"/>
<path d="M136.487 53.3428H142.371V59.227H136.487V53.3428Z" fill="white"/>
<path d="M136.487 47.457H142.371V53.3412H136.487V47.457Z" fill="white"/>
<path d="M136.487 41.5732H142.371V47.4574H136.487V41.5732Z" fill="white"/>
<path d="M136.487 35.561H142.371V41.4452H136.487V35.561Z" fill="white"/>
<path d="M136.487 29.677H142.371V35.5612H136.487V29.677Z" fill="white"/>
<path d="M136.487 23.7932H142.371V29.6774H136.487V23.7932Z" fill="white"/>
<path d="M136.487 17.781H142.371V23.6652H136.487V17.781Z" fill="white"/>
<path d="M136.487 11.8962H142.371V17.7804H136.487V11.8962Z" fill="white"/>
<path d="M136.487 5.88477H142.371V11.7689H136.487V5.88477Z" fill="white"/>
<path d="M136.487 0H142.371V5.88418H136.487V0Z" fill="#322642"/>
<path d="M142.371 82.9563H148.256V88.8405H142.371V82.9563Z" fill="#322642"/>
<path d="M142.371 77.0713H148.256V82.9554H142.371V77.0713Z" fill="#B9CEE2"/>
<path d="M142.371 71.0601H148.256V76.9442H142.371V71.0601Z" fill="#B9CEE2"/>
<path d="M142.371 65.1753H148.256V71.0595H142.371V65.1753Z" fill="#E4F4FF"/>
<path d="M142.371 59.3542H148.256V65.2384H142.371V59.3542Z" fill="#E4F4FF"/>
<path d="M142.371 53.3428H148.256V59.227H142.371V53.3428Z" fill="white"/>
<path d="M142.371 47.457H148.256V53.3412H142.371V47.457Z" fill="white"/>
<path d="M142.371 41.5732H148.256V47.4574H142.371V41.5732Z" fill="white"/>
<path d="M142.371 35.561H148.256V41.4452H142.371V35.561Z" fill="white"/>
<path d="M142.371 29.677H148.256V35.5612H142.371V29.677Z" fill="white"/>
<path d="M142.371 23.7932H148.256V29.6774H142.371V23.7932Z" fill="white"/>
<path d="M142.371 17.781H148.256V23.6652H142.371V17.781Z" fill="white"/>
<path d="M142.371 11.8962H148.256V17.7804H142.371V11.8962Z" fill="white"/>
<path d="M142.371 5.88477H148.256V11.7689H142.371V5.88477Z" fill="white"/>
<path d="M142.371 0H148.256V5.88418H142.371V0Z" fill="#322642"/>
<path d="M148.255 82.9563H154.14V88.8405H148.255V82.9563Z" fill="#322642"/>
<path d="M148.255 77.0713H154.14V82.9554H148.255V77.0713Z" fill="#B9CEE2"/>
<path d="M148.255 71.0601H154.14V76.9442H148.255V71.0601Z" fill="#B9CEE2"/>
<path d="M148.255 65.1753H154.14V71.0595H148.255V65.1753Z" fill="#E4F4FF"/>
<path d="M148.255 59.3542H154.14V65.2384H148.255V59.3542Z" fill="#E4F4FF"/>
<path d="M148.255 53.3428H154.14V59.227H148.255V53.3428Z" fill="white"/>
<path d="M148.255 47.457H154.14V53.3412H148.255V47.457Z" fill="white"/>
<path d="M148.255 41.5732H154.14V47.4574H148.255V41.5732Z" fill="white"/>
<path d="M148.255 35.561H154.14V41.4452H148.255V35.561Z" fill="white"/>
<path d="M148.255 29.677H154.14V35.5612H148.255V29.677Z" fill="white"/>
<path d="M148.255 23.7932H154.14V29.6774H148.255V23.7932Z" fill="white"/>
<path d="M148.255 17.781H154.14V23.6652H148.255V17.781Z" fill="white"/>
<path d="M148.255 11.8962H154.14V17.7804H148.255V11.8962Z" fill="white"/>
<path d="M148.255 5.88477H154.14V11.7689H148.255V5.88477Z" fill="white"/>
<path d="M148.255 0H154.14V5.88418H148.255V0Z" fill="#322642"/>
<path d="M154.268 82.9563H160.152V88.8405H154.268V82.9563Z" fill="#322642"/>
<path d="M154.268 77.0713H160.152V82.9554H154.268V77.0713Z" fill="#B9CEE2"/>
<path d="M154.268 71.0601H160.152V76.9442H154.268V71.0601Z" fill="#B9CEE2"/>
<path d="M154.268 65.1753H160.152V71.0595H154.268V65.1753Z" fill="#E4F4FF"/>
<path d="M154.268 59.3542H160.152V65.2384H154.268V59.3542Z" fill="#E4F4FF"/>
<path d="M154.268 53.3428H160.152V59.227H154.268V53.3428Z" fill="white"/>
<path d="M154.268 47.457H160.152V53.3412H154.268V47.457Z" fill="white"/>
<path d="M154.268 41.5732H160.152V47.4574H154.268V41.5732Z" fill="white"/>
<path d="M154.268 35.561H160.152V41.4452H154.268V35.561Z" fill="white"/>
<path d="M154.268 29.677H160.152V35.5612H154.268V29.677Z" fill="white"/>
<path d="M154.268 23.7932H160.152V29.6774H154.268V23.7932Z" fill="white"/>
<path d="M154.268 17.781H160.152V23.6652H154.268V17.781Z" fill="white"/>
<path d="M154.268 11.8962H160.152V17.7804H154.268V11.8962Z" fill="white"/>
<path d="M154.268 5.88477H160.152V11.7689H154.268V5.88477Z" fill="white"/>
<path d="M154.268 0H160.152V5.88418H154.268V0Z" fill="#322642"/>
<path d="M160.152 82.9563H166.036V88.8405H160.152V82.9563Z" fill="#322642"/>
<path d="M160.152 77.0713H166.036V82.9554H160.152V77.0713Z" fill="#B9CEE2"/>
<path d="M160.152 71.0601H166.036V76.9442H160.152V71.0601Z" fill="#B9CEE2"/>
<path d="M160.152 65.1753H166.036V71.0595H160.152V65.1753Z" fill="#E4F4FF"/>
<path d="M160.152 59.3542H166.036V65.2384H160.152V59.3542Z" fill="#E4F4FF"/>
<path d="M160.152 53.3428H166.036V59.227H160.152V53.3428Z" fill="white"/>
<path d="M160.152 47.457H166.036V53.3412H160.152V47.457Z" fill="white"/>
<path d="M160.152 41.5732H166.036V47.4574H160.152V41.5732Z" fill="white"/>
<path d="M160.152 35.561H166.036V41.4452H160.152V35.561Z" fill="white"/>
<path d="M160.152 29.677H166.036V35.5612H160.152V29.677Z" fill="white"/>
<path d="M160.152 23.7932H166.036V29.6774H160.152V23.7932Z" fill="white"/>
<path d="M160.152 17.781H166.036V23.6652H160.152V17.781Z" fill="white"/>
<path d="M160.152 11.8962H166.036V17.7804H160.152V11.8962Z" fill="white"/>
<path d="M160.152 5.88477H166.036V11.7689H160.152V5.88477Z" fill="white"/>
<path d="M160.152 0H166.036V5.88418H160.152V0Z" fill="#322642"/>
<path d="M166.036 82.9563H171.92V88.8405H166.036V82.9563Z" fill="#322642"/>
<path d="M166.036 77.0713H171.92V82.9554H166.036V77.0713Z" fill="#B9CEE2"/>
<path d="M166.036 71.0601H171.92V76.9442H166.036V71.0601Z" fill="#B9CEE2"/>
<path d="M166.036 65.1753H171.92V71.0595H166.036V65.1753Z" fill="#E4F4FF"/>
<path d="M166.036 59.3542H171.92V65.2384H166.036V59.3542Z" fill="#E4F4FF"/>
<path d="M166.036 53.3428H171.92V59.227H166.036V53.3428Z" fill="white"/>
<path d="M166.036 47.457H171.92V53.3412H166.036V47.457Z" fill="white"/>
<path d="M166.036 41.5732H171.92V47.4574H166.036V41.5732Z" fill="white"/>
<path d="M166.036 35.561H171.92V41.4452H166.036V35.561Z" fill="white"/>
<path d="M166.036 29.677H171.92V35.5612H166.036V29.677Z" fill="white"/>
<path d="M166.036 23.7932H171.92V29.6774H166.036V23.7932Z" fill="white"/>
<path d="M166.036 17.781H171.92V23.6652H166.036V17.781Z" fill="white"/>
<path d="M166.036 11.8962H171.92V17.7804H166.036V11.8962Z" fill="white"/>
<path d="M166.036 5.88477H171.92V11.7689H166.036V5.88477Z" fill="white"/>
<path d="M166.036 0H171.92V5.88418H166.036V0Z" fill="#322642"/>
<path d="M172.048 82.9563H177.932V88.8405H172.048V82.9563Z" fill="#322642"/>
<path d="M172.048 77.0713H177.932V82.9554H172.048V77.0713Z" fill="#B9CEE2"/>
<path d="M172.048 71.0601H177.932V76.9442H172.048V71.0601Z" fill="#B9CEE2"/>
<path d="M172.048 65.1753H177.932V71.0595H172.048V65.1753Z" fill="#E4F4FF"/>
<path d="M172.048 59.3542H177.932V65.2384H172.048V59.3542Z" fill="#E4F4FF"/>
<path d="M172.048 53.3428H177.932V59.227H172.048V53.3428Z" fill="white"/>
<path d="M172.048 47.457H177.932V53.3412H172.048V47.457Z" fill="white"/>
<path d="M172.048 41.5732H177.932V47.4574H172.048V41.5732Z" fill="white"/>
<path d="M172.048 35.561H177.932V41.4452H172.048V35.561Z" fill="white"/>
<path d="M172.048 29.677H177.932V35.5612H172.048V29.677Z" fill="white"/>
<path d="M172.048 23.7932H177.932V29.6774H172.048V23.7932Z" fill="white"/>
<path d="M172.048 17.781H177.932V23.6652H172.048V17.781Z" fill="white"/>
<path d="M172.048 11.8962H177.932V17.7804H172.048V11.8962Z" fill="white"/>
<path d="M172.048 5.88477H177.932V11.7689H172.048V5.88477Z" fill="white"/>
<path d="M172.048 0H177.932V5.88418H172.048V0Z" fill="#322642"/>
<path d="M177.932 82.9563H183.816V88.8405H177.932V82.9563Z" fill="#322642"/>
<path d="M177.932 77.0713H183.816V82.9554H177.932V77.0713Z" fill="#B9CEE2"/>
<path d="M177.932 71.0601H183.816V76.9442H177.932V71.0601Z" fill="#B9CEE2"/>
<path d="M177.932 65.1753H183.816V71.0595H177.932V65.1753Z" fill="#E4F4FF"/>
<path d="M177.932 59.3542H183.816V65.2384H177.932V59.3542Z" fill="#E4F4FF"/>
<path d="M177.932 53.3428H183.816V59.227H177.932V53.3428Z" fill="white"/>
<path d="M177.932 47.457H183.816V53.3412H177.932V47.457Z" fill="white"/>
<path d="M177.932 41.5732H183.816V47.4574H177.932V41.5732Z" fill="white"/>
<path d="M177.932 35.561H183.816V41.4452H177.932V35.561Z" fill="white"/>
<path d="M177.932 29.677H183.816V35.5612H177.932V29.677Z" fill="white"/>
<path d="M177.932 23.7932H183.816V29.6774H177.932V23.7932Z" fill="white"/>
<path d="M177.932 17.781H183.816V23.6652H177.932V17.781Z" fill="white"/>
<path d="M177.932 11.8962H183.816V17.7804H177.932V11.8962Z" fill="white"/>
<path d="M177.932 5.88477H183.816V11.7689H177.932V5.88477Z" fill="white"/>
<path d="M177.932 0H183.816V5.88418H177.932V0Z" fill="#322642"/>
<path d="M183.816 82.9563H189.7V88.8405H183.816V82.9563Z" fill="#322642"/>
<path d="M183.816 77.0713H189.7V82.9554H183.816V77.0713Z" fill="#B9CEE2"/>
<path d="M183.816 71.0601H189.7V76.9442H183.816V71.0601Z" fill="#B9CEE2"/>
<path d="M183.816 65.1753H189.7V71.0595H183.816V65.1753Z" fill="#E4F4FF"/>
<path d="M183.816 59.3542H189.7V65.2384H183.816V59.3542Z" fill="#E4F4FF"/>
<path d="M183.816 53.3428H189.7V59.227H183.816V53.3428Z" fill="white"/>
<path d="M183.816 47.457H189.7V53.3412H183.816V47.457Z" fill="white"/>
<path d="M183.816 41.5732H189.7V47.4574H183.816V41.5732Z" fill="white"/>
<path d="M183.816 35.561H189.7V41.4452H183.816V35.561Z" fill="white"/>
<path d="M183.816 29.677H189.7V35.5612H183.816V29.677Z" fill="white"/>
<path d="M183.816 23.7932H189.7V29.6774H183.816V23.7932Z" fill="white"/>
<path d="M183.816 17.781H189.7V23.6652H183.816V17.781Z" fill="white"/>
<path d="M183.816 11.8962H189.7V17.7804H183.816V11.8962Z" fill="white"/>
<path d="M183.816 5.88477H189.7V11.7689H183.816V5.88477Z" fill="white"/>
<path d="M183.816 0H189.7V5.88418H183.816V0Z" fill="#322642"/>
<path d="M189.828 82.9563H195.713V88.8405H189.828V82.9563Z" fill="#322642"/>
<path d="M189.828 77.0713H195.713V82.9554H189.828V77.0713Z" fill="#B9CEE2"/>
<path d="M189.828 71.0601H195.713V76.9442H189.828V71.0601Z" fill="#B9CEE2"/>
<path d="M189.828 65.1753H195.713V71.0595H189.828V65.1753Z" fill="#E4F4FF"/>
<path d="M189.828 59.3542H195.713V65.2384H189.828V59.3542Z" fill="#E4F4FF"/>
<path d="M189.828 53.3428H195.713V59.227H189.828V53.3428Z" fill="white"/>
<path d="M189.828 47.457H195.713V53.3412H189.828V47.457Z" fill="white"/>
<path d="M189.828 41.5732H195.713V47.4574H189.828V41.5732Z" fill="white"/>
<path d="M189.828 35.561H195.713V41.4452H189.828V35.561Z" fill="white"/>
<path d="M189.828 29.677H195.713V35.5612H189.828V29.677Z" fill="white"/>
<path d="M189.828 23.7932H195.713V29.6774H189.828V23.7932Z" fill="white"/>
<path d="M189.828 17.781H195.713V23.6652H189.828V17.781Z" fill="white"/>
<path d="M189.828 11.8962H195.713V17.7804H189.828V11.8962Z" fill="white"/>
<path d="M189.828 5.88477H195.713V11.7689H189.828V5.88477Z" fill="white"/>
<path d="M189.828 0H195.713V5.88418H189.828V0Z" fill="#322642"/>
<path d="M195.713 82.9563H201.597V88.8405H195.713V82.9563Z" fill="#322642"/>
<path d="M195.713 77.0713H201.597V82.9554H195.713V77.0713Z" fill="#B9CEE2"/>
<path d="M195.713 71.0601H201.597V76.9442H195.713V71.0601Z" fill="#B9CEE2"/>
<path d="M195.713 65.1753H201.597V71.0595H195.713V65.1753Z" fill="#E4F4FF"/>
<path d="M195.713 59.3542H201.597V65.2384H195.713V59.3542Z" fill="#E4F4FF"/>
<path d="M195.713 53.3428H201.597V59.227H195.713V53.3428Z" fill="white"/>
<path d="M195.713 47.457H201.597V53.3412H195.713V47.457Z" fill="white"/>
<path d="M195.713 41.5732H201.597V47.4574H195.713V41.5732Z" fill="white"/>
<path d="M195.713 35.561H201.597V41.4452H195.713V35.561Z" fill="white"/>
<path d="M195.713 29.677H201.597V35.5612H195.713V29.677Z" fill="white"/>
<path d="M195.713 23.7932H201.597V29.6774H195.713V23.7932Z" fill="white"/>
<path d="M195.713 17.781H201.597V23.6652H195.713V17.781Z" fill="white"/>
<path d="M195.713 11.8962H201.597V17.7804H195.713V11.8962Z" fill="white"/>
<path d="M195.713 5.88477H201.597V11.7689H195.713V5.88477Z" fill="white"/>
<path d="M195.713 0H201.597V5.88418H195.713V0Z" fill="#322642"/>
<path d="M201.725 82.9563H207.609V88.8405H201.725V82.9563Z" fill="#322642"/>
<path d="M201.725 77.0713H207.609V82.9554H201.725V77.0713Z" fill="#B9CEE2"/>
<path d="M201.725 71.0601H207.609V76.9442H201.725V71.0601Z" fill="#B9CEE2"/>
<path d="M201.725 65.1753H207.609V71.0595H201.725V65.1753Z" fill="#E4F4FF"/>
<path d="M201.725 59.3542H207.609V65.2384H201.725V59.3542Z" fill="#E4F4FF"/>
<path d="M201.725 53.3428H207.609V59.227H201.725V53.3428Z" fill="white"/>
<path d="M201.725 47.457H207.609V53.3412H201.725V47.457Z" fill="white"/>
<path d="M201.725 41.5732H207.609V47.4574H201.725V41.5732Z" fill="white"/>
<path d="M201.725 35.561H207.609V41.4452H201.725V35.561Z" fill="white"/>
<path d="M201.725 29.677H207.609V35.5612H201.725V29.677Z" fill="white"/>
<path d="M201.725 23.7932H207.609V29.6774H201.725V23.7932Z" fill="white"/>
<path d="M201.725 17.781H207.609V23.6652H201.725V17.781Z" fill="white"/>
<path d="M201.725 11.8962H207.609V17.7804H201.725V11.8962Z" fill="white"/>
<path d="M201.725 5.88477H207.609V11.7689H201.725V5.88477Z" fill="white"/>
<path d="M201.725 0H207.609V5.88418H201.725V0Z" fill="#322642"/>
<path d="M207.609 82.9563H213.493V88.8405H207.609V82.9563Z" fill="#322642"/>
<path d="M207.609 77.0713H213.493V82.9554H207.609V77.0713Z" fill="#B9CEE2"/>
<path d="M207.609 71.0601H213.493V76.9442H207.609V71.0601Z" fill="#B9CEE2"/>
<path d="M207.609 65.1753H213.493V71.0595H207.609V65.1753Z" fill="#E4F4FF"/>
<path d="M207.609 59.3542H213.493V65.2384H207.609V59.3542Z" fill="#E4F4FF"/>
<path d="M207.609 53.3428H213.493V59.227H207.609V53.3428Z" fill="white"/>
<path d="M207.609 47.457H213.493V53.3412H207.609V47.457Z" fill="white"/>
<path d="M207.609 41.5732H213.493V47.4574H207.609V41.5732Z" fill="white"/>
<path d="M207.609 35.561H213.493V41.4452H207.609V35.561Z" fill="white"/>
<path d="M207.609 29.677H213.493V35.5612H207.609V29.677Z" fill="white"/>
<path d="M207.609 23.7932H213.493V29.6774H207.609V23.7932Z" fill="white"/>
<path d="M207.609 17.781H213.493V23.6652H207.609V17.781Z" fill="white"/>
<path d="M207.609 11.8962H213.493V17.7804H207.609V11.8962Z" fill="white"/>
<path d="M207.609 5.88477H213.493V11.7689H207.609V5.88477Z" fill="white"/>
<path d="M207.609 0H213.493V5.88418H207.609V0Z" fill="#322642"/>
<path d="M213.493 82.9563H219.377V88.8405H213.493V82.9563Z" fill="#322642"/>
<path d="M213.493 77.0713H219.377V82.9554H213.493V77.0713Z" fill="#B9CEE2"/>
<path d="M213.493 71.0601H219.377V76.9442H213.493V71.0601Z" fill="#B9CEE2"/>
<path d="M213.493 65.1753H219.377V71.0595H213.493V65.1753Z" fill="#E4F4FF"/>
<path d="M213.493 59.3542H219.377V65.2384H213.493V59.3542Z" fill="#E4F4FF"/>
<path d="M213.493 53.3428H219.377V59.227H213.493V53.3428Z" fill="white"/>
<path d="M213.493 47.457H219.377V53.3412H213.493V47.457Z" fill="white"/>
<path d="M213.493 41.5732H219.377V47.4574H213.493V41.5732Z" fill="white"/>
<path d="M213.493 35.561H219.377V41.4452H213.493V35.561Z" fill="white"/>
<path d="M213.493 29.677H219.377V35.5612H213.493V29.677Z" fill="white"/>
<path d="M213.493 23.7932H219.377V29.6774H213.493V23.7932Z" fill="white"/>
<path d="M213.493 17.781H219.377V23.6652H213.493V17.781Z" fill="white"/>
<path d="M213.493 11.8962H219.377V17.7804H213.493V11.8962Z" fill="white"/>
<path d="M213.493 5.88477H219.377V11.7689H213.493V5.88477Z" fill="white"/>
<path d="M213.493 0H219.377V5.88418H213.493V0Z" fill="#322642"/>
<path d="M219.505 82.9563H225.389V88.8405H219.505V82.9563Z" fill="#322642"/>
<path d="M219.505 77.0713H225.389V82.9554H219.505V77.0713Z" fill="#B9CEE2"/>
<path d="M219.505 71.0601H225.389V76.9442H219.505V71.0601Z" fill="#B9CEE2"/>
<path d="M219.505 65.1753H225.389V71.0595H219.505V65.1753Z" fill="#E4F4FF"/>
<path d="M219.505 59.3542H225.39V65.2384H219.505V59.3542Z" fill="#E4F4FF"/>
<path d="M219.505 53.3428H225.39V59.227H219.505V53.3428Z" fill="white"/>
<path d="M219.505 47.457H225.39V53.3412H219.505V47.457Z" fill="white"/>
<path d="M219.505 41.5732H225.39V47.4574H219.505V41.5732Z" fill="white"/>
<path d="M219.505 35.561H225.39V41.4452H219.505V35.561Z" fill="white"/>
<path d="M219.505 29.677H225.39V35.5612H219.505V29.677Z" fill="white"/>
<path d="M219.505 23.7932H225.39V29.6774H219.505V23.7932Z" fill="white"/>
<path d="M219.505 17.781H225.39V23.6652H219.505V17.781Z" fill="white"/>
<path d="M219.505 11.8962H225.39V17.7804H219.505V11.8962Z" fill="white"/>
<path d="M219.505 5.88477H225.39V11.7689H219.505V5.88477Z" fill="white"/>
<path d="M219.505 0H225.39V5.88418H219.505V0Z" fill="#322642"/>
<path d="M225.389 82.9563H231.273V88.8405H225.389V82.9563Z" fill="#322642"/>
<path d="M225.389 77.0713H231.273V82.9554H225.389V77.0713Z" fill="#B9CEE2"/>
<path d="M225.389 71.0601H231.273V76.9442H225.389V71.0601Z" fill="#B9CEE2"/>
<path d="M225.389 65.1753H231.273V71.0595H225.389V65.1753Z" fill="#E4F4FF"/>
<path d="M225.389 59.3542H231.273V65.2384H225.389V59.3542Z" fill="#E4F4FF"/>
<path d="M225.389 53.3428H231.273V59.227H225.389V53.3428Z" fill="white"/>
<path d="M225.389 47.457H231.273V53.3412H225.389V47.457Z" fill="white"/>
<path d="M225.389 41.5732H231.273V47.4574H225.389V41.5732Z" fill="white"/>
<path d="M225.389 35.561H231.273V41.4452H225.389V35.561Z" fill="white"/>
<path d="M225.389 29.677H231.273V35.5612H225.389V29.677Z" fill="white"/>
<path d="M225.389 23.7932H231.273V29.6774H225.389V23.7932Z" fill="white"/>
<path d="M225.389 17.781H231.273V23.6652H225.389V17.781Z" fill="white"/>
<path d="M225.389 11.8962H231.273V17.7804H225.389V11.8962Z" fill="white"/>
<path d="M225.389 5.88477H231.273V11.7689H225.389V5.88477Z" fill="white"/>
<path d="M225.389 0H231.273V5.88418H225.389V0Z" fill="#322642"/>
<path d="M231.274 82.9563H237.158V88.8405H231.274V82.9563Z" fill="#322642"/>
<path d="M231.274 77.0713H237.158V82.9554H231.274V77.0713Z" fill="#B9CEE2"/>
<path d="M231.274 71.0601H237.158V76.9442H231.274V71.0601Z" fill="#B9CEE2"/>
<path d="M231.274 65.1753H237.158V71.0595H231.274V65.1753Z" fill="#E4F4FF"/>
<path d="M231.274 59.3542H237.158V65.2384H231.274V59.3542Z" fill="#E4F4FF"/>
<path d="M231.274 53.3428H237.158V59.227H231.274V53.3428Z" fill="white"/>
<path d="M231.274 47.457H237.158V53.3412H231.274V47.457Z" fill="white"/>
<path d="M231.274 41.5732H237.158V47.4574H231.274V41.5732Z" fill="white"/>
<path d="M231.274 35.561H237.158V41.4452H231.274V35.561Z" fill="white"/>
<path d="M231.274 29.677H237.158V35.5612H231.274V29.677Z" fill="white"/>
<path d="M231.274 23.7932H237.158V29.6774H231.274V23.7932Z" fill="white"/>
<path d="M231.274 17.781H237.158V23.6652H231.274V17.781Z" fill="white"/>
<path d="M231.274 11.8962H237.158V17.7804H231.274V11.8962Z" fill="white"/>
<path d="M231.274 5.88477H237.158V11.7689H231.274V5.88477Z" fill="white"/>
<path d="M231.274 0H237.158V5.88418H231.274V0Z" fill="#322642"/>
<path d="M237.286 82.9563H243.17V88.8405H237.286V82.9563Z" fill="#322642"/>
<path d="M237.286 77.0713H243.17V82.9554H237.286V77.0713Z" fill="#B9CEE2"/>
<path d="M237.286 71.0601H243.17V76.9442H237.286V71.0601Z" fill="#B9CEE2"/>
<path d="M237.286 65.1753H243.17V71.0595H237.286V65.1753Z" fill="#E4F4FF"/>
<path d="M237.286 59.3542H243.17V65.2384H237.286V59.3542Z" fill="#E4F4FF"/>
<path d="M237.286 53.3428H243.17V59.227H237.286V53.3428Z" fill="white"/>
<path d="M237.286 47.457H243.17V53.3412H237.286V47.457Z" fill="white"/>
<path d="M237.286 41.5732H243.17V47.4574H237.286V41.5732Z" fill="white"/>
<path d="M237.286 35.561H243.17V41.4452H237.286V35.561Z" fill="white"/>
<path d="M237.286 29.677H243.17V35.5612H237.286V29.677Z" fill="white"/>
<path d="M237.286 23.7932H243.17V29.6774H237.286V23.7932Z" fill="white"/>
<path d="M237.286 17.781H243.17V23.6652H237.286V17.781Z" fill="white"/>
<path d="M237.286 11.8962H243.17V17.7804H237.286V11.8962Z" fill="white"/>
<path d="M237.286 5.88477H243.17V11.7689H237.286V5.88477Z" fill="white"/>
<path d="M237.286 0H243.17V5.88418H237.286V0Z" fill="#322642"/>
<path d="M243.17 82.9563H249.054V88.8405H243.17V82.9563Z" fill="#322642"/>
<path d="M243.17 77.0713H249.054V82.9554H243.17V77.0713Z" fill="#B9CEE2"/>
<path d="M243.17 71.0601H249.054V76.9442H243.17V71.0601Z" fill="#B9CEE2"/>
<path d="M243.17 65.1753H249.054V71.0595H243.17V65.1753Z" fill="#E4F4FF"/>
<path d="M243.17 59.3542H249.054V65.2384H243.17V59.3542Z" fill="#E4F4FF"/>
<path d="M243.17 53.3428H249.054V59.227H243.17V53.3428Z" fill="white"/>
<path d="M243.17 47.457H249.054V53.3412H243.17V47.457Z" fill="white"/>
<path d="M243.17 41.5732H249.054V47.4574H243.17V41.5732Z" fill="white"/>
<path d="M243.17 35.561H249.054V41.4452H243.17V35.561Z" fill="white"/>
<path d="M243.17 29.677H249.054V35.5612H243.17V29.677Z" fill="white"/>
<path d="M243.17 23.7932H249.054V29.6774H243.17V23.7932Z" fill="white"/>
<path d="M243.17 17.781H249.054V23.6652H243.17V17.781Z" fill="white"/>
<path d="M243.17 11.8962H249.054V17.7804H243.17V11.8962Z" fill="white"/>
<path d="M243.17 5.88477H249.054V11.7689H243.17V5.88477Z" fill="white"/>
<path d="M243.17 0H249.054V5.88418H243.17V0Z" fill="#322642"/>
<path d="M249.054 82.9563H254.938V88.8405H249.054V82.9563Z" fill="#322642"/>
<path d="M249.054 77.0713H254.938V82.9554H249.054V77.0713Z" fill="#B9CEE2"/>
<path d="M249.054 71.0601H254.938V76.9442H249.054V71.0601Z" fill="#B9CEE2"/>
<path d="M249.054 65.1753H254.938V71.0595H249.054V65.1753Z" fill="#E4F4FF"/>
<path d="M249.054 59.3542H254.938V65.2384H249.054V59.3542Z" fill="#E4F4FF"/>
<path d="M249.054 53.3428H254.938V59.227H249.054V53.3428Z" fill="white"/>
<path d="M249.054 47.457H254.938V53.3412H249.054V47.457Z" fill="white"/>
<path d="M249.054 41.5732H254.938V47.4574H249.054V41.5732Z" fill="white"/>
<path d="M249.054 35.561H254.938V41.4452H249.054V35.561Z" fill="white"/>
<path d="M249.054 29.677H254.938V35.5612H249.054V29.677Z" fill="white"/>
<path d="M249.054 23.7932H254.938V29.6774H249.054V23.7932Z" fill="white"/>
<path d="M249.054 17.781H254.938V23.6652H249.054V17.781Z" fill="white"/>
<path d="M249.054 11.8962H254.938V17.7804H249.054V11.8962Z" fill="white"/>
<path d="M249.054 5.88477H254.938V11.7689H249.054V5.88477Z" fill="white"/>
<path d="M249.054 0H254.938V5.88418H249.054V0Z" fill="#322642"/>
<path d="M255.066 77.0713H260.95V82.9554H255.066V77.0713Z" fill="#B9CEE2"/>
<path d="M255.066 71.0601H260.95V76.9442H255.066V71.0601Z" fill="#B9CEE2"/>
<path d="M255.066 65.1753H260.95V71.0595H255.066V65.1753Z" fill="#E4F4FF"/>
<path d="M255.066 59.3542H260.95V65.2384H255.066V59.3542Z" fill="#E4F4FF"/>
<path d="M255.066 53.3428H260.95V59.227H255.066V53.3428Z" fill="white"/>
<path d="M255.066 47.457H260.95V53.3412H255.066V47.457Z" fill="white"/>
<path d="M255.066 41.5732H260.95V47.4574H255.066V41.5732Z" fill="white"/>
<path d="M255.066 35.561H260.95V41.4452H255.066V35.561Z" fill="white"/>
<path d="M255.066 29.677H260.95V35.5612H255.066V29.677Z" fill="white"/>
<path d="M255.066 23.7932H260.95V29.6774H255.066V23.7932Z" fill="white"/>
<path d="M255.066 17.781H260.95V23.6652H255.066V17.781Z" fill="white"/>
<path d="M255.066 11.8962H260.95V17.7804H255.066V11.8962Z" fill="white"/>
<path d="M255.066 5.88477H260.95V11.7689H255.066V5.88477Z" fill="white"/>
<path d="M255.066 0H260.95V5.88418H255.066V0Z" fill="#322642"/>
<path d="M11.6999 83.2996H266.171V89.1495H11.6999V83.2996Z" fill="#322642"/>
<path d="M254.506 82.9563H263.281V88.8405H254.506V82.9563Z" fill="#322642"/>
<path d="M260.95 77.0713H266.834V82.9554H260.95V77.0713Z" fill="#B9CEE2"/>
<path d="M260.95 71.0601H266.834V76.9442H260.95V71.0601Z" fill="#B9CEE2"/>
<path d="M260.95 65.1753H266.834V71.0595H260.95V65.1753Z" fill="#B9CEE2"/>
<path d="M260.95 59.3542H266.834V65.2384H260.95V59.3542Z" fill="#E4F4FF"/>
<path d="M260.95 53.3428H266.834V59.227H260.95V53.3428Z" fill="#E4F4FF"/>
<path d="M260.95 47.457H266.834V53.3412H260.95V47.457Z" fill="white"/>
<path d="M260.95 41.5732H266.834V47.4574H260.95V41.5732Z" fill="white"/>
<path d="M260.95 35.561H266.834V41.4452H260.95V35.561Z" fill="white"/>
<path d="M260.95 29.677H266.834V35.5612H260.95V29.677Z" fill="white"/>
<path d="M260.95 23.7932H266.834V29.6774H260.95V23.7932Z" fill="white"/>
<path d="M260.95 17.781H266.834V23.6652H260.95V17.781Z" fill="white"/>
<path d="M260.95 11.8962H266.834V17.7804H260.95V11.8962Z" fill="white"/>
<path d="M260.95 5.88477H266.834V11.7689H260.95V5.88477Z" fill="white"/>
<path d="M260.95 0H266.834V5.88418H260.95V0Z" fill="#322642"/>
<path d="M266.835 77.0713H272.719V82.9554H266.835V77.0713Z" fill="#322642"/>
<path d="M266.835 71.0601H272.719V76.9442H266.835V71.0601Z" fill="#B9CEE2"/>
<path d="M266.835 65.1753H272.719V71.0595H266.835V65.1753Z" fill="#B9CEE2"/>
<path d="M266.835 59.3542H272.719V65.2384H266.835V59.3542Z" fill="#B9CEE2"/>
<path d="M266.835 53.3428H272.719V59.227H266.835V53.3428Z" fill="#E4F4FF"/>
<path d="M266.835 47.457H272.719V53.3412H266.835V47.457Z" fill="#E4F4FF"/>
<path d="M266.835 41.5732H272.719V47.4574H266.835V41.5732Z" fill="white"/>
<path d="M266.835 35.561H272.719V41.4452H266.835V35.561Z" fill="white"/>
<path d="M266.835 29.677H272.719V35.5612H266.835V29.677Z" fill="white"/>
<path d="M266.835 23.7932H272.719V29.6774H266.835V23.7932Z" fill="white"/>
<path d="M266.835 17.781H272.719V23.6652H266.835V17.781Z" fill="white"/>
<path d="M266.835 11.8962H272.719V17.7804H266.835V11.8962Z" fill="white"/>
<path d="M266.835 5.88477H272.719V11.7689H266.835V5.88477Z" fill="#322642"/>
<path d="M272.847 71.0601H278.731V76.9442H272.847V71.0601Z" fill="#322642"/>
<path d="M272.847 65.1753H278.731V71.0595H272.847V65.1753Z" fill="#322642"/>
<path d="M272.847 59.3542H278.731V65.2384H272.847V59.3542Z" fill="#322642"/>
<path d="M272.847 53.3428H278.731V59.227H272.847V53.3428Z" fill="#322642"/>
<path d="M272.847 47.457H278.731V53.3412H272.847V47.457Z" fill="#322642"/>
<path d="M272.847 41.5732H278.731V47.4574H272.847V41.5732Z" fill="#322642"/>
<path d="M272.847 35.561H278.731V41.4452H272.847V35.561Z" fill="#322642"/>
<path d="M272.847 29.677H278.731V35.5612H272.847V29.677Z" fill="#322642"/>
<path d="M272.847 23.7932H278.731V29.6774H272.847V23.7932Z" fill="#322642"/>
<path d="M272.847 17.781H278.731V23.6652H272.847V17.781Z" fill="#322642"/>
<path d="M272.847 11.8962H278.731V17.7804H272.847V11.8962Z" fill="#322642"/>
<path d="M83.0179 77.0713H88.9021V82.9554H83.0179V77.0713Z" fill="#B9CEE2"/>
<path d="M83.0179 71.0601H88.9021V76.9442H83.0179V71.0601Z" fill="#B9CEE2"/>
<path d="M83.0179 65.1753H88.9021V71.0595H83.0179V65.1753Z" fill="#E4F4FF"/>
<path d="M83.0179 59.3542H88.9021V65.2384H83.0179V59.3542Z" fill="#E4F4FF"/>
<path d="M83.0179 53.3428H88.9021V59.227H83.0179V53.3428Z" fill="white"/>
<path d="M83.0179 47.457H88.9021V53.3412H83.0179V47.457Z" fill="white"/>
<path d="M83.0179 41.5732H88.9021V47.4574H83.0179V41.5732Z" fill="white"/>
<path d="M83.0179 35.561H88.9021V41.4452H83.0179V35.561Z" fill="white"/>
<path d="M83.0179 29.677H88.9021V35.5612H83.0179V29.677Z" fill="white"/>
<path d="M83.0179 23.7932H88.9021V29.6774H83.0179V23.7932Z" fill="white"/>
<path d="M83.0179 17.781H88.9021V23.6652H83.0179V17.781Z" fill="white"/>
<path d="M83.0179 11.8962H88.9021V17.7804H83.0179V11.8962Z" fill="white"/>
<path d="M83.0179 5.88477H88.9021V11.7689H83.0179V5.88477Z" fill="white"/>
<path d="M-0.000146389 65.1753H5.88403V71.0595H-0.000146389V65.1753Z" fill="#322642"/>
<path d="M9.77516e-05 59.3542H5.88428V65.2384H9.77516e-05V59.3542Z" fill="#322642"/>
<path d="M9.77516e-05 53.3428H5.88428V59.227H9.77516e-05V53.3428Z" fill="#322642"/>
<path d="M9.77516e-05 47.457H5.88428V53.3412H9.77516e-05V47.457Z" fill="#322642"/>
<path d="M9.77516e-05 41.5732H5.88428V47.4574H9.77516e-05V41.5732Z" fill="#322642"/>
<path d="M9.77516e-05 35.561H5.88428V41.4452H9.77516e-05V35.561Z" fill="#322642"/>
<path d="M9.77516e-05 29.677H5.88428V35.5612H9.77516e-05V29.677Z" fill="#322642"/>
<path d="M9.77516e-05 23.7932H5.88428V29.6774H9.77516e-05V23.7932Z" fill="#322642"/>
<path d="M9.77516e-05 17.781H5.88428V23.6652H9.77516e-05V17.781Z" fill="#322642"/>
<path d="M6.01206 71.0601H11.8962V76.9442H6.01206V71.0601Z" fill="#B9CEE2"/>
<path d="M6.01206 65.1753H11.8962V71.0595H6.01206V65.1753Z" fill="#B9CEE2"/>
<path d="M6.01206 59.3542H11.8962V65.2384H6.01206V59.3542Z" fill="#B9CEE2"/>
<path d="M6.01206 53.3428H11.8962V59.227H6.01206V53.3428Z" fill="#E4F4FF"/>
<path d="M6.01206 47.457H11.8962V53.3412H6.01206V47.457Z" fill="#E4F4FF"/>
<path d="M6.01206 41.5732H11.8962V47.4574H6.01206V41.5732Z" fill="white"/>
<path d="M6.01206 35.561H11.8962V41.4452H6.01206V35.561Z" fill="white"/>
<path d="M6.01206 29.677H11.8962V35.5612H6.01206V29.677Z" fill="white"/>
<path d="M6.01206 23.7932H11.8962V29.6774H6.01206V23.7932Z" fill="white"/>
<path d="M6.01206 17.781H11.8962V23.6652H6.01206V17.781Z" fill="white"/>
<path d="M6.01206 11.8962H11.8962V17.7804H6.01206V11.8962Z" fill="white"/>
<path d="M11.8963 77.0713H17.7805V82.9554H11.8963V77.0713Z" fill="#B9CEE2"/>
<path d="M11.8963 71.0601H17.7805V76.9442H11.8963V71.0601Z" fill="#B9CEE2"/>
<path d="M11.8963 65.1753H17.7805V71.0595H11.8963V65.1753Z" fill="#B9CEE2"/>
<path d="M11.8963 59.3542H17.7805V65.2384H11.8963V59.3542Z" fill="#E4F4FF"/>
<path d="M11.8963 53.3428H17.7805V59.227H11.8963V53.3428Z" fill="#E4F4FF"/>
<path d="M11.8963 47.457H17.7805V53.3412H11.8963V47.457Z" fill="white"/>
<path d="M11.8963 41.5732H17.7805V47.4574H11.8963V41.5732Z" fill="white"/>
<path d="M11.8963 35.561H17.7805V41.4452H11.8963V35.561Z" fill="white"/>
<path d="M11.8963 29.677H17.7805V35.5612H11.8963V29.677Z" fill="white"/>
<path d="M11.8963 23.7932H17.7805V29.6774H11.8963V23.7932Z" fill="white"/>
<path d="M11.8963 17.781H17.7805V23.6652H11.8963V17.781Z" fill="white"/>
<path d="M11.8963 11.8962H17.7805V17.7804H11.8963V11.8962Z" fill="white"/>
<path d="M11.8963 5.88477H17.7805V11.7689H11.8963V5.88477Z" fill="white"/>
<path d="M17.7804 82.9563H23.6646V88.8405H17.7804V82.9563Z" fill="#322642"/>
<path d="M17.7804 77.0713H23.6646V82.9554H17.7804V77.0713Z" fill="#B9CEE2"/>
<path d="M17.7804 71.0601H23.6646V76.9442H17.7804V71.0601Z" fill="#B9CEE2"/>
<path d="M17.7804 65.1753H23.6646V71.0595H17.7804V65.1753Z" fill="#E4F4FF"/>
<path d="M17.7804 59.3542H23.6646V65.2384H17.7804V59.3542Z" fill="#E4F4FF"/>
<path d="M17.7804 53.3428H23.6646V59.227H17.7804V53.3428Z" fill="white"/>
<path d="M17.7804 47.457H23.6646V53.3412H17.7804V47.457Z" fill="white"/>
<path d="M17.7804 41.5732H23.6646V47.4574H17.7804V41.5732Z" fill="white"/>
<path d="M17.7804 35.561H23.6646V41.4452H17.7804V35.561Z" fill="white"/>
<path d="M17.7804 29.677H23.6646V35.5612H17.7804V29.677Z" fill="white"/>
<path d="M17.7804 23.7932H23.6646V29.6774H17.7804V23.7932Z" fill="white"/>
<path d="M17.7804 17.781H23.6646V23.6652H17.7804V17.781Z" fill="white"/>
<path d="M17.7804 11.8962H23.6646V17.7804H17.7804V11.8962Z" fill="white"/>
<path d="M17.7804 5.88477H23.6646V11.7689H17.7804V5.88477Z" fill="white"/>
<path d="M23.7924 82.9563H29.6765V88.8405H23.7924V82.9563Z" fill="#322642"/>
<path d="M23.7924 77.0713H29.6765V82.9554H23.7924V77.0713Z" fill="#B9CEE2"/>
<path d="M23.7924 71.0601H29.6765V76.9442H23.7924V71.0601Z" fill="#B9CEE2"/>
<path d="M23.7924 65.1753H29.6765V71.0595H23.7924V65.1753Z" fill="#E4F4FF"/>
<path d="M23.7924 59.3542H29.6765V65.2384H23.7924V59.3542Z" fill="#E4F4FF"/>
<path d="M23.7924 53.3428H29.6765V59.227H23.7924V53.3428Z" fill="white"/>
<path d="M23.7924 47.457H29.6765V53.3412H23.7924V47.457Z" fill="white"/>
<path d="M23.7924 41.5732H29.6765V47.4574H23.7924V41.5732Z" fill="white"/>
<path d="M23.7924 35.561H29.6765V41.4452H23.7924V35.561Z" fill="white"/>
<path d="M23.7924 29.677H29.6765V35.5612H23.7924V29.677Z" fill="white"/>
<path d="M23.7924 23.7932H29.6765V29.6774H23.7924V23.7932Z" fill="white"/>
<path d="M23.7924 17.781H29.6765V23.6652H23.7924V17.781Z" fill="white"/>
<path d="M23.7924 11.8962H29.6765V17.7804H23.7924V11.8962Z" fill="white"/>
<path d="M23.7924 5.88477H29.6765V11.7689H23.7924V5.88477Z" fill="white"/>
<path d="M23.7924 0H29.6765V5.88418H23.7924V0Z" fill="#322642"/>
<path d="M29.6766 82.9563H35.5608V88.8405H29.6766V82.9563Z" fill="#322642"/>
<path d="M29.6766 77.0713H35.5608V82.9554H29.6766V77.0713Z" fill="#B9CEE2"/>
<path d="M29.6766 71.0601H35.5608V76.9442H29.6766V71.0601Z" fill="#B9CEE2"/>
<path d="M29.6766 65.1753H35.5608V71.0595H29.6766V65.1753Z" fill="#E4F4FF"/>
<path d="M29.6766 59.3542H35.5608V65.2384H29.6766V59.3542Z" fill="#E4F4FF"/>
<path d="M29.6766 53.3428H35.5608V59.227H29.6766V53.3428Z" fill="white"/>
<path d="M29.6766 47.457H35.5608V53.3412H29.6766V47.457Z" fill="white"/>
<path d="M29.6766 41.5732H35.5608V47.4574H29.6766V41.5732Z" fill="white"/>
<path d="M29.6766 35.561H35.5608V41.4452H29.6766V35.561Z" fill="white"/>
<path d="M29.6766 29.677H35.5608V35.5612H29.6766V29.677Z" fill="white"/>
<path d="M29.6766 23.7932H35.5608V29.6774H29.6766V23.7932Z" fill="white"/>
<path d="M29.6766 17.781H35.5608V23.6652H29.6766V17.781Z" fill="white"/>
<path d="M29.6766 11.8962H35.5608V17.7804H29.6766V11.8962Z" fill="white"/>
<path d="M29.6766 5.88477H35.5608V11.7689H29.6766V5.88477Z" fill="white"/>
<path d="M29.6766 0H35.5608V5.88418H29.6766V0Z" fill="#322642"/>
<path d="M35.5609 82.9563H41.4451V88.8405H35.5609V82.9563Z" fill="#322642"/>
<path d="M35.5609 77.0713H41.4451V82.9554H35.5609V77.0713Z" fill="#B9CEE2"/>
<path d="M35.5609 71.0601H41.4451V76.9442H35.5609V71.0601Z" fill="#B9CEE2"/>
<path d="M35.5609 65.1753H41.4451V71.0595H35.5609V65.1753Z" fill="#E4F4FF"/>
<path d="M35.5609 59.3542H41.4451V65.2384H35.5609V59.3542Z" fill="#E4F4FF"/>
<path d="M35.5609 53.3428H41.4451V59.227H35.5609V53.3428Z" fill="white"/>
<path d="M35.5609 47.457H41.4451V53.3412H35.5609V47.457Z" fill="white"/>
<path d="M35.5609 41.5732H41.4451V47.4574H35.5609V41.5732Z" fill="white"/>
<path d="M35.5609 35.561H41.4451V41.4452H35.5609V35.561Z" fill="white"/>
<path d="M35.5609 29.677H41.4451V35.5612H35.5609V29.677Z" fill="white"/>
<path d="M35.5609 23.7932H41.4451V29.6774H35.5609V23.7932Z" fill="white"/>
<path d="M35.5609 17.781H41.4451V23.6652H35.5609V17.781Z" fill="white"/>
<path d="M35.5609 11.8962H41.4451V17.7804H35.5609V11.8962Z" fill="white"/>
<path d="M35.5609 5.88477H41.4451V11.7689H35.5609V5.88477Z" fill="white"/>
<path d="M35.5609 0H41.4451V5.88418H35.5609V0Z" fill="#322642"/>
<path d="M41.5729 77.0713H47.457V82.9554H41.5729V77.0713Z" fill="#B9CEE2"/>
<path d="M41.5729 71.0601H47.457V76.9442H41.5729V71.0601Z" fill="#B9CEE2"/>
<path d="M41.5729 65.1753H47.457V71.0595H41.5729V65.1753Z" fill="#E4F4FF"/>
<path d="M41.5729 59.3542H47.457V65.2384H41.5729V59.3542Z" fill="#E4F4FF"/>
<path d="M41.5729 53.3428H47.457V59.227H41.5729V53.3428Z" fill="white"/>
<path d="M41.5729 47.457H47.457V53.3412H41.5729V47.457Z" fill="white"/>
<path d="M41.5729 41.5732H47.457V47.4574H41.5729V41.5732Z" fill="white"/>
<path d="M41.5729 35.561H47.457V41.4452H41.5729V35.561Z" fill="white"/>
<path d="M41.5729 29.677H47.457V35.5612H41.5729V29.677Z" fill="white"/>
<path d="M41.5729 23.7932H47.457V29.6774H41.5729V23.7932Z" fill="white"/>
<path d="M41.5729 17.781H47.457V23.6652H41.5729V17.781Z" fill="white"/>
<path d="M41.5729 11.8962H47.457V17.7804H41.5729V11.8962Z" fill="white"/>
<path d="M41.5729 5.88477H47.457V11.7689H41.5729V5.88477Z" fill="white"/>
<path d="M41.5729 0H47.457V5.88418H41.5729V0Z" fill="#322642"/>
<path d="M47.4569 77.0713H53.3411V82.9554H47.4569V77.0713Z" fill="#B9CEE2"/>
<path d="M47.4569 71.0601H53.3411V76.9442H47.4569V71.0601Z" fill="#B9CEE2"/>
<path d="M47.4569 65.1753H53.3411V71.0595H47.4569V65.1753Z" fill="#E4F4FF"/>
<path d="M47.4569 59.3542H53.3411V65.2384H47.4569V59.3542Z" fill="#E4F4FF"/>
<path d="M47.4569 53.3428H53.3411V59.227H47.4569V53.3428Z" fill="white"/>
<path d="M47.4569 47.457H53.3411V53.3412H47.4569V47.457Z" fill="white"/>
<path d="M47.4569 41.5732H53.3411V47.4574H47.4569V41.5732Z" fill="white"/>
<path d="M47.4569 35.561H53.3411V41.4452H47.4569V35.561Z" fill="white"/>
<path d="M47.4569 29.677H53.3411V35.5612H47.4569V29.677Z" fill="white"/>
<path d="M47.4569 23.7932H53.3411V29.6774H47.4569V23.7932Z" fill="white"/>
<path d="M47.4569 17.781H53.3411V23.6652H47.4569V17.781Z" fill="white"/>
<path d="M47.4569 11.8962H53.3411V17.7804H47.4569V11.8962Z" fill="white"/>
<path d="M47.4569 5.88477H53.3411V11.7689H47.4569V5.88477Z" fill="white"/>
<path d="M47.4569 0H53.3411V5.88418H47.4569V0Z" fill="#322642"/>
<path d="M53.4693 77.0713H59.3535V82.9554H53.4693V77.0713Z" fill="#B9CEE2"/>
<path d="M53.4693 71.0601H59.3535V76.9442H53.4693V71.0601Z" fill="#B9CEE2"/>
<path d="M53.4693 65.1753H59.3535V71.0595H53.4693V65.1753Z" fill="#E4F4FF"/>
<path d="M53.4693 59.3542H59.3535V65.2384H53.4693V59.3542Z" fill="#E4F4FF"/>
<path d="M53.4693 53.3428H59.3535V59.227H53.4693V53.3428Z" fill="white"/>
<path d="M53.4693 47.457H59.3535V53.3412H53.4693V47.457Z" fill="white"/>
<path d="M53.4693 41.5732H59.3535V47.4574H53.4693V41.5732Z" fill="white"/>
<path d="M53.4693 35.561H59.3535V41.4452H53.4693V35.561Z" fill="white"/>
<path d="M53.4693 29.677H59.3535V35.5612H53.4693V29.677Z" fill="white"/>
<path d="M53.4693 23.7932H59.3535V29.6774H53.4693V23.7932Z" fill="white"/>
<path d="M53.4693 17.781H59.3535V23.6652H53.4693V17.781Z" fill="white"/>
<path d="M53.4693 11.8962H59.3535V17.7804H53.4693V11.8962Z" fill="white"/>
<path d="M53.4693 5.88477H59.3535V11.7689H53.4693V5.88477Z" fill="white"/>
<path d="M53.4693 0H59.3535V5.88418H53.4693V0Z" fill="#322642"/>
<path d="M59.3534 77.0713H65.2375V82.9554H59.3534V77.0713Z" fill="#B9CEE2"/>
<path d="M59.3534 71.0601H65.2375V76.9442H59.3534V71.0601Z" fill="#B9CEE2"/>
<path d="M59.3534 65.1753H65.2375V71.0595H59.3534V65.1753Z" fill="#E4F4FF"/>
<path d="M59.3534 59.3542H65.2375V65.2384H59.3534V59.3542Z" fill="#E4F4FF"/>
<path d="M59.3534 53.3428H65.2375V59.227H59.3534V53.3428Z" fill="white"/>
<path d="M59.3534 47.457H65.2375V53.3412H59.3534V47.457Z" fill="white"/>
<path d="M59.3534 41.5732H65.2375V47.4574H59.3534V41.5732Z" fill="white"/>
<path d="M59.3534 35.561H65.2375V41.4452H59.3534V35.561Z" fill="white"/>
<path d="M59.3534 29.677H65.2375V35.5612H59.3534V29.677Z" fill="white"/>
<path d="M59.3534 23.7932H65.2375V29.6774H59.3534V23.7932Z" fill="white"/>
<path d="M59.3534 17.781H65.2375V23.6652H59.3534V17.781Z" fill="white"/>
<path d="M59.3534 11.8962H65.2375V17.7804H59.3534V11.8962Z" fill="white"/>
<path d="M59.3534 5.88477H65.2375V11.7689H59.3534V5.88477Z" fill="white"/>
<path d="M59.3534 0H65.2375V5.88418H59.3534V0Z" fill="#322642"/>
<path d="M65.2376 77.0713H71.1218V82.9554H65.2376V77.0713Z" fill="#B9CEE2"/>
<path d="M65.2376 71.0601H71.1218V76.9442H65.2376V71.0601Z" fill="#B9CEE2"/>
<path d="M65.2376 65.1753H71.1218V71.0595H65.2376V65.1753Z" fill="#E4F4FF"/>
<path d="M65.2376 59.3542H71.1218V65.2384H65.2376V59.3542Z" fill="#E4F4FF"/>
<path d="M65.2376 53.3428H71.1218V59.227H65.2376V53.3428Z" fill="white"/>
<path d="M65.2376 47.457H71.1218V53.3412H65.2376V47.457Z" fill="white"/>
<path d="M65.2376 41.5732H71.1218V47.4574H65.2376V41.5732Z" fill="white"/>
<path d="M65.2376 35.561H71.1218V41.4452H65.2376V35.561Z" fill="white"/>
<path d="M65.2376 23.7932H71.1218V29.6774H65.2376V23.7932Z" fill="white"/>
<path d="M65.2376 17.781H71.1218V23.6652H65.2376V17.781Z" fill="white"/>
<path d="M65.2376 11.8962H71.1218V17.7804H65.2376V11.8962Z" fill="white"/>
<path d="M65.2376 5.88477H71.1218V11.7689H65.2376V5.88477Z" fill="white"/>
<path d="M65.2376 0H71.1218V5.88418H65.2376V0Z" fill="#322642"/>
<path d="M71.2496 77.0713H77.1338V82.9554H71.2496V77.0713Z" fill="#B9CEE2"/>
<path d="M71.2496 71.0601H77.1338V76.9442H71.2496V71.0601Z" fill="#B9CEE2"/>
<path d="M71.2496 65.1753H77.1338V71.0595H71.2496V65.1753Z" fill="#E4F4FF"/>
<path d="M71.2496 59.3542H77.1338V65.2384H71.2496V59.3542Z" fill="#E4F4FF"/>
<path d="M71.2496 53.3428H77.1338V59.227H71.2496V53.3428Z" fill="white"/>
<path d="M71.2496 47.457H77.1338V53.3412H71.2496V47.457Z" fill="white"/>
<path d="M71.2496 41.5732H77.1338V47.4574H71.2496V41.5732Z" fill="white"/>
<path d="M71.2496 35.561H77.1338V41.4452H71.2496V35.561Z" fill="white"/>
<path d="M71.2496 29.677H77.1338V35.5612H71.2496V29.677Z" fill="white"/>
<path d="M71.2496 23.7932H77.1338V29.6774H71.2496V23.7932Z" fill="white"/>
<path d="M71.2496 17.781H77.1338V23.6652H71.2496V17.781Z" fill="white"/>
<path d="M71.2496 11.8962H77.1338V17.7804H71.2496V11.8962Z" fill="white"/>
<path d="M71.2496 5.88477H77.1338V11.7689H71.2496V5.88477Z" fill="white"/>
<path d="M71.2496 0H77.1338V5.88418H71.2496V0Z" fill="#322642"/>
<path d="M77.1339 77.0713H83.0181V82.9554H77.1339V77.0713Z" fill="#B9CEE2"/>
<path d="M77.1339 71.0601H83.0181V76.9442H77.1339V71.0601Z" fill="#B9CEE2"/>
<path d="M77.1339 65.1753H83.0181V71.0595H77.1339V65.1753Z" fill="#E4F4FF"/>
<path d="M77.1339 59.3542H83.0181V65.2384H77.1339V59.3542Z" fill="#E4F4FF"/>
<path d="M77.1339 53.3428H83.0181V59.227H77.1339V53.3428Z" fill="white"/>
<path d="M77.1339 47.457H83.0181V53.3412H77.1339V47.457Z" fill="white"/>
<path d="M77.1339 41.5732H83.0181V47.4574H77.1339V41.5732Z" fill="white"/>
<path d="M77.1339 35.561H83.0181V41.4452H77.1339V35.561Z" fill="white"/>
<path d="M77.1339 29.677H83.0181V35.5612H77.1339V29.677Z" fill="white"/>
<path d="M77.1339 23.7932H83.0181V29.6774H77.1339V23.7932Z" fill="white"/>
<path d="M77.1339 17.781H83.0181V23.6652H77.1339V17.781Z" fill="white"/>
<path d="M77.1339 11.8962H83.0181V17.7804H77.1339V11.8962Z" fill="white"/>
<path d="M77.1339 5.88477H83.0181V11.7689H77.1339V5.88477Z" fill="white"/>
<path d="M77.1339 0H83.0181V5.88418H77.1339V0Z" fill="#322642"/>
<path d="M65.2376 29.677H71.1218V35.5612H65.2376V29.677Z" fill="white"/>
</svg>
