<svg width="148" height="48" viewBox="0 0 148 48" fill="none" xmlns="http://www.w3.org/2000/svg">
<path d="M9.5129e-05 37.594H3.11206V40.706H9.5129e-05V37.594Z" fill="#F14338"/>
<path d="M9.5129e-05 6.2915H3.11206V9.40345H9.5129e-05V6.2915Z" fill="#F14338"/>
<path d="M3.17954 40.7737H6.2915V43.8856H3.17954V40.7737Z" fill="#F14338"/>
<path d="M3.17954 3.1123H6.2915V6.22427H3.17954V3.1123Z" fill="#F14338"/>
<path d="M6.2916 43.8857H9.40356V46.9977H6.2916V43.8857Z" fill="#F14338"/>
<path d="M6.2916 0.000244141H9.40356V3.11221H6.2916V0.000244141Z" fill="#F14338"/>
<path d="M9.40342 0.000244141H12.5154V3.11221H9.40342V0.000244141Z" fill="#F14338"/>
<path d="M21.9867 43.8857H25.0986V46.9977H21.9867V43.8857Z" fill="#F14338"/>
<path d="M25.0985 43.8857H28.2104V46.9977H25.0985V43.8857Z" fill="#F14338"/>
<path d="M28.2782 43.8857H31.3901V46.9977H28.2782V43.8857Z" fill="#F14338"/>
<path d="M31.3902 43.8857H34.5022V46.9977H31.3902V43.8857Z" fill="#F14338"/>
<path d="M34.5023 43.8857H37.6143V46.9977H34.5023V43.8857Z" fill="#F14338"/>
<path d="M37.6817 43.8857H40.7937V46.9977H37.6817V43.8857Z" fill="#F14338"/>
<path d="M40.7938 43.8857H43.9058V46.9977H40.7938V43.8857Z" fill="#F14338"/>
<path d="M43.9056 43.8857H47.0176V46.9977H43.9056V43.8857Z" fill="#F14338"/>
<path d="M43.9056 0.000244141H47.0176V3.11221H43.9056V0.000244141Z" fill="#F14338"/>
<path d="M47.0853 43.8857H50.1973V46.9977H47.0853V43.8857Z" fill="#F14338"/>
<path d="M47.0853 40.7737H50.1973V43.8856H47.0853V40.7737Z" fill="#B9CEE2"/>
<path d="M47.0853 37.594H50.1973V40.706H47.0853V37.594Z" fill="#B9CEE2"/>
<path d="M47.0853 34.4822H50.1973V37.5941H47.0853V34.4822Z" fill="#E4F4FF"/>
<path d="M47.0853 31.3904H50.1973V34.5023H47.0853V31.3904Z" fill="#E4F4FF"/>
<path d="M47.0853 28.2112H50.1973V31.3231H47.0853V28.2112Z" fill="white"/>
<path d="M47.0853 25.0989H50.1973V28.2108H47.0853V25.0989Z" fill="white"/>
<path d="M47.0853 21.9868H50.1973V25.0988H47.0853V21.9868Z" fill="white"/>
<path d="M47.0853 18.8074H50.1973V21.9193H47.0853V18.8074Z" fill="white"/>
<path d="M47.0853 15.6953H50.1973V18.8073H47.0853V15.6953Z" fill="white"/>
<path d="M47.0853 12.5833H50.1973V15.6952H47.0853V12.5833Z" fill="white"/>
<path d="M47.0853 9.40381H50.1973V12.5158H47.0853V9.40381Z" fill="white"/>
<path d="M47.0853 6.2915H50.1973V9.40345H47.0853V6.2915Z" fill="white"/>
<path d="M47.0853 3.1123H50.1973V6.22427H47.0853V3.1123Z" fill="white"/>
<path d="M47.0853 0.000244141H50.1973V3.11221H47.0853V0.000244141Z" fill="#F14338"/>
<path d="M50.1974 43.8857H53.3093V46.9977H50.1974V43.8857Z" fill="#F14338"/>
<path d="M50.1974 40.7737H53.3093V43.8856H50.1974V40.7737Z" fill="#B9CEE2"/>
<path d="M50.1974 37.594H53.3093V40.706H50.1974V37.594Z" fill="#B9CEE2"/>
<path d="M50.1974 34.4822H53.3093V37.5941H50.1974V34.4822Z" fill="#E4F4FF"/>
<path d="M50.1974 31.3904H53.3093V34.5023H50.1974V31.3904Z" fill="#E4F4FF"/>
<path d="M50.1974 28.2112H53.3093V31.3231H50.1974V28.2112Z" fill="white"/>
<path d="M50.1974 25.0989H53.3093V28.2108H50.1974V25.0989Z" fill="white"/>
<path d="M50.1974 21.9868H53.3093V25.0988H50.1974V21.9868Z" fill="white"/>
<path d="M50.1974 18.8074H53.3093V21.9193H50.1974V18.8074Z" fill="white"/>
<path d="M50.1974 15.6953H53.3093V18.8073H50.1974V15.6953Z" fill="white"/>
<path d="M50.1974 12.5833H53.3093V15.6952H50.1974V12.5833Z" fill="white"/>
<path d="M50.1974 9.40381H53.3093V12.5158H50.1974V9.40381Z" fill="white"/>
<path d="M50.1974 6.2915H53.3093V9.40345H50.1974V6.2915Z" fill="white"/>
<path d="M50.1974 3.1123H53.3093V6.22427H50.1974V3.1123Z" fill="white"/>
<path d="M50.1974 0.000244141H53.3093V3.11221H50.1974V0.000244141Z" fill="#F14338"/>
<path d="M53.3092 43.8857H56.4211V46.9977H53.3092V43.8857Z" fill="#F14338"/>
<path d="M53.3092 40.7737H56.4211V43.8856H53.3092V40.7737Z" fill="#B9CEE2"/>
<path d="M53.3092 37.594H56.4211V40.706H53.3092V37.594Z" fill="#B9CEE2"/>
<path d="M53.3092 34.4822H56.4211V37.5941H53.3092V34.4822Z" fill="#E4F4FF"/>
<path d="M53.3092 31.3904H56.4211V34.5023H53.3092V31.3904Z" fill="#E4F4FF"/>
<path d="M53.3092 28.2112H56.4211V31.3231H53.3092V28.2112Z" fill="white"/>
<path d="M53.3092 25.0989H56.4211V28.2108H53.3092V25.0989Z" fill="white"/>
<path d="M53.3092 21.9868H56.4211V25.0988H53.3092V21.9868Z" fill="white"/>
<path d="M53.3092 18.8074H56.4211V21.9193H53.3092V18.8074Z" fill="white"/>
<path d="M53.3092 15.6953H56.4211V18.8073H53.3092V15.6953Z" fill="white"/>
<path d="M53.3092 12.5833H56.4211V15.6952H53.3092V12.5833Z" fill="white"/>
<path d="M53.3092 9.40381H56.4211V12.5158H53.3092V9.40381Z" fill="white"/>
<path d="M53.3092 6.2915H56.4211V9.40345H53.3092V6.2915Z" fill="white"/>
<path d="M53.3092 3.1123H56.4211V6.22427H53.3092V3.1123Z" fill="white"/>
<path d="M53.3092 0.000244141H56.4211V3.11221H53.3092V0.000244141Z" fill="#F14338"/>
<path d="M56.4889 43.8857H59.6008V46.9977H56.4889V43.8857Z" fill="#F14338"/>
<path d="M56.4889 40.7737H59.6008V43.8856H56.4889V40.7737Z" fill="#B9CEE2"/>
<path d="M56.4889 37.594H59.6008V40.706H56.4889V37.594Z" fill="#B9CEE2"/>
<path d="M56.4889 34.4822H59.6008V37.5941H56.4889V34.4822Z" fill="#E4F4FF"/>
<path d="M56.4889 31.3904H59.6008V34.5023H56.4889V31.3904Z" fill="#E4F4FF"/>
<path d="M56.4889 28.2112H59.6008V31.3231H56.4889V28.2112Z" fill="white"/>
<path d="M56.4889 25.0989H59.6008V28.2108H56.4889V25.0989Z" fill="white"/>
<path d="M56.4889 21.9868H59.6008V25.0988H56.4889V21.9868Z" fill="white"/>
<path d="M56.4889 18.8074H59.6008V21.9193H56.4889V18.8074Z" fill="white"/>
<path d="M56.4889 15.6953H59.6008V18.8073H56.4889V15.6953Z" fill="white"/>
<path d="M56.4889 12.5833H59.6008V15.6952H56.4889V12.5833Z" fill="white"/>
<path d="M56.4889 9.40381H59.6008V12.5158H56.4889V9.40381Z" fill="white"/>
<path d="M56.4889 6.2915H59.6008V9.40345H56.4889V6.2915Z" fill="white"/>
<path d="M56.4889 3.1123H59.6008V6.22427H56.4889V3.1123Z" fill="white"/>
<path d="M56.4889 0.000244141H59.6008V3.11221H56.4889V0.000244141Z" fill="#F14338"/>
<path d="M59.6007 43.8857H62.7126V46.9977H59.6007V43.8857Z" fill="#F14338"/>
<path d="M59.6007 40.7737H62.7126V43.8856H59.6007V40.7737Z" fill="#B9CEE2"/>
<path d="M59.6007 37.594H62.7126V40.706H59.6007V37.594Z" fill="#B9CEE2"/>
<path d="M59.6007 34.4822H62.7126V37.5941H59.6007V34.4822Z" fill="#E4F4FF"/>
<path d="M59.6007 31.3904H62.7126V34.5023H59.6007V31.3904Z" fill="#E4F4FF"/>
<path d="M59.6007 28.2112H62.7126V31.3231H59.6007V28.2112Z" fill="white"/>
<path d="M59.6007 25.0989H62.7126V28.2108H59.6007V25.0989Z" fill="white"/>
<path d="M59.6007 21.9868H62.7126V25.0988H59.6007V21.9868Z" fill="white"/>
<path d="M59.6007 18.8074H62.7126V21.9193H59.6007V18.8074Z" fill="white"/>
<path d="M59.6007 15.6953H62.7126V18.8073H59.6007V15.6953Z" fill="white"/>
<path d="M59.6007 12.5833H62.7126V15.6952H59.6007V12.5833Z" fill="white"/>
<path d="M59.6007 9.40381H62.7126V12.5158H59.6007V9.40381Z" fill="white"/>
<path d="M59.6007 6.2915H62.7126V9.40345H59.6007V6.2915Z" fill="white"/>
<path d="M59.6007 3.1123H62.7126V6.22427H59.6007V3.1123Z" fill="white"/>
<path d="M59.6007 0.000244141H62.7126V3.11221H59.6007V0.000244141Z" fill="#F14338"/>
<path d="M62.7806 43.8857H65.8926V46.9977H62.7806V43.8857Z" fill="#F14338"/>
<path d="M62.7806 40.7737H65.8926V43.8856H62.7806V40.7737Z" fill="#B9CEE2"/>
<path d="M62.7806 37.594H65.8926V40.706H62.7806V37.594Z" fill="#B9CEE2"/>
<path d="M62.7806 34.4822H65.8926V37.5941H62.7806V34.4822Z" fill="#E4F4FF"/>
<path d="M62.7806 31.3904H65.8926V34.5023H62.7806V31.3904Z" fill="#E4F4FF"/>
<path d="M62.7806 28.2112H65.8926V31.3231H62.7806V28.2112Z" fill="white"/>
<path d="M62.7806 25.0989H65.8926V28.2108H62.7806V25.0989Z" fill="white"/>
<path d="M62.7806 21.9868H65.8926V25.0988H62.7806V21.9868Z" fill="white"/>
<path d="M62.7806 18.8074H65.8926V21.9193H62.7806V18.8074Z" fill="white"/>
<path d="M62.7806 15.6953H65.8926V18.8073H62.7806V15.6953Z" fill="white"/>
<path d="M62.7806 12.5833H65.8926V15.6952H62.7806V12.5833Z" fill="white"/>
<path d="M62.7806 9.40381H65.8926V12.5158H62.7806V9.40381Z" fill="white"/>
<path d="M62.7806 6.2915H65.8926V9.40345H62.7806V6.2915Z" fill="white"/>
<path d="M62.7806 3.1123H65.8926V6.22427H62.7806V3.1123Z" fill="white"/>
<path d="M62.7806 0.000244141H65.8926V3.11221H62.7806V0.000244141Z" fill="#F14338"/>
<path d="M65.8922 43.8857H69.0042V46.9977H65.8922V43.8857Z" fill="#F14338"/>
<path d="M65.8922 40.7737H69.0042V43.8856H65.8922V40.7737Z" fill="#B9CEE2"/>
<path d="M65.8922 37.594H69.0042V40.706H65.8922V37.594Z" fill="#B9CEE2"/>
<path d="M65.8922 34.4822H69.0042V37.5941H65.8922V34.4822Z" fill="#E4F4FF"/>
<path d="M65.8922 31.3904H69.0042V34.5023H65.8922V31.3904Z" fill="#E4F4FF"/>
<path d="M65.8922 28.2112H69.0042V31.3231H65.8922V28.2112Z" fill="white"/>
<path d="M65.8922 25.0989H69.0042V28.2108H65.8922V25.0989Z" fill="white"/>
<path d="M65.8922 21.9868H69.0042V25.0988H65.8922V21.9868Z" fill="white"/>
<path d="M65.8922 18.8074H69.0042V21.9193H65.8922V18.8074Z" fill="white"/>
<path d="M65.8922 15.6953H69.0042V18.8073H65.8922V15.6953Z" fill="white"/>
<path d="M65.8922 12.5833H69.0042V15.6952H65.8922V12.5833Z" fill="white"/>
<path d="M65.8922 9.40381H69.0042V12.5158H65.8922V9.40381Z" fill="white"/>
<path d="M65.8922 6.2915H69.0042V9.40345H65.8922V6.2915Z" fill="white"/>
<path d="M65.8922 3.1123H69.0042V6.22427H65.8922V3.1123Z" fill="white"/>
<path d="M65.8922 0.000244141H69.0042V3.11221H65.8922V0.000244141Z" fill="#F14338"/>
<path d="M69.0042 43.8857H72.1162V46.9977H69.0042V43.8857Z" fill="#F14338"/>
<path d="M69.0042 40.7737H72.1162V43.8856H69.0042V40.7737Z" fill="#B9CEE2"/>
<path d="M69.0042 37.594H72.1162V40.706H69.0042V37.594Z" fill="#B9CEE2"/>
<path d="M69.0042 34.4822H72.1162V37.5941H69.0042V34.4822Z" fill="#E4F4FF"/>
<path d="M69.0042 31.3904H72.1162V34.5023H69.0042V31.3904Z" fill="#E4F4FF"/>
<path d="M69.0042 28.2112H72.1162V31.3231H69.0042V28.2112Z" fill="white"/>
<path d="M69.0042 25.0989H72.1162V28.2108H69.0042V25.0989Z" fill="white"/>
<path d="M69.0042 21.9868H72.1162V25.0988H69.0042V21.9868Z" fill="white"/>
<path d="M69.0042 18.8074H72.1162V21.9193H69.0042V18.8074Z" fill="white"/>
<path d="M69.0042 15.6953H72.1162V18.8073H69.0042V15.6953Z" fill="white"/>
<path d="M69.0042 12.5833H72.1162V15.6952H69.0042V12.5833Z" fill="white"/>
<path d="M69.0042 9.40381H72.1162V12.5158H69.0042V9.40381Z" fill="white"/>
<path d="M69.0042 6.2915H72.1162V9.40345H69.0042V6.2915Z" fill="white"/>
<path d="M69.0042 3.1123H72.1162V6.22427H69.0042V3.1123Z" fill="white"/>
<path d="M69.0042 0.000244141H72.1162V3.11221H69.0042V0.000244141Z" fill="#F14338"/>
<path d="M72.1839 43.8857H75.2959V46.9977H72.1839V43.8857Z" fill="#F14338"/>
<path d="M72.1839 40.7737H75.2959V43.8856H72.1839V40.7737Z" fill="#B9CEE2"/>
<path d="M72.1839 37.594H75.2959V40.706H72.1839V37.594Z" fill="#B9CEE2"/>
<path d="M72.1839 34.4822H75.2959V37.5941H72.1839V34.4822Z" fill="#E4F4FF"/>
<path d="M72.1839 31.3904H75.2959V34.5023H72.1839V31.3904Z" fill="#E4F4FF"/>
<path d="M72.1839 28.2112H75.2959V31.3231H72.1839V28.2112Z" fill="white"/>
<path d="M72.1839 25.0989H75.2959V28.2108H72.1839V25.0989Z" fill="white"/>
<path d="M72.1839 21.9868H75.2959V25.0988H72.1839V21.9868Z" fill="white"/>
<path d="M72.1839 18.8074H75.2959V21.9193H72.1839V18.8074Z" fill="white"/>
<path d="M72.1839 15.6953H75.2959V18.8073H72.1839V15.6953Z" fill="white"/>
<path d="M72.1839 12.5833H75.2959V15.6952H72.1839V12.5833Z" fill="white"/>
<path d="M72.1839 9.40381H75.2959V12.5158H72.1839V9.40381Z" fill="white"/>
<path d="M72.1839 6.2915H75.2959V9.40345H72.1839V6.2915Z" fill="white"/>
<path d="M72.1839 3.1123H75.2959V6.22427H72.1839V3.1123Z" fill="white"/>
<path d="M72.1839 0.000244141H75.2959V3.11221H72.1839V0.000244141Z" fill="#F14338"/>
<path d="M75.296 43.8857H78.408V46.9977H75.296V43.8857Z" fill="#F14338"/>
<path d="M75.296 40.7737H78.408V43.8856H75.296V40.7737Z" fill="#B9CEE2"/>
<path d="M75.296 37.594H78.408V40.706H75.296V37.594Z" fill="#B9CEE2"/>
<path d="M75.296 34.4822H78.408V37.5941H75.296V34.4822Z" fill="#E4F4FF"/>
<path d="M75.296 31.3904H78.408V34.5023H75.296V31.3904Z" fill="#E4F4FF"/>
<path d="M75.296 28.2112H78.408V31.3231H75.296V28.2112Z" fill="white"/>
<path d="M75.296 25.0989H78.408V28.2108H75.296V25.0989Z" fill="white"/>
<path d="M75.296 21.9868H78.408V25.0988H75.296V21.9868Z" fill="white"/>
<path d="M75.296 18.8074H78.408V21.9193H75.296V18.8074Z" fill="white"/>
<path d="M75.296 15.6953H78.408V18.8073H75.296V15.6953Z" fill="white"/>
<path d="M75.296 12.5833H78.408V15.6952H75.296V12.5833Z" fill="white"/>
<path d="M75.296 9.40381H78.408V12.5158H75.296V9.40381Z" fill="white"/>
<path d="M75.296 6.2915H78.408V9.40345H75.296V6.2915Z" fill="white"/>
<path d="M75.296 3.1123H78.408V6.22427H75.296V3.1123Z" fill="white"/>
<path d="M75.296 0.000244141H78.408V3.11221H75.296V0.000244141Z" fill="#F14338"/>
<path d="M78.4078 43.8857H81.5198V46.9977H78.4078V43.8857Z" fill="#F14338"/>
<path d="M78.4078 40.7737H81.5198V43.8856H78.4078V40.7737Z" fill="#B9CEE2"/>
<path d="M78.4078 37.594H81.5198V40.706H78.4078V37.594Z" fill="#B9CEE2"/>
<path d="M78.4078 34.4822H81.5198V37.5941H78.4078V34.4822Z" fill="#E4F4FF"/>
<path d="M78.4078 31.3904H81.5198V34.5023H78.4078V31.3904Z" fill="#E4F4FF"/>
<path d="M78.4078 28.2112H81.5198V31.3231H78.4078V28.2112Z" fill="white"/>
<path d="M78.4078 25.0989H81.5198V28.2108H78.4078V25.0989Z" fill="white"/>
<path d="M78.4078 21.9868H81.5198V25.0988H78.4078V21.9868Z" fill="white"/>
<path d="M78.4078 18.8074H81.5198V21.9193H78.4078V18.8074Z" fill="white"/>
<path d="M78.4078 15.6953H81.5198V18.8073H78.4078V15.6953Z" fill="white"/>
<path d="M78.4078 12.5833H81.5198V15.6952H78.4078V12.5833Z" fill="white"/>
<path d="M78.4078 9.40381H81.5198V12.5158H78.4078V9.40381Z" fill="white"/>
<path d="M78.4078 6.2915H81.5198V9.40345H78.4078V6.2915Z" fill="white"/>
<path d="M78.4078 3.1123H81.5198V6.22427H78.4078V3.1123Z" fill="white"/>
<path d="M78.4078 0.000244141H81.5198V3.11221H78.4078V0.000244141Z" fill="#F14338"/>
<path d="M81.5875 43.8857H84.6995V46.9977H81.5875V43.8857Z" fill="#F14338"/>
<path d="M81.5875 40.7737H84.6995V43.8856H81.5875V40.7737Z" fill="#B9CEE2"/>
<path d="M81.5875 37.594H84.6995V40.706H81.5875V37.594Z" fill="#B9CEE2"/>
<path d="M81.5875 34.4822H84.6995V37.5941H81.5875V34.4822Z" fill="#E4F4FF"/>
<path d="M81.5875 31.3904H84.6995V34.5023H81.5875V31.3904Z" fill="#E4F4FF"/>
<path d="M81.5875 28.2112H84.6995V31.3231H81.5875V28.2112Z" fill="white"/>
<path d="M81.5875 25.0989H84.6995V28.2108H81.5875V25.0989Z" fill="white"/>
<path d="M81.5875 21.9868H84.6995V25.0988H81.5875V21.9868Z" fill="white"/>
<path d="M81.5875 18.8074H84.6995V21.9193H81.5875V18.8074Z" fill="white"/>
<path d="M81.5875 15.6953H84.6995V18.8073H81.5875V15.6953Z" fill="white"/>
<path d="M81.5875 12.5833H84.6995V15.6952H81.5875V12.5833Z" fill="white"/>
<path d="M81.5875 9.40381H84.6995V12.5158H81.5875V9.40381Z" fill="white"/>
<path d="M81.5875 6.2915H84.6995V9.40345H81.5875V6.2915Z" fill="white"/>
<path d="M81.5875 3.1123H84.6995V6.22427H81.5875V3.1123Z" fill="white"/>
<path d="M81.5875 0.000244141H84.6995V3.11221H81.5875V0.000244141Z" fill="#F14338"/>
<path d="M84.6993 43.8857H87.8113V46.9977H84.6993V43.8857Z" fill="#F14338"/>
<path d="M84.6993 40.7737H87.8113V43.8856H84.6993V40.7737Z" fill="#B9CEE2"/>
<path d="M84.6993 37.594H87.8113V40.706H84.6993V37.594Z" fill="#B9CEE2"/>
<path d="M84.6993 34.4822H87.8113V37.5941H84.6993V34.4822Z" fill="#E4F4FF"/>
<path d="M84.6996 31.3904H87.8115V34.5023H84.6996V31.3904Z" fill="#E4F4FF"/>
<path d="M84.6996 28.2112H87.8115V31.3231H84.6996V28.2112Z" fill="white"/>
<path d="M84.6996 25.0989H87.8115V28.2108H84.6996V25.0989Z" fill="white"/>
<path d="M84.6996 21.9868H87.8115V25.0988H84.6996V21.9868Z" fill="white"/>
<path d="M84.6996 18.8074H87.8115V21.9193H84.6996V18.8074Z" fill="white"/>
<path d="M84.6996 15.6953H87.8115V18.8073H84.6996V15.6953Z" fill="white"/>
<path d="M84.6996 12.5833H87.8115V15.6952H84.6996V12.5833Z" fill="white"/>
<path d="M84.6996 9.40381H87.8115V12.5158H84.6996V9.40381Z" fill="white"/>
<path d="M84.6996 6.2915H87.8115V9.40345H84.6996V6.2915Z" fill="white"/>
<path d="M84.6996 3.1123H87.8115V6.22427H84.6996V3.1123Z" fill="white"/>
<path d="M84.6996 0.000244141H87.8115V3.11221H84.6996V0.000244141Z" fill="#F14338"/>
<path d="M87.8114 43.8857H90.9233V46.9977H87.8114V43.8857Z" fill="#F14338"/>
<path d="M87.8114 40.7737H90.9233V43.8856H87.8114V40.7737Z" fill="#B9CEE2"/>
<path d="M87.8114 37.594H90.9233V40.706H87.8114V37.594Z" fill="#B9CEE2"/>
<path d="M87.8114 34.4822H90.9233V37.5941H87.8114V34.4822Z" fill="#E4F4FF"/>
<path d="M87.8116 31.3904H90.9236V34.5023H87.8116V31.3904Z" fill="#E4F4FF"/>
<path d="M87.8116 28.2112H90.9236V31.3231H87.8116V28.2112Z" fill="white"/>
<path d="M87.8116 25.0989H90.9236V28.2108H87.8116V25.0989Z" fill="white"/>
<path d="M87.8116 21.9868H90.9236V25.0988H87.8116V21.9868Z" fill="white"/>
<path d="M87.8116 18.8074H90.9236V21.9193H87.8116V18.8074Z" fill="white"/>
<path d="M87.8116 15.6953H90.9236V18.8073H87.8116V15.6953Z" fill="white"/>
<path d="M87.8116 12.5833H90.9236V15.6952H87.8116V12.5833Z" fill="white"/>
<path d="M87.8116 9.40381H90.9236V12.5158H87.8116V9.40381Z" fill="white"/>
<path d="M87.8116 6.2915H90.9236V9.40345H87.8116V6.2915Z" fill="white"/>
<path d="M87.8116 3.1123H90.9236V6.22427H87.8116V3.1123Z" fill="white"/>
<path d="M87.8116 0.000244141H90.9236V3.11221H87.8116V0.000244141Z" fill="#F14338"/>
<path d="M90.9911 43.8857H94.103V46.9977H90.9911V43.8857Z" fill="#F14338"/>
<path d="M90.9911 40.7737H94.103V43.8856H90.9911V40.7737Z" fill="#B9CEE2"/>
<path d="M90.9911 37.594H94.103V40.706H90.9911V37.594Z" fill="#B9CEE2"/>
<path d="M90.9911 34.4822H94.103V37.5941H90.9911V34.4822Z" fill="#E4F4FF"/>
<path d="M90.9911 31.3904H94.103V34.5023H90.9911V31.3904Z" fill="#E4F4FF"/>
<path d="M90.9911 28.2112H94.103V31.3231H90.9911V28.2112Z" fill="white"/>
<path d="M90.9911 25.0989H94.103V28.2108H90.9911V25.0989Z" fill="white"/>
<path d="M90.9911 21.9868H94.103V25.0988H90.9911V21.9868Z" fill="white"/>
<path d="M90.9911 18.8074H94.103V21.9193H90.9911V18.8074Z" fill="white"/>
<path d="M90.9911 15.6953H94.103V18.8073H90.9911V15.6953Z" fill="white"/>
<path d="M90.9911 12.5833H94.103V15.6952H90.9911V12.5833Z" fill="white"/>
<path d="M90.9911 9.40381H94.103V12.5158H90.9911V9.40381Z" fill="white"/>
<path d="M90.9911 6.2915H94.103V9.40345H90.9911V6.2915Z" fill="white"/>
<path d="M90.9911 3.1123H94.103V6.22427H90.9911V3.1123Z" fill="white"/>
<path d="M90.9911 0.000244141H94.103V3.11221H90.9911V0.000244141Z" fill="#F14338"/>
<path d="M94.1031 43.8857H97.2151V46.9977H94.1031V43.8857Z" fill="#F14338"/>
<path d="M94.1031 40.7737H97.2151V43.8856H94.1031V40.7737Z" fill="#B9CEE2"/>
<path d="M94.1031 37.594H97.2151V40.706H94.1031V37.594Z" fill="#B9CEE2"/>
<path d="M94.1031 34.4822H97.2151V37.5941H94.1031V34.4822Z" fill="#E4F4FF"/>
<path d="M94.1031 31.3904H97.2151V34.5023H94.1031V31.3904Z" fill="#E4F4FF"/>
<path d="M94.1031 28.2112H97.2151V31.3231H94.1031V28.2112Z" fill="white"/>
<path d="M94.1031 25.0989H97.2151V28.2108H94.1031V25.0989Z" fill="white"/>
<path d="M94.1031 21.9868H97.2151V25.0988H94.1031V21.9868Z" fill="white"/>
<path d="M94.1031 18.8074H97.2151V21.9193H94.1031V18.8074Z" fill="white"/>
<path d="M94.1031 15.6953H97.2151V18.8073H94.1031V15.6953Z" fill="white"/>
<path d="M94.1031 12.5833H97.2151V15.6952H94.1031V12.5833Z" fill="white"/>
<path d="M94.1031 9.40381H97.2151V12.5158H94.1031V9.40381Z" fill="white"/>
<path d="M94.1031 6.2915H97.2151V9.40345H94.1031V6.2915Z" fill="white"/>
<path d="M94.1031 3.1123H97.2151V6.22427H94.1031V3.1123Z" fill="white"/>
<path d="M94.1031 0.000244141H97.2151V3.11221H94.1031V0.000244141Z" fill="#F14338"/>
<path d="M97.2149 43.8857H100.327V46.9977H97.2149V43.8857Z" fill="#F14338"/>
<path d="M97.2149 40.7737H100.327V43.8856H97.2149V40.7737Z" fill="#B9CEE2"/>
<path d="M97.2149 37.594H100.327V40.706H97.2149V37.594Z" fill="#B9CEE2"/>
<path d="M97.2149 34.4822H100.327V37.5941H97.2149V34.4822Z" fill="#E4F4FF"/>
<path d="M97.2149 31.3904H100.327V34.5023H97.2149V31.3904Z" fill="#E4F4FF"/>
<path d="M97.2149 28.2112H100.327V31.3231H97.2149V28.2112Z" fill="white"/>
<path d="M97.2149 25.0989H100.327V28.2108H97.2149V25.0989Z" fill="white"/>
<path d="M97.2149 21.9868H100.327V25.0988H97.2149V21.9868Z" fill="white"/>
<path d="M97.2149 18.8074H100.327V21.9193H97.2149V18.8074Z" fill="white"/>
<path d="M97.2149 15.6953H100.327V18.8073H97.2149V15.6953Z" fill="white"/>
<path d="M97.2149 12.5833H100.327V15.6952H97.2149V12.5833Z" fill="white"/>
<path d="M97.2149 9.40381H100.327V12.5158H97.2149V9.40381Z" fill="white"/>
<path d="M97.2149 6.2915H100.327V9.40345H97.2149V6.2915Z" fill="white"/>
<path d="M97.2149 3.1123H100.327V6.22427H97.2149V3.1123Z" fill="white"/>
<path d="M97.2149 0.000244141H100.327V3.11221H97.2149V0.000244141Z" fill="#F14338"/>
<path d="M100.394 43.8857H103.506V46.9977H100.394V43.8857Z" fill="#F14338"/>
<path d="M100.394 40.7737H103.506V43.8856H100.394V40.7737Z" fill="#B9CEE2"/>
<path d="M100.394 37.594H103.506V40.706H100.394V37.594Z" fill="#B9CEE2"/>
<path d="M100.394 34.4822H103.506V37.5941H100.394V34.4822Z" fill="#E4F4FF"/>
<path d="M100.395 31.3904H103.507V34.5023H100.395V31.3904Z" fill="#E4F4FF"/>
<path d="M100.395 28.2112H103.507V31.3231H100.395V28.2112Z" fill="white"/>
<path d="M100.395 25.0989H103.507V28.2108H100.395V25.0989Z" fill="white"/>
<path d="M100.395 21.9868H103.507V25.0988H100.395V21.9868Z" fill="white"/>
<path d="M100.395 18.8074H103.507V21.9193H100.395V18.8074Z" fill="white"/>
<path d="M100.395 15.6953H103.507V18.8073H100.395V15.6953Z" fill="white"/>
<path d="M100.395 12.5833H103.507V15.6952H100.395V12.5833Z" fill="white"/>
<path d="M100.395 9.40381H103.507V12.5158H100.395V9.40381Z" fill="white"/>
<path d="M100.395 6.2915H103.507V9.40345H100.395V6.2915Z" fill="white"/>
<path d="M100.395 3.1123H103.507V6.22427H100.395V3.1123Z" fill="white"/>
<path d="M100.395 0.000244141H103.507V3.11221H100.395V0.000244141Z" fill="#F14338"/>
<path d="M103.507 43.8857H106.619V46.9977H103.507V43.8857Z" fill="#F14338"/>
<path d="M103.507 40.7737H106.619V43.8856H103.507V40.7737Z" fill="#B9CEE2"/>
<path d="M103.507 37.594H106.619V40.706H103.507V37.594Z" fill="#B9CEE2"/>
<path d="M103.507 34.4822H106.619V37.5941H103.507V34.4822Z" fill="#E4F4FF"/>
<path d="M103.507 31.3904H106.619V34.5023H103.507V31.3904Z" fill="#E4F4FF"/>
<path d="M103.507 28.2112H106.619V31.3231H103.507V28.2112Z" fill="white"/>
<path d="M103.507 25.0989H106.619V28.2108H103.507V25.0989Z" fill="white"/>
<path d="M103.507 21.9868H106.619V25.0988H103.507V21.9868Z" fill="white"/>
<path d="M103.507 18.8074H106.619V21.9193H103.507V18.8074Z" fill="white"/>
<path d="M103.507 15.6953H106.619V18.8073H103.507V15.6953Z" fill="white"/>
<path d="M103.507 12.5833H106.619V15.6952H103.507V12.5833Z" fill="white"/>
<path d="M103.507 9.40381H106.619V12.5158H103.507V9.40381Z" fill="white"/>
<path d="M103.507 6.2915H106.619V9.40345H103.507V6.2915Z" fill="white"/>
<path d="M103.507 3.1123H106.619V6.22427H103.507V3.1123Z" fill="white"/>
<path d="M103.507 0.000244141H106.619V3.11221H103.507V0.000244141Z" fill="#F14338"/>
<path d="M106.686 43.8857H109.798V46.9977H106.686V43.8857Z" fill="#F14338"/>
<path d="M106.686 40.7737H109.798V43.8856H106.686V40.7737Z" fill="#B9CEE2"/>
<path d="M106.686 37.594H109.798V40.706H106.686V37.594Z" fill="#B9CEE2"/>
<path d="M106.686 34.4822H109.798V37.5941H106.686V34.4822Z" fill="#E4F4FF"/>
<path d="M106.686 31.3904H109.798V34.5023H106.686V31.3904Z" fill="#E4F4FF"/>
<path d="M106.686 28.2112H109.798V31.3231H106.686V28.2112Z" fill="white"/>
<path d="M106.686 25.0989H109.798V28.2108H106.686V25.0989Z" fill="white"/>
<path d="M106.686 21.9868H109.798V25.0988H106.686V21.9868Z" fill="white"/>
<path d="M106.686 18.8074H109.798V21.9193H106.686V18.8074Z" fill="white"/>
<path d="M106.686 15.6953H109.798V18.8073H106.686V15.6953Z" fill="white"/>
<path d="M106.686 12.5833H109.798V15.6952H106.686V12.5833Z" fill="white"/>
<path d="M106.686 9.40381H109.798V12.5158H106.686V9.40381Z" fill="white"/>
<path d="M106.686 6.2915H109.798V9.40345H106.686V6.2915Z" fill="white"/>
<path d="M106.686 3.1123H109.798V6.22427H106.686V3.1123Z" fill="white"/>
<path d="M106.686 0.000244141H109.798V3.11221H106.686V0.000244141Z" fill="#F14338"/>
<path d="M109.798 43.8857H112.91V46.9977H109.798V43.8857Z" fill="#F14338"/>
<path d="M109.798 40.7737H112.91V43.8856H109.798V40.7737Z" fill="#B9CEE2"/>
<path d="M109.798 37.594H112.91V40.706H109.798V37.594Z" fill="#B9CEE2"/>
<path d="M109.798 34.4822H112.91V37.5941H109.798V34.4822Z" fill="#E4F4FF"/>
<path d="M109.798 31.3904H112.91V34.5023H109.798V31.3904Z" fill="#E4F4FF"/>
<path d="M109.798 28.2112H112.91V31.3231H109.798V28.2112Z" fill="white"/>
<path d="M109.798 25.0989H112.91V28.2108H109.798V25.0989Z" fill="white"/>
<path d="M109.798 21.9868H112.91V25.0988H109.798V21.9868Z" fill="white"/>
<path d="M109.798 18.8074H112.91V21.9193H109.798V18.8074Z" fill="white"/>
<path d="M109.798 15.6953H112.91V18.8073H109.798V15.6953Z" fill="white"/>
<path d="M109.798 12.5833H112.91V15.6952H109.798V12.5833Z" fill="white"/>
<path d="M109.798 9.40381H112.91V12.5158H109.798V9.40381Z" fill="white"/>
<path d="M109.798 6.2915H112.91V9.40345H109.798V6.2915Z" fill="white"/>
<path d="M109.798 3.1123H112.91V6.22427H109.798V3.1123Z" fill="white"/>
<path d="M109.798 0.000244141H112.91V3.11221H109.798V0.000244141Z" fill="#F14338"/>
<path d="M112.91 43.8857H116.022V46.9977H112.91V43.8857Z" fill="#F14338"/>
<path d="M112.91 40.7737H116.022V43.8856H112.91V40.7737Z" fill="#B9CEE2"/>
<path d="M112.91 37.594H116.022V40.706H112.91V37.594Z" fill="#B9CEE2"/>
<path d="M112.91 34.4822H116.022V37.5941H112.91V34.4822Z" fill="#E4F4FF"/>
<path d="M112.91 31.3904H116.022V34.5023H112.91V31.3904Z" fill="#E4F4FF"/>
<path d="M112.91 28.2112H116.022V31.3231H112.91V28.2112Z" fill="white"/>
<path d="M112.91 25.0989H116.022V28.2108H112.91V25.0989Z" fill="white"/>
<path d="M112.91 21.9868H116.022V25.0988H112.91V21.9868Z" fill="white"/>
<path d="M112.91 18.8074H116.022V21.9193H112.91V18.8074Z" fill="white"/>
<path d="M112.91 15.6953H116.022V18.8073H112.91V15.6953Z" fill="white"/>
<path d="M112.91 12.5833H116.022V15.6952H112.91V12.5833Z" fill="white"/>
<path d="M112.91 9.40381H116.022V12.5158H112.91V9.40381Z" fill="white"/>
<path d="M112.91 6.2915H116.022V9.40345H112.91V6.2915Z" fill="white"/>
<path d="M112.91 3.1123H116.022V6.22427H112.91V3.1123Z" fill="white"/>
<path d="M112.91 0.000244141H116.022V3.11221H112.91V0.000244141Z" fill="#F14338"/>
<path d="M116.09 43.8857H119.202V46.9977H116.09V43.8857Z" fill="#F14338"/>
<path d="M116.09 40.7737H119.202V43.8856H116.09V40.7737Z" fill="#B9CEE2"/>
<path d="M116.09 37.594H119.202V40.706H116.09V37.594Z" fill="#B9CEE2"/>
<path d="M116.09 34.4822H119.202V37.5941H116.09V34.4822Z" fill="#E4F4FF"/>
<path d="M116.09 31.3904H119.202V34.5023H116.09V31.3904Z" fill="#E4F4FF"/>
<path d="M116.09 28.2112H119.202V31.3231H116.09V28.2112Z" fill="white"/>
<path d="M116.09 25.0989H119.202V28.2108H116.09V25.0989Z" fill="white"/>
<path d="M116.09 21.9868H119.202V25.0988H116.09V21.9868Z" fill="white"/>
<path d="M116.09 18.8074H119.202V21.9193H116.09V18.8074Z" fill="white"/>
<path d="M116.09 15.6953H119.202V18.8073H116.09V15.6953Z" fill="white"/>
<path d="M116.09 12.5833H119.202V15.6952H116.09V12.5833Z" fill="white"/>
<path d="M116.09 9.40381H119.202V12.5158H116.09V9.40381Z" fill="white"/>
<path d="M116.09 6.2915H119.202V9.40345H116.09V6.2915Z" fill="white"/>
<path d="M116.09 3.1123H119.202V6.22427H116.09V3.1123Z" fill="white"/>
<path d="M116.09 0.000244141H119.202V3.11221H116.09V0.000244141Z" fill="#F14338"/>
<path d="M119.202 43.8857H122.314V46.9977H119.202V43.8857Z" fill="#F14338"/>
<path d="M119.202 40.7737H122.314V43.8856H119.202V40.7737Z" fill="#B9CEE2"/>
<path d="M119.202 37.594H122.314V40.706H119.202V37.594Z" fill="#B9CEE2"/>
<path d="M119.202 34.4822H122.314V37.5941H119.202V34.4822Z" fill="#E4F4FF"/>
<path d="M119.202 31.3904H122.314V34.5023H119.202V31.3904Z" fill="#E4F4FF"/>
<path d="M119.202 28.2112H122.314V31.3231H119.202V28.2112Z" fill="white"/>
<path d="M119.202 25.0989H122.314V28.2108H119.202V25.0989Z" fill="white"/>
<path d="M119.202 21.9868H122.314V25.0988H119.202V21.9868Z" fill="white"/>
<path d="M119.202 18.8074H122.314V21.9193H119.202V18.8074Z" fill="white"/>
<path d="M119.202 15.6953H122.314V18.8073H119.202V15.6953Z" fill="white"/>
<path d="M119.202 12.5833H122.314V15.6952H119.202V12.5833Z" fill="white"/>
<path d="M119.202 9.40381H122.314V12.5158H119.202V9.40381Z" fill="white"/>
<path d="M119.202 6.2915H122.314V9.40345H119.202V6.2915Z" fill="white"/>
<path d="M119.202 3.1123H122.314V6.22427H119.202V3.1123Z" fill="white"/>
<path d="M119.202 0.000244141H122.314V3.11221H119.202V0.000244141Z" fill="#F14338"/>
<path d="M122.314 43.8857H125.426V46.9977H122.314V43.8857Z" fill="#F14338"/>
<path d="M122.314 40.7737H125.426V43.8856H122.314V40.7737Z" fill="#B9CEE2"/>
<path d="M122.314 37.594H125.426V40.706H122.314V37.594Z" fill="#B9CEE2"/>
<path d="M122.314 34.4822H125.426V37.5941H122.314V34.4822Z" fill="#E4F4FF"/>
<path d="M122.314 31.3904H125.426V34.5023H122.314V31.3904Z" fill="#E4F4FF"/>
<path d="M122.314 28.2112H125.426V31.3231H122.314V28.2112Z" fill="white"/>
<path d="M122.314 25.0989H125.426V28.2108H122.314V25.0989Z" fill="white"/>
<path d="M122.314 21.9868H125.426V25.0988H122.314V21.9868Z" fill="white"/>
<path d="M122.314 18.8074H125.426V21.9193H122.314V18.8074Z" fill="white"/>
<path d="M122.314 15.6953H125.426V18.8073H122.314V15.6953Z" fill="white"/>
<path d="M122.314 12.5833H125.426V15.6952H122.314V12.5833Z" fill="white"/>
<path d="M122.314 9.40381H125.426V12.5158H122.314V9.40381Z" fill="white"/>
<path d="M122.314 6.2915H125.426V9.40345H122.314V6.2915Z" fill="white"/>
<path d="M122.314 3.1123H125.426V6.22427H122.314V3.1123Z" fill="white"/>
<path d="M122.314 0.000244141H125.426V3.11221H122.314V0.000244141Z" fill="#F14338"/>
<path d="M125.493 43.8857H128.605V46.9977H125.493V43.8857Z" fill="#F14338"/>
<path d="M125.493 40.7737H128.605V43.8856H125.493V40.7737Z" fill="#B9CEE2"/>
<path d="M125.493 37.594H128.605V40.706H125.493V37.594Z" fill="#B9CEE2"/>
<path d="M125.493 34.4822H128.605V37.5941H125.493V34.4822Z" fill="#E4F4FF"/>
<path d="M125.493 31.3904H128.605V34.5023H125.493V31.3904Z" fill="#E4F4FF"/>
<path d="M125.493 28.2112H128.605V31.3231H125.493V28.2112Z" fill="white"/>
<path d="M125.493 25.0989H128.605V28.2108H125.493V25.0989Z" fill="white"/>
<path d="M125.493 21.9868H128.605V25.0988H125.493V21.9868Z" fill="white"/>
<path d="M125.493 18.8074H128.605V21.9193H125.493V18.8074Z" fill="white"/>
<path d="M125.493 15.6953H128.605V18.8073H125.493V15.6953Z" fill="white"/>
<path d="M125.493 12.5833H128.605V15.6952H125.493V12.5833Z" fill="white"/>
<path d="M125.493 9.40381H128.605V12.5158H125.493V9.40381Z" fill="white"/>
<path d="M125.493 6.2915H128.605V9.40345H125.493V6.2915Z" fill="white"/>
<path d="M125.493 3.1123H128.605V6.22427H125.493V3.1123Z" fill="white"/>
<path d="M125.493 0.000244141H128.605V3.11221H125.493V0.000244141Z" fill="#F14338"/>
<path d="M128.605 43.8857H131.717V46.9977H128.605V43.8857Z" fill="#F14338"/>
<path d="M128.605 40.7737H131.717V43.8856H128.605V40.7737Z" fill="#B9CEE2"/>
<path d="M128.605 37.594H131.717V40.706H128.605V37.594Z" fill="#B9CEE2"/>
<path d="M128.605 34.4822H131.717V37.5941H128.605V34.4822Z" fill="#E4F4FF"/>
<path d="M128.605 31.3904H131.717V34.5023H128.605V31.3904Z" fill="#E4F4FF"/>
<path d="M128.605 28.2112H131.717V31.3231H128.605V28.2112Z" fill="white"/>
<path d="M128.605 25.0989H131.717V28.2108H128.605V25.0989Z" fill="white"/>
<path d="M128.605 21.9868H131.717V25.0988H128.605V21.9868Z" fill="white"/>
<path d="M128.605 18.8074H131.717V21.9193H128.605V18.8074Z" fill="white"/>
<path d="M128.605 15.6953H131.717V18.8073H128.605V15.6953Z" fill="white"/>
<path d="M128.605 12.5833H131.717V15.6952H128.605V12.5833Z" fill="white"/>
<path d="M128.605 9.40381H131.717V12.5158H128.605V9.40381Z" fill="white"/>
<path d="M128.605 6.2915H131.717V9.40345H128.605V6.2915Z" fill="white"/>
<path d="M128.605 3.1123H131.717V6.22427H128.605V3.1123Z" fill="white"/>
<path d="M128.605 0.000244141H131.717V3.11221H128.605V0.000244141Z" fill="#F14338"/>
<path d="M131.717 43.8857H134.829V46.9977H131.717V43.8857Z" fill="#F14338"/>
<path d="M131.717 40.7737H134.829V43.8856H131.717V40.7737Z" fill="#B9CEE2"/>
<path d="M131.717 37.594H134.829V40.706H131.717V37.594Z" fill="#B9CEE2"/>
<path d="M131.717 34.4822H134.829V37.5941H131.717V34.4822Z" fill="#E4F4FF"/>
<path d="M131.717 31.3904H134.829V34.5023H131.717V31.3904Z" fill="#E4F4FF"/>
<path d="M131.717 28.2112H134.829V31.3231H131.717V28.2112Z" fill="white"/>
<path d="M131.717 25.0989H134.829V28.2108H131.717V25.0989Z" fill="white"/>
<path d="M131.717 21.9868H134.829V25.0988H131.717V21.9868Z" fill="white"/>
<path d="M131.717 18.8074H134.829V21.9193H131.717V18.8074Z" fill="white"/>
<path d="M131.717 15.6953H134.829V18.8073H131.717V15.6953Z" fill="white"/>
<path d="M131.717 12.5833H134.829V15.6952H131.717V12.5833Z" fill="white"/>
<path d="M131.717 9.40381H134.829V12.5158H131.717V9.40381Z" fill="white"/>
<path d="M131.717 6.2915H134.829V9.40345H131.717V6.2915Z" fill="white"/>
<path d="M131.717 3.1123H134.829V6.22427H131.717V3.1123Z" fill="white"/>
<path d="M131.717 0.000244141H134.829V3.11221H131.717V0.000244141Z" fill="#F14338"/>
<path d="M134.897 40.7737H138.009V43.8856H134.897V40.7737Z" fill="#B9CEE2"/>
<path d="M134.897 37.594H138.009V40.706H134.897V37.594Z" fill="#B9CEE2"/>
<path d="M134.897 34.4822H138.009V37.5941H134.897V34.4822Z" fill="#E4F4FF"/>
<path d="M134.897 31.3904H138.009V34.5023H134.897V31.3904Z" fill="#E4F4FF"/>
<path d="M134.897 28.2112H138.009V31.3231H134.897V28.2112Z" fill="white"/>
<path d="M134.897 25.0989H138.009V28.2108H134.897V25.0989Z" fill="white"/>
<path d="M134.897 21.9868H138.009V25.0988H134.897V21.9868Z" fill="white"/>
<path d="M134.897 18.8074H138.009V21.9193H134.897V18.8074Z" fill="white"/>
<path d="M134.897 15.6953H138.009V18.8073H134.897V15.6953Z" fill="white"/>
<path d="M134.897 12.5833H138.009V15.6952H134.897V12.5833Z" fill="white"/>
<path d="M134.897 9.40381H138.009V12.5158H134.897V9.40381Z" fill="white"/>
<path d="M134.897 6.2915H138.009V9.40345H134.897V6.2915Z" fill="white"/>
<path d="M134.897 3.1123H138.009V6.22427H134.897V3.1123Z" fill="white"/>
<path d="M134.897 0.000244141H138.009V3.11221H134.897V0.000244141Z" fill="#F14338"/>
<path d="M6.18771 44.0674H140.77V47.1612H6.18771V44.0674Z" fill="#F14338"/>
<path d="M134.6 43.8857H139.241V46.9977H134.6V43.8857Z" fill="#F14338"/>
<path d="M138.009 40.7737H141.121V43.8856H138.009V40.7737Z" fill="#B9CEE2"/>
<path d="M138.009 37.594H141.121V40.706H138.009V37.594Z" fill="#B9CEE2"/>
<path d="M138.009 34.4822H141.121V37.5941H138.009V34.4822Z" fill="#B9CEE2"/>
<path d="M138.009 31.3904H141.121V34.5023H138.009V31.3904Z" fill="#E4F4FF"/>
<path d="M138.009 28.2112H141.121V31.3231H138.009V28.2112Z" fill="#E4F4FF"/>
<path d="M138.009 25.0989H141.121V28.2108H138.009V25.0989Z" fill="white"/>
<path d="M138.009 21.9868H141.121V25.0988H138.009V21.9868Z" fill="white"/>
<path d="M138.009 18.8074H141.121V21.9193H138.009V18.8074Z" fill="white"/>
<path d="M138.009 15.6953H141.121V18.8073H138.009V15.6953Z" fill="white"/>
<path d="M138.009 12.5833H141.121V15.6952H138.009V12.5833Z" fill="white"/>
<path d="M138.009 9.40381H141.121V12.5158H138.009V9.40381Z" fill="white"/>
<path d="M138.009 6.2915H141.121V9.40345H138.009V6.2915Z" fill="white"/>
<path d="M138.009 3.1123H141.121V6.22427H138.009V3.1123Z" fill="white"/>
<path d="M138.009 0.000244141H141.121V3.11221H138.009V0.000244141Z" fill="#F14338"/>
<path d="M141.121 40.7737H144.233V43.8856H141.121V40.7737Z" fill="#F14338"/>
<path d="M141.121 37.594H144.233V40.706H141.121V37.594Z" fill="#B9CEE2"/>
<path d="M141.121 34.4822H144.233V37.5941H141.121V34.4822Z" fill="#B9CEE2"/>
<path d="M141.121 31.3904H144.233V34.5023H141.121V31.3904Z" fill="#B9CEE2"/>
<path d="M141.121 28.2112H144.233V31.3231H141.121V28.2112Z" fill="#E4F4FF"/>
<path d="M141.121 25.0989H144.233V28.2108H141.121V25.0989Z" fill="#E4F4FF"/>
<path d="M141.121 21.9868H144.233V25.0988H141.121V21.9868Z" fill="white"/>
<path d="M141.121 18.8074H144.233V21.9193H141.121V18.8074Z" fill="white"/>
<path d="M141.121 15.6953H144.233V18.8073H141.121V15.6953Z" fill="white"/>
<path d="M141.121 12.5833H144.233V15.6952H141.121V12.5833Z" fill="white"/>
<path d="M141.121 9.40381H144.233V12.5158H141.121V9.40381Z" fill="white"/>
<path d="M141.121 6.2915H144.233V9.40345H141.121V6.2915Z" fill="white"/>
<path d="M141.121 3.1123H144.233V6.22427H141.121V3.1123Z" fill="#F14338"/>
<path d="M144.3 37.594H147.412V40.706H144.3V37.594Z" fill="#F14338"/>
<path d="M144.3 34.4822H147.412V37.5941H144.3V34.4822Z" fill="#F14338"/>
<path d="M144.3 31.3904H147.412V34.5023H144.3V31.3904Z" fill="#F14338"/>
<path d="M144.3 28.2112H147.412V31.3231H144.3V28.2112Z" fill="#F14338"/>
<path d="M144.3 25.0989H147.412V28.2108H144.3V25.0989Z" fill="#F14338"/>
<path d="M144.3 21.9868H147.412V25.0988H144.3V21.9868Z" fill="#F14338"/>
<path d="M144.3 18.8074H147.412V21.9193H144.3V18.8074Z" fill="#F14338"/>
<path d="M144.3 15.6953H147.412V18.8073H144.3V15.6953Z" fill="#F14338"/>
<path d="M144.3 12.5833H147.412V15.6952H144.3V12.5833Z" fill="#F14338"/>
<path d="M144.3 9.40381H147.412V12.5158H144.3V9.40381Z" fill="#F14338"/>
<path d="M144.3 6.2915H147.412V9.40345H144.3V6.2915Z" fill="#F14338"/>
<path d="M43.9056 40.7737H47.0176V43.8856H43.9056V40.7737Z" fill="#B9CEE2"/>
<path d="M43.9056 37.594H47.0176V40.706H43.9056V37.594Z" fill="#B9CEE2"/>
<path d="M43.9056 34.4822H47.0176V37.5941H43.9056V34.4822Z" fill="#E4F4FF"/>
<path d="M43.9056 31.3904H47.0176V34.5023H43.9056V31.3904Z" fill="#E4F4FF"/>
<path d="M43.9056 28.2112H47.0176V31.3231H43.9056V28.2112Z" fill="white"/>
<path d="M43.9056 25.0989H47.0176V28.2108H43.9056V25.0989Z" fill="white"/>
<path d="M43.9056 21.9868H47.0176V25.0988H43.9056V21.9868Z" fill="white"/>
<path d="M43.9056 18.8074H47.0176V21.9193H43.9056V18.8074Z" fill="white"/>
<path d="M43.9056 15.6953H47.0176V18.8073H43.9056V15.6953Z" fill="white"/>
<path d="M43.9056 12.5833H47.0176V15.6952H43.9056V12.5833Z" fill="white"/>
<path d="M43.9056 9.40381H47.0176V12.5158H43.9056V9.40381Z" fill="white"/>
<path d="M43.9056 6.2915H47.0176V9.40345H43.9056V6.2915Z" fill="white"/>
<path d="M43.9056 3.1123H47.0176V6.22427H43.9056V3.1123Z" fill="white"/>
<path d="M9.5129e-05 34.4822H3.11206V37.5941H9.5129e-05V34.4822Z" fill="#F14338"/>
<path d="M9.5129e-05 31.3904H3.11206V34.5023H9.5129e-05V31.3904Z" fill="#F14338"/>
<path d="M9.5129e-05 28.2112H3.11206V31.3231H9.5129e-05V28.2112Z" fill="#F14338"/>
<path d="M9.5129e-05 25.0989H3.11206V28.2108H9.5129e-05V25.0989Z" fill="#F14338"/>
<path d="M9.5129e-05 21.9868H3.11206V25.0988H9.5129e-05V21.9868Z" fill="#F14338"/>
<path d="M9.5129e-05 18.8074H3.11206V21.9193H9.5129e-05V18.8074Z" fill="#F14338"/>
<path d="M9.5129e-05 15.6953H3.11206V18.8073H9.5129e-05V15.6953Z" fill="#F14338"/>
<path d="M9.5129e-05 12.5833H3.11206V15.6952H9.5129e-05V12.5833Z" fill="#F14338"/>
<path d="M9.5129e-05 9.40381H3.11206V12.5158H9.5129e-05V9.40381Z" fill="#F14338"/>
<path d="M3.17954 37.594H6.2915V40.706H3.17954V37.594Z" fill="#B9CEE2"/>
<path d="M3.17954 34.4822H6.2915V37.5941H3.17954V34.4822Z" fill="#B9CEE2"/>
<path d="M3.17954 31.3904H6.2915V34.5023H3.17954V31.3904Z" fill="#B9CEE2"/>
<path d="M3.17954 28.2112H6.2915V31.3231H3.17954V28.2112Z" fill="#E4F4FF"/>
<path d="M3.17954 25.0989H6.2915V28.2108H3.17954V25.0989Z" fill="#E4F4FF"/>
<path d="M3.17954 21.9868H6.2915V25.0988H3.17954V21.9868Z" fill="white"/>
<path d="M3.17954 18.8074H6.2915V21.9193H3.17954V18.8074Z" fill="white"/>
<path d="M3.17954 15.6953H6.2915V18.8073H3.17954V15.6953Z" fill="white"/>
<path d="M3.17954 12.5833H6.2915V15.6952H3.17954V12.5833Z" fill="white"/>
<path d="M3.17954 9.40381H6.2915V12.5158H3.17954V9.40381Z" fill="white"/>
<path d="M3.17954 6.2915H6.2915V9.40345H3.17954V6.2915Z" fill="white"/>
<path d="M6.2916 40.7737H9.40356V43.8856H6.2916V40.7737Z" fill="#B9CEE2"/>
<path d="M6.2916 37.594H9.40356V40.706H6.2916V37.594Z" fill="#B9CEE2"/>
<path d="M6.2916 34.4822H9.40356V37.5941H6.2916V34.4822Z" fill="#B9CEE2"/>
<path d="M6.2916 31.3904H9.40356V34.5023H6.2916V31.3904Z" fill="#E4F4FF"/>
<path d="M6.2916 28.2112H9.40356V31.3231H6.2916V28.2112Z" fill="#E4F4FF"/>
<path d="M6.2916 25.0989H9.40356V28.2108H6.2916V25.0989Z" fill="white"/>
<path d="M6.2916 21.9868H9.40356V25.0988H6.2916V21.9868Z" fill="white"/>
<path d="M6.2916 18.8074H9.40356V21.9193H6.2916V18.8074Z" fill="white"/>
<path d="M6.2916 15.6953H9.40356V18.8073H6.2916V15.6953Z" fill="white"/>
<path d="M6.2916 12.5833H9.40356V15.6952H6.2916V12.5833Z" fill="white"/>
<path d="M6.2916 9.40381H9.40356V12.5158H6.2916V9.40381Z" fill="white"/>
<path d="M6.2916 6.2915H9.40356V9.40345H6.2916V6.2915Z" fill="white"/>
<path d="M6.2916 3.1123H9.40356V6.22427H6.2916V3.1123Z" fill="white"/>
<path d="M9.40342 43.8857H12.5154V46.9977H9.40342V43.8857Z" fill="#F14338"/>
<path d="M9.40342 40.7737H12.5154V43.8856H9.40342V40.7737Z" fill="#B9CEE2"/>
<path d="M9.40342 37.594H12.5154V40.706H9.40342V37.594Z" fill="#B9CEE2"/>
<path d="M9.40342 34.4822H12.5154V37.5941H9.40342V34.4822Z" fill="#E4F4FF"/>
<path d="M9.40342 31.3904H12.5154V34.5023H9.40342V31.3904Z" fill="#E4F4FF"/>
<path d="M9.40342 28.2112H12.5154V31.3231H9.40342V28.2112Z" fill="white"/>
<path d="M9.40342 25.0989H12.5154V28.2108H9.40342V25.0989Z" fill="white"/>
<path d="M9.40342 21.9868H12.5154V25.0988H9.40342V21.9868Z" fill="white"/>
<path d="M9.40342 18.8074H12.5154V21.9193H9.40342V18.8074Z" fill="white"/>
<path d="M9.40342 15.6953H12.5154V18.8073H9.40342V15.6953Z" fill="white"/>
<path d="M9.40342 12.5833H12.5154V15.6952H9.40342V12.5833Z" fill="white"/>
<path d="M9.40342 9.40381H12.5154V12.5158H9.40342V9.40381Z" fill="white"/>
<path d="M9.40342 6.2915H12.5154V9.40345H9.40342V6.2915Z" fill="white"/>
<path d="M9.40342 3.1123H12.5154V6.22427H9.40342V3.1123Z" fill="white"/>
<path d="M12.5831 43.8857H15.6951V46.9977H12.5831V43.8857Z" fill="#F14338"/>
<path d="M12.5831 40.7737H15.6951V43.8856H12.5831V40.7737Z" fill="#B9CEE2"/>
<path d="M12.5831 37.594H15.6951V40.706H12.5831V37.594Z" fill="#B9CEE2"/>
<path d="M12.5831 34.4822H15.6951V37.5941H12.5831V34.4822Z" fill="#E4F4FF"/>
<path d="M12.5831 31.3904H15.6951V34.5023H12.5831V31.3904Z" fill="#E4F4FF"/>
<path d="M12.5831 28.2112H15.6951V31.3231H12.5831V28.2112Z" fill="white"/>
<path d="M12.5831 25.0989H15.6951V28.2108H12.5831V25.0989Z" fill="white"/>
<path d="M12.5831 21.9868H15.6951V25.0988H12.5831V21.9868Z" fill="white"/>
<path d="M12.5831 18.8074H15.6951V21.9193H12.5831V18.8074Z" fill="white"/>
<path d="M12.5831 15.6953H15.6951V18.8073H12.5831V15.6953Z" fill="white"/>
<path d="M12.5831 12.5833H15.6951V15.6952H12.5831V12.5833Z" fill="white"/>
<path d="M12.5831 9.40381H15.6951V12.5158H12.5831V9.40381Z" fill="white"/>
<path d="M12.5831 6.2915H15.6951V9.40345H12.5831V6.2915Z" fill="white"/>
<path d="M12.5831 3.1123H15.6951V6.22427H12.5831V3.1123Z" fill="white"/>
<path d="M12.5831 0.000244141H15.6951V3.11221H12.5831V0.000244141Z" fill="#F14338"/>
<path d="M15.6952 43.8857H18.8071V46.9977H15.6952V43.8857Z" fill="#F14338"/>
<path d="M15.6952 40.7737H18.8071V43.8856H15.6952V40.7737Z" fill="#B9CEE2"/>
<path d="M15.6952 37.594H18.8071V40.706H15.6952V37.594Z" fill="#B9CEE2"/>
<path d="M15.6952 34.4822H18.8071V37.5941H15.6952V34.4822Z" fill="#E4F4FF"/>
<path d="M15.6952 31.3904H18.8071V34.5023H15.6952V31.3904Z" fill="#E4F4FF"/>
<path d="M15.6952 28.2112H18.8071V31.3231H15.6952V28.2112Z" fill="white"/>
<path d="M15.6952 25.0989H18.8071V28.2108H15.6952V25.0989Z" fill="white"/>
<path d="M15.6952 21.9868H18.8071V25.0988H15.6952V21.9868Z" fill="white"/>
<path d="M15.6952 18.8074H18.8071V21.9193H15.6952V18.8074Z" fill="white"/>
<path d="M15.6952 15.6953H18.8071V18.8073H15.6952V15.6953Z" fill="white"/>
<path d="M15.6952 12.5833H18.8071V15.6952H15.6952V12.5833Z" fill="white"/>
<path d="M15.6952 9.40381H18.8071V12.5158H15.6952V9.40381Z" fill="white"/>
<path d="M15.6952 6.2915H18.8071V9.40345H15.6952V6.2915Z" fill="white"/>
<path d="M15.6952 3.1123H18.8071V6.22427H15.6952V3.1123Z" fill="white"/>
<path d="M15.6952 0.000244141H18.8071V3.11221H15.6952V0.000244141Z" fill="#F14338"/>
<path d="M18.807 43.8857H21.9189V46.9977H18.807V43.8857Z" fill="#F14338"/>
<path d="M18.807 40.7737H21.9189V43.8856H18.807V40.7737Z" fill="#B9CEE2"/>
<path d="M18.807 37.594H21.9189V40.706H18.807V37.594Z" fill="#B9CEE2"/>
<path d="M18.807 34.4822H21.9189V37.5941H18.807V34.4822Z" fill="#E4F4FF"/>
<path d="M18.8072 31.3904H21.9192V34.5023H18.8072V31.3904Z" fill="#E4F4FF"/>
<path d="M18.8072 28.2112H21.9192V31.3231H18.8072V28.2112Z" fill="white"/>
<path d="M18.8072 25.0989H21.9192V28.2108H18.8072V25.0989Z" fill="white"/>
<path d="M18.8072 21.9868H21.9192V25.0988H18.8072V21.9868Z" fill="white"/>
<path d="M18.8072 18.8074H21.9192V21.9193H18.8072V18.8074Z" fill="white"/>
<path d="M18.8072 15.6953H21.9192V18.8073H18.8072V15.6953Z" fill="white"/>
<path d="M18.8072 12.5833H21.9192V15.6952H18.8072V12.5833Z" fill="white"/>
<path d="M18.8072 9.40381H21.9192V12.5158H18.8072V9.40381Z" fill="white"/>
<path d="M18.8072 6.2915H21.9192V9.40345H18.8072V6.2915Z" fill="white"/>
<path d="M18.8072 3.1123H21.9192V6.22427H18.8072V3.1123Z" fill="white"/>
<path d="M18.8072 0.000244141H21.9192V3.11221H18.8072V0.000244141Z" fill="#F14338"/>
<path d="M21.9867 40.7737H25.0986V43.8856H21.9867V40.7737Z" fill="#B9CEE2"/>
<path d="M21.9867 37.594H25.0986V40.706H21.9867V37.594Z" fill="#B9CEE2"/>
<path d="M21.9867 34.4822H25.0986V37.5941H21.9867V34.4822Z" fill="#E4F4FF"/>
<path d="M21.9867 31.3904H25.0986V34.5023H21.9867V31.3904Z" fill="#E4F4FF"/>
<path d="M21.9867 28.2112H25.0986V31.3231H21.9867V28.2112Z" fill="white"/>
<path d="M21.9867 25.0989H25.0986V28.2108H21.9867V25.0989Z" fill="white"/>
<path d="M21.9867 21.9868H25.0986V25.0988H21.9867V21.9868Z" fill="white"/>
<path d="M21.9867 18.8074H25.0986V21.9193H21.9867V18.8074Z" fill="white"/>
<path d="M21.9867 15.6953H25.0986V18.8073H21.9867V15.6953Z" fill="white"/>
<path d="M21.9867 12.5833H25.0986V15.6952H21.9867V12.5833Z" fill="white"/>
<path d="M21.9867 9.40381H25.0986V12.5158H21.9867V9.40381Z" fill="white"/>
<path d="M21.9867 6.2915H25.0986V9.40345H21.9867V6.2915Z" fill="white"/>
<path d="M21.9867 3.1123H25.0986V6.22427H21.9867V3.1123Z" fill="white"/>
<path d="M21.9867 0.000244141H25.0986V3.11221H21.9867V0.000244141Z" fill="#F14338"/>
<path d="M25.0985 40.7737H28.2104V43.8856H25.0985V40.7737Z" fill="#B9CEE2"/>
<path d="M25.0985 37.594H28.2104V40.706H25.0985V37.594Z" fill="#B9CEE2"/>
<path d="M25.0985 34.4822H28.2104V37.5941H25.0985V34.4822Z" fill="#E4F4FF"/>
<path d="M25.0985 31.3904H28.2104V34.5023H25.0985V31.3904Z" fill="#E4F4FF"/>
<path d="M25.0985 28.2112H28.2104V31.3231H25.0985V28.2112Z" fill="white"/>
<path d="M25.0985 25.0989H28.2104V28.2108H25.0985V25.0989Z" fill="white"/>
<path d="M25.0985 21.9868H28.2104V25.0988H25.0985V21.9868Z" fill="white"/>
<path d="M25.0985 18.8074H28.2104V21.9193H25.0985V18.8074Z" fill="white"/>
<path d="M25.0985 15.6953H28.2104V18.8073H25.0985V15.6953Z" fill="white"/>
<path d="M25.0985 12.5833H28.2104V15.6952H25.0985V12.5833Z" fill="white"/>
<path d="M25.0985 9.40381H28.2104V12.5158H25.0985V9.40381Z" fill="white"/>
<path d="M25.0985 6.2915H28.2104V9.40345H25.0985V6.2915Z" fill="white"/>
<path d="M25.0985 3.1123H28.2104V6.22427H25.0985V3.1123Z" fill="white"/>
<path d="M25.0985 0.000244141H28.2104V3.11221H25.0985V0.000244141Z" fill="#F14338"/>
<path d="M28.2782 40.7737H31.3901V43.8856H28.2782V40.7737Z" fill="#B9CEE2"/>
<path d="M28.2782 37.594H31.3901V40.706H28.2782V37.594Z" fill="#B9CEE2"/>
<path d="M28.2782 34.4822H31.3901V37.5941H28.2782V34.4822Z" fill="#E4F4FF"/>
<path d="M28.2784 31.3904H31.3904V34.5023H28.2784V31.3904Z" fill="#E4F4FF"/>
<path d="M28.2784 28.2112H31.3904V31.3231H28.2784V28.2112Z" fill="white"/>
<path d="M28.2784 25.0989H31.3904V28.2108H28.2784V25.0989Z" fill="white"/>
<path d="M28.2784 21.9868H31.3904V25.0988H28.2784V21.9868Z" fill="white"/>
<path d="M28.2784 18.8074H31.3904V21.9193H28.2784V18.8074Z" fill="white"/>
<path d="M28.2784 15.6953H31.3904V18.8073H28.2784V15.6953Z" fill="white"/>
<path d="M28.2784 12.5833H31.3904V15.6952H28.2784V12.5833Z" fill="white"/>
<path d="M28.2784 9.40381H31.3904V12.5158H28.2784V9.40381Z" fill="white"/>
<path d="M28.2784 6.2915H31.3904V9.40345H28.2784V6.2915Z" fill="white"/>
<path d="M28.2784 3.1123H31.3904V6.22427H28.2784V3.1123Z" fill="white"/>
<path d="M28.2784 0.000244141H31.3904V3.11221H28.2784V0.000244141Z" fill="#F14338"/>
<path d="M31.3902 40.7737H34.5022V43.8856H31.3902V40.7737Z" fill="#B9CEE2"/>
<path d="M31.3902 37.594H34.5022V40.706H31.3902V37.594Z" fill="#B9CEE2"/>
<path d="M31.3902 34.4822H34.5022V37.5941H31.3902V34.4822Z" fill="#E4F4FF"/>
<path d="M31.3902 31.3904H34.5022V34.5023H31.3902V31.3904Z" fill="#E4F4FF"/>
<path d="M31.3902 28.2112H34.5022V31.3231H31.3902V28.2112Z" fill="white"/>
<path d="M31.3902 25.0989H34.5022V28.2108H31.3902V25.0989Z" fill="white"/>
<path d="M31.3902 21.9868H34.5022V25.0988H31.3902V21.9868Z" fill="white"/>
<path d="M31.3902 18.8074H34.5022V21.9193H31.3902V18.8074Z" fill="white"/>
<path d="M31.3902 15.6953H34.5022V18.8073H31.3902V15.6953Z" fill="white"/>
<path d="M31.3902 12.5833H34.5022V15.6952H31.3902V12.5833Z" fill="white"/>
<path d="M31.3902 9.40381H34.5022V12.5158H31.3902V9.40381Z" fill="white"/>
<path d="M31.3902 6.2915H34.5022V9.40345H31.3902V6.2915Z" fill="white"/>
<path d="M31.3902 3.1123H34.5022V6.22427H31.3902V3.1123Z" fill="white"/>
<path d="M31.3902 0.000244141H34.5022V3.11221H31.3902V0.000244141Z" fill="#F14338"/>
<path d="M34.5023 40.7737H37.6143V43.8856H34.5023V40.7737Z" fill="#B9CEE2"/>
<path d="M34.5023 37.594H37.6143V40.706H34.5023V37.594Z" fill="#B9CEE2"/>
<path d="M34.5023 34.4822H37.6143V37.5941H34.5023V34.4822Z" fill="#E4F4FF"/>
<path d="M34.5023 31.3904H37.6143V34.5023H34.5023V31.3904Z" fill="#E4F4FF"/>
<path d="M34.5023 28.2112H37.6143V31.3231H34.5023V28.2112Z" fill="white"/>
<path d="M34.5023 25.0989H37.6143V28.2108H34.5023V25.0989Z" fill="white"/>
<path d="M34.5023 21.9868H37.6143V25.0988H34.5023V21.9868Z" fill="white"/>
<path d="M34.5023 18.8074H37.6143V21.9193H34.5023V18.8074Z" fill="white"/>
<path d="M34.5023 12.5833H37.6143V15.6952H34.5023V12.5833Z" fill="white"/>
<path d="M34.5023 9.40381H37.6143V12.5158H34.5023V9.40381Z" fill="white"/>
<path d="M34.5023 6.2915H37.6143V9.40345H34.5023V6.2915Z" fill="white"/>
<path d="M34.5023 3.1123H37.6143V6.22427H34.5023V3.1123Z" fill="white"/>
<path d="M34.5023 0.000244141H37.6143V3.11221H34.5023V0.000244141Z" fill="#F14338"/>
<path d="M37.6817 40.7737H40.7937V43.8856H37.6817V40.7737Z" fill="#B9CEE2"/>
<path d="M37.6817 37.594H40.7937V40.706H37.6817V37.594Z" fill="#B9CEE2"/>
<path d="M37.6817 34.4822H40.7937V37.5941H37.6817V34.4822Z" fill="#E4F4FF"/>
<path d="M37.6817 31.3904H40.7937V34.5023H37.6817V31.3904Z" fill="#E4F4FF"/>
<path d="M37.6817 28.2112H40.7937V31.3231H37.6817V28.2112Z" fill="white"/>
<path d="M37.6817 25.0989H40.7937V28.2108H37.6817V25.0989Z" fill="white"/>
<path d="M37.6817 21.9868H40.7937V25.0988H37.6817V21.9868Z" fill="white"/>
<path d="M37.6817 18.8074H40.7937V21.9193H37.6817V18.8074Z" fill="white"/>
<path d="M37.6817 15.6953H40.7937V18.8073H37.6817V15.6953Z" fill="white"/>
<path d="M37.6817 12.5833H40.7937V15.6952H37.6817V12.5833Z" fill="white"/>
<path d="M37.6817 9.40381H40.7937V12.5158H37.6817V9.40381Z" fill="white"/>
<path d="M37.6817 6.2915H40.7937V9.40345H37.6817V6.2915Z" fill="white"/>
<path d="M37.6817 3.1123H40.7937V6.22427H37.6817V3.1123Z" fill="white"/>
<path d="M37.6817 0.000244141H40.7937V3.11221H37.6817V0.000244141Z" fill="#F14338"/>
<path d="M40.7938 40.7737H43.9058V43.8856H40.7938V40.7737Z" fill="#B9CEE2"/>
<path d="M40.7938 37.594H43.9058V40.706H40.7938V37.594Z" fill="#B9CEE2"/>
<path d="M40.7938 34.4822H43.9058V37.5941H40.7938V34.4822Z" fill="#E4F4FF"/>
<path d="M40.7938 31.3904H43.9058V34.5023H40.7938V31.3904Z" fill="#E4F4FF"/>
<path d="M40.7938 28.2112H43.9058V31.3231H40.7938V28.2112Z" fill="white"/>
<path d="M40.7938 25.0989H43.9058V28.2108H40.7938V25.0989Z" fill="white"/>
<path d="M40.7938 21.9868H43.9058V25.0988H40.7938V21.9868Z" fill="white"/>
<path d="M40.7938 18.8074H43.9058V21.9193H40.7938V18.8074Z" fill="white"/>
<path d="M40.7938 15.6953H43.9058V18.8073H40.7938V15.6953Z" fill="white"/>
<path d="M40.7938 12.5833H43.9058V15.6952H40.7938V12.5833Z" fill="white"/>
<path d="M40.7938 9.40381H43.9058V12.5158H40.7938V9.40381Z" fill="white"/>
<path d="M40.7938 6.2915H43.9058V9.40345H40.7938V6.2915Z" fill="white"/>
<path d="M40.7938 3.1123H43.9058V6.22427H40.7938V3.1123Z" fill="white"/>
<path d="M40.7938 0.000244141H43.9058V3.11221H40.7938V0.000244141Z" fill="#F14338"/>
<path d="M34.5023 15.6953H37.6143V18.8073H34.5023V15.6953Z" fill="white"/>
</svg>
