<svg width="334" height="583" viewBox="0 0 334 583" fill="none" xmlns="http://www.w3.org/2000/svg">
<path d="M0 14H7V560H0V14Z" fill="#322642"/>
<path d="M327 14H334V560H327V14Z" fill="#322642"/>
<rect x="7" y="7" width="320" height="559" fill="white"/>
<path d="M-0.000163078 14.2549H7.05078V21.3058H-0.000163078V14.2549Z" fill="#322642"/>
<path d="M7.20394 7.05176H14.2549V14.1027H7.20394V7.05176Z" fill="#322642"/>
<path d="M14.2552 0H21.3062V7.05094H14.2552V0Z" fill="#322642"/>
<path d="M21.306 0H28.3569V7.05094H21.306V0Z" fill="#322642"/>
<path d="M99.4793 0H106.53V7.05094H99.4793V0Z" fill="#322642"/>
<path d="M106.683 7.05176H113.734V14.1027H106.683V7.05176Z" fill="white"/>
<path d="M106.683 0H113.734V7.05094H106.683V0Z" fill="#322642"/>
<path d="M113.735 7.05176H120.786V14.1027H113.735V7.05176Z" fill="white"/>
<path d="M113.735 0H120.786V7.05094H113.735V0Z" fill="#322642"/>
<path d="M120.785 7.05176H127.836V14.1027H120.785V7.05176Z" fill="white"/>
<path d="M120.785 0H127.836V7.05094H120.785V0Z" fill="#322642"/>
<path d="M127.99 7.05176H135.041V14.1027H127.99V7.05176Z" fill="white"/>
<path d="M127.99 0H135.041V7.05094H127.99V0Z" fill="#322642"/>
<path d="M135.04 7.05176H142.091V14.1027H135.04V7.05176Z" fill="white"/>
<path d="M135.04 0H142.091V7.05094H135.04V0Z" fill="#322642"/>
<path d="M142.245 7.05176H149.296V14.1027H142.245V7.05176Z" fill="white"/>
<path d="M142.245 0H149.296V7.05094H142.245V0Z" fill="#322642"/>
<path d="M149.296 7.05176H156.347V14.1027H149.296V7.05176Z" fill="white"/>
<path d="M149.296 0H156.347V7.05094H149.296V0Z" fill="#322642"/>
<path d="M156.347 7.05176H163.397V14.1027H156.347V7.05176Z" fill="white"/>
<path d="M156.347 0H163.397V7.05094H156.347V0Z" fill="#322642"/>
<path d="M163.551 7.05176H170.602V14.1027H163.551V7.05176Z" fill="white"/>
<path d="M163.551 0H170.602V7.05094H163.551V0Z" fill="#322642"/>
<path d="M170.602 7.05176H177.653V14.1027H170.602V7.05176Z" fill="white"/>
<path d="M170.602 0H177.653V7.05094H170.602V0Z" fill="#322642"/>
<path d="M177.653 7.05176H184.704V14.1027H177.653V7.05176Z" fill="white"/>
<path d="M177.653 0H184.704V7.05094H177.653V0Z" fill="#322642"/>
<path d="M184.857 7.05176H191.908V14.1027H184.857V7.05176Z" fill="white"/>
<path d="M184.857 0H191.908V7.05094H184.857V0Z" fill="#322642"/>
<path d="M191.908 7.05176H198.959V14.1027H191.908V7.05176Z" fill="white"/>
<path d="M191.908 0H198.959V7.05094H191.908V0Z" fill="#322642"/>
<path d="M198.959 7.05176H206.01V14.1027H198.959V7.05176Z" fill="white"/>
<path d="M198.959 0H206.01V7.05094H198.959V0Z" fill="#322642"/>
<path d="M206.163 7.05176H213.214V14.1027H206.163V7.05176Z" fill="white"/>
<path d="M206.163 0H213.214V7.05094H206.163V0Z" fill="#322642"/>
<path d="M213.214 7.05176H220.265V14.1027H213.214V7.05176Z" fill="white"/>
<path d="M213.214 0H220.265V7.05094H213.214V0Z" fill="#322642"/>
<path d="M220.265 7.05176H227.316V14.1027H220.265V7.05176Z" fill="white"/>
<path d="M220.265 0H227.316V7.05094H220.265V0Z" fill="#322642"/>
<path d="M227.469 7.05176H234.52V14.1027H227.469V7.05176Z" fill="white"/>
<path d="M227.469 0H234.52V7.05094H227.469V0Z" fill="#322642"/>
<path d="M234.52 7.05176H241.571V14.1027H234.52V7.05176Z" fill="white"/>
<path d="M234.52 0H241.571V7.05094H234.52V0Z" fill="#322642"/>
<path d="M241.724 7.05176H248.775V14.1027H241.724V7.05176Z" fill="white"/>
<path d="M241.724 0H248.775V7.05094H241.724V0Z" fill="#322642"/>
<path d="M248.775 7.05176H255.826V14.1027H248.775V7.05176Z" fill="white"/>
<path d="M248.775 0H255.826V7.05094H248.775V0Z" fill="#322642"/>
<path d="M255.826 7.05176H262.877V14.1027H255.826V7.05176Z" fill="white"/>
<path d="M255.826 0H262.877V7.05094H255.826V0Z" fill="#322642"/>
<path d="M263.031 7.05176H270.082V14.1027H263.031V7.05176Z" fill="white"/>
<path d="M263.031 0H270.082V7.05094H263.031V0Z" fill="#322642"/>
<path d="M270.081 7.05176H277.132V14.1027H270.081V7.05176Z" fill="white"/>
<path d="M270.081 0H277.132V7.05094H270.081V0Z" fill="#322642"/>
<path d="M277.132 7.05176H284.183V14.1027H277.132V7.05176Z" fill="white"/>
<path d="M277.132 0H284.183V7.05094H277.132V0Z" fill="#322642"/>
<path d="M284.337 7.05176H291.387V14.1027H284.337V7.05176Z" fill="white"/>
<path d="M284.337 0H291.387V7.05094H284.337V0Z" fill="#322642"/>
<path d="M291.388 7.05176H298.439V14.1027H291.388V7.05176Z" fill="white"/>
<path d="M291.388 0H298.439V7.05094H291.388V0Z" fill="#322642"/>
<path d="M298.438 7.05176H305.489V14.1027H298.438V7.05176Z" fill="white"/>
<path d="M298.438 0H305.489V7.05094H298.438V0Z" fill="#322642"/>
<path d="M305.642 7.05176H312.693V14.1027H305.642V7.05176Z" fill="white"/>
<path d="M305.642 0H312.693V7.05094H305.642V0Z" fill="#322642"/>
<path d="M312.694 7.05176H319.745V14.1027H312.694V7.05176Z" fill="white"/>
<path d="M312.694 0H319.745V7.05094H312.694V0Z" fill="#322642"/>
<path d="M319.745 7.05176H326.796V14.1027H319.745V7.05176Z" fill="#322642"/>
<path d="M326.949 42.6123H334V49.6632H326.949V42.6123Z" fill="#322642"/>
<path d="M326.949 35.562H334V42.613H326.949V35.562Z" fill="#322642"/>
<path d="M326.949 28.5107H334V35.5617H326.949V28.5107Z" fill="#322642"/>
<path d="M326.949 21.3066H334V28.3576H326.949V21.3066Z" fill="#322642"/>
<path d="M326.949 14.2549H334V21.3058H326.949V14.2549Z" fill="#322642"/>
<path d="M99.4793 7.05176H106.53V14.1027H99.4793V7.05176Z" fill="white"/>
<path d="M-0.000163078 35.562H7.05078V42.613H-0.000163078V35.562Z" fill="#322642"/>
<path d="M-0.000163078 28.5107H7.05078V35.5617H-0.000163078V28.5107Z" fill="#322642"/>
<path d="M-0.000163078 21.3066H7.05078V28.3576H-0.000163078V21.3066Z" fill="#322642"/>
<path d="M14.2552 7.05176H21.3062V14.1027H14.2552V7.05176Z" fill="white"/>
<path d="M21.306 7.05176H28.3569V14.1027H21.306V7.05176Z" fill="white"/>
<path d="M28.5101 7.05176H35.561V14.1027H28.5101V7.05176Z" fill="white"/>
<path d="M28.5101 0H35.561V7.05094H28.5101V0Z" fill="#322642"/>
<path d="M35.5614 7.05176H42.6123V14.1027H35.5614V7.05176Z" fill="white"/>
<path d="M35.5614 0H42.6123V7.05094H35.5614V0Z" fill="#322642"/>
<path d="M42.6121 7.05176H49.6631V14.1027H42.6121V7.05176Z" fill="white"/>
<path d="M42.6121 0H49.6631V7.05094H42.6121V0Z" fill="#322642"/>
<path d="M49.8162 7.05176H56.8672V14.1027H49.8162V7.05176Z" fill="white"/>
<path d="M49.8162 0H56.8672V7.05094H49.8162V0Z" fill="#322642"/>
<path d="M56.8671 7.05176H63.918V14.1027H56.8671V7.05176Z" fill="white"/>
<path d="M56.8671 0H63.918V7.05094H56.8671V0Z" fill="#322642"/>
<path d="M64.0716 7.05176H71.1226V14.1027H64.0716V7.05176Z" fill="white"/>
<path d="M64.0716 0H71.1226V7.05094H64.0716V0Z" fill="#322642"/>
<path d="M71.1224 7.05176H78.1733V14.1027H71.1224V7.05176Z" fill="white"/>
<path d="M71.1224 0H78.1733V7.05094H71.1224V0Z" fill="#322642"/>
<path d="M78.1732 7.05176H85.2241V14.1027H78.1732V7.05176Z" fill="white"/>
<path d="M78.1732 0H85.2241V7.05094H78.1732V0Z" fill="#322642"/>
<path d="M85.3778 7.05176H92.4287V14.1027H85.3778V7.05176Z" fill="white"/>
<path d="M85.3778 0H92.4287V7.05094H85.3778V0Z" fill="#322642"/>
<path d="M92.4285 7.05176H99.4795V14.1027H92.4285V7.05176Z" fill="white"/>
<path d="M92.4285 0H99.4795V7.05094H92.4285V0Z" fill="#322642"/>
<path d="M14 6.99999L14 0L319 1.3332e-05L319 7L14 6.99999Z" fill="#322642"/>
<path d="M-0.000163078 560.334H7.05078V567.385H-0.000163078V560.334Z" fill="#322642"/>
<path d="M7.20443 567.537H14.2554V574.588H7.20443V567.537Z" fill="#322642"/>
<path d="M14.2552 574.589H21.3062V581.64H14.2552V574.589Z" fill="#322642"/>
<path d="M49.8162 574.589H56.8672V581.64H49.8162V574.589Z" fill="#322642"/>
<path d="M56.8671 574.589H63.918V581.64H56.8671V574.589Z" fill="#322642"/>
<path d="M64.0716 574.589H71.1226V581.64H64.0716V574.589Z" fill="#322642"/>
<path d="M71.1224 574.589H78.1733V581.64H71.1224V574.589Z" fill="#322642"/>
<path d="M78.1737 574.589H85.2246V581.64H78.1737V574.589Z" fill="#322642"/>
<path d="M85.3778 574.589H92.4287V581.64H85.3778V574.589Z" fill="#322642"/>
<path d="M92.4285 574.589H99.4795V581.64H92.4285V574.589Z" fill="#322642"/>
<path d="M99.4793 574.589H106.53V581.64H99.4793V574.589Z" fill="#322642"/>
<path d="M106.683 574.589H113.734V581.64H106.683V574.589Z" fill="#322642"/>
<path d="M106.683 567.537H113.734V574.588H106.683V567.537Z" fill="#B9CEE2"/>
<path d="M106.683 560.334H113.734V567.385H106.683V560.334Z" fill="#B9CEE2"/>
<path d="M106.683 553.282H113.734V560.333H106.683V553.282Z" fill="#E4F4FF"/>
<path d="M106.683 546.307H113.734V553.358H106.683V546.307Z" fill="#E4F4FF"/>
<path d="M106.683 539.104H113.734V546.154H106.683V539.104Z" fill="white"/>
<path d="M106.683 532.051H113.734V539.102H106.683V532.051Z" fill="white"/>
<path d="M106.683 525H113.734V532.051H106.683V525Z" fill="white"/>
<path d="M113.735 574.589H120.786V581.64H113.735V574.589Z" fill="#322642"/>
<path d="M113.735 567.537H120.786V574.588H113.735V567.537Z" fill="#B9CEE2"/>
<path d="M113.735 560.334H120.786V567.385H113.735V560.334Z" fill="#B9CEE2"/>
<path d="M113.735 553.282H120.786V560.333H113.735V553.282Z" fill="#E4F4FF"/>
<path d="M113.735 546.307H120.786V553.358H113.735V546.307Z" fill="#E4F4FF"/>
<path d="M113.735 539.104H120.786V546.154H113.735V539.104Z" fill="white"/>
<path d="M113.735 532.051H120.786V539.102H113.735V532.051Z" fill="white"/>
<path d="M113.735 525H120.786V532.051H113.735V525Z" fill="white"/>
<path d="M120.786 574.589H127.837V581.64H120.786V574.589Z" fill="#322642"/>
<path d="M120.786 567.537H127.837V574.588H120.786V567.537Z" fill="#B9CEE2"/>
<path d="M120.786 560.334H127.837V567.385H120.786V560.334Z" fill="#B9CEE2"/>
<path d="M120.786 553.282H127.837V560.333H120.786V553.282Z" fill="#E4F4FF"/>
<path d="M120.786 546.307H127.837V553.358H120.786V546.307Z" fill="#E4F4FF"/>
<path d="M120.786 539.104H127.837V546.154H120.786V539.104Z" fill="white"/>
<path d="M120.786 532.051H127.837V539.102H120.786V532.051Z" fill="white"/>
<path d="M120.786 525H127.837V532.051H120.786V525Z" fill="white"/>
<path d="M127.99 574.589H135.041V581.64H127.99V574.589Z" fill="#322642"/>
<path d="M127.99 567.537H135.041V574.588H127.99V567.537Z" fill="#B9CEE2"/>
<path d="M127.99 560.334H135.041V567.385H127.99V560.334Z" fill="#B9CEE2"/>
<path d="M127.99 553.282H135.041V560.333H127.99V553.282Z" fill="#E4F4FF"/>
<path d="M127.99 546.307H135.041V553.358H127.99V546.307Z" fill="#E4F4FF"/>
<path d="M127.99 539.104H135.041V546.154H127.99V539.104Z" fill="white"/>
<path d="M127.99 532.051H135.041V539.102H127.99V532.051Z" fill="white"/>
<path d="M127.99 525H135.041V532.051H127.99V525Z" fill="white"/>
<path d="M135.041 574.589H142.092V581.64H135.041V574.589Z" fill="#322642"/>
<path d="M135.041 567.537H142.092V574.588H135.041V567.537Z" fill="#B9CEE2"/>
<path d="M135.041 560.334H142.092V567.385H135.041V560.334Z" fill="#B9CEE2"/>
<path d="M135.041 553.282H142.092V560.333H135.041V553.282Z" fill="#E4F4FF"/>
<path d="M135.041 546.307H142.092V553.358H135.041V546.307Z" fill="#E4F4FF"/>
<path d="M135.041 539.104H142.092V546.154H135.041V539.104Z" fill="white"/>
<path d="M135.041 532.051H142.092V539.102H135.041V532.051Z" fill="white"/>
<path d="M135.041 525H142.092V532.051H135.041V525Z" fill="white"/>
<path d="M142.245 574.589H149.296V581.64H142.245V574.589Z" fill="#322642"/>
<path d="M142.245 567.537H149.296V574.588H142.245V567.537Z" fill="#B9CEE2"/>
<path d="M142.245 560.334H149.296V567.385H142.245V560.334Z" fill="#B9CEE2"/>
<path d="M142.245 553.282H149.296V560.333H142.245V553.282Z" fill="#E4F4FF"/>
<path d="M142.245 546.307H149.296V553.358H142.245V546.307Z" fill="#E4F4FF"/>
<path d="M142.245 539.104H149.296V546.154H142.245V539.104Z" fill="white"/>
<path d="M142.245 532.051H149.296V539.102H142.245V532.051Z" fill="white"/>
<path d="M142.245 525H149.296V532.051H142.245V525Z" fill="white"/>
<path d="M149.296 574.589H156.347V581.64H149.296V574.589Z" fill="#322642"/>
<path d="M149.296 567.537H156.347V574.588H149.296V567.537Z" fill="#B9CEE2"/>
<path d="M149.296 560.334H156.347V567.385H149.296V560.334Z" fill="#B9CEE2"/>
<path d="M149.296 553.282H156.347V560.333H149.296V553.282Z" fill="#E4F4FF"/>
<path d="M149.296 546.307H156.347V553.358H149.296V546.307Z" fill="#E4F4FF"/>
<path d="M149.296 539.104H156.347V546.154H149.296V539.104Z" fill="white"/>
<path d="M149.296 532.051H156.347V539.102H149.296V532.051Z" fill="white"/>
<path d="M149.296 525H156.347V532.051H149.296V525Z" fill="white"/>
<path d="M156.347 574.589H163.398V581.64H156.347V574.589Z" fill="#322642"/>
<path d="M156.347 567.537H163.398V574.588H156.347V567.537Z" fill="#B9CEE2"/>
<path d="M156.347 560.334H163.398V567.385H156.347V560.334Z" fill="#B9CEE2"/>
<path d="M156.347 553.282H163.398V560.333H156.347V553.282Z" fill="#E4F4FF"/>
<path d="M156.347 546.307H163.398V553.358H156.347V546.307Z" fill="#E4F4FF"/>
<path d="M156.347 539.104H163.398V546.154H156.347V539.104Z" fill="white"/>
<path d="M156.347 532.051H163.398V539.102H156.347V532.051Z" fill="white"/>
<path d="M156.347 525H163.398V532.051H156.347V525Z" fill="white"/>
<path d="M163.551 574.589H170.602V581.64H163.551V574.589Z" fill="#322642"/>
<path d="M163.551 567.537H170.602V574.588H163.551V567.537Z" fill="#B9CEE2"/>
<path d="M163.551 560.334H170.602V567.385H163.551V560.334Z" fill="#B9CEE2"/>
<path d="M163.551 553.282H170.602V560.333H163.551V553.282Z" fill="#E4F4FF"/>
<path d="M163.551 546.307H170.602V553.358H163.551V546.307Z" fill="#E4F4FF"/>
<path d="M163.551 539.104H170.602V546.154H163.551V539.104Z" fill="white"/>
<path d="M163.551 532.051H170.602V539.102H163.551V532.051Z" fill="white"/>
<path d="M163.551 525H170.602V532.051H163.551V525Z" fill="white"/>
<path d="M170.602 574.589H177.653V581.64H170.602V574.589Z" fill="#322642"/>
<path d="M170.602 567.537H177.653V574.588H170.602V567.537Z" fill="#B9CEE2"/>
<path d="M170.602 560.334H177.653V567.385H170.602V560.334Z" fill="#B9CEE2"/>
<path d="M170.602 553.282H177.653V560.333H170.602V553.282Z" fill="#E4F4FF"/>
<path d="M170.602 546.307H177.653V553.358H170.602V546.307Z" fill="#E4F4FF"/>
<path d="M170.602 539.104H177.653V546.154H170.602V539.104Z" fill="white"/>
<path d="M170.602 532.051H177.653V539.102H170.602V532.051Z" fill="white"/>
<path d="M170.602 525H177.653V532.051H170.602V525Z" fill="white"/>
<path d="M177.653 574.589H184.704V581.64H177.653V574.589Z" fill="#322642"/>
<path d="M177.653 567.537H184.704V574.588H177.653V567.537Z" fill="#B9CEE2"/>
<path d="M177.653 560.334H184.704V567.385H177.653V560.334Z" fill="#B9CEE2"/>
<path d="M177.653 553.282H184.704V560.333H177.653V553.282Z" fill="#E4F4FF"/>
<path d="M177.653 546.307H184.704V553.358H177.653V546.307Z" fill="#E4F4FF"/>
<path d="M177.653 539.104H184.704V546.154H177.653V539.104Z" fill="white"/>
<path d="M177.653 532.051H184.704V539.102H177.653V532.051Z" fill="white"/>
<path d="M177.653 525H184.704V532.051H177.653V525Z" fill="white"/>
<path d="M184.857 574.589H191.908V581.64H184.857V574.589Z" fill="#322642"/>
<path d="M184.857 567.537H191.908V574.588H184.857V567.537Z" fill="#B9CEE2"/>
<path d="M184.857 560.334H191.908V567.385H184.857V560.334Z" fill="#B9CEE2"/>
<path d="M184.857 553.282H191.908V560.333H184.857V553.282Z" fill="#E4F4FF"/>
<path d="M184.857 546.307H191.908V553.358H184.857V546.307Z" fill="#E4F4FF"/>
<path d="M184.857 539.104H191.908V546.154H184.857V539.104Z" fill="white"/>
<path d="M184.857 532.051H191.908V539.102H184.857V532.051Z" fill="white"/>
<path d="M184.857 525H191.908V532.051H184.857V525Z" fill="white"/>
<path d="M191.908 574.589H198.959V581.64H191.908V574.589Z" fill="#322642"/>
<path d="M191.908 567.537H198.959V574.588H191.908V567.537Z" fill="#B9CEE2"/>
<path d="M191.908 560.334H198.959V567.385H191.908V560.334Z" fill="#B9CEE2"/>
<path d="M191.908 553.282H198.959V560.333H191.908V553.282Z" fill="#E4F4FF"/>
<path d="M191.908 546.307H198.959V553.358H191.908V546.307Z" fill="#E4F4FF"/>
<path d="M191.908 539.104H198.959V546.154H191.908V539.104Z" fill="white"/>
<path d="M191.908 532.051H198.959V539.102H191.908V532.051Z" fill="white"/>
<path d="M191.908 525H198.959V532.051H191.908V525Z" fill="white"/>
<path d="M198.959 574.589H206.01V581.64H198.959V574.589Z" fill="#322642"/>
<path d="M198.959 567.537H206.01V574.588H198.959V567.537Z" fill="#B9CEE2"/>
<path d="M198.959 560.334H206.01V567.385H198.959V560.334Z" fill="#B9CEE2"/>
<path d="M198.959 553.282H206.01V560.333H198.959V553.282Z" fill="#E4F4FF"/>
<path d="M198.959 546.307H206.01V553.358H198.959V546.307Z" fill="#E4F4FF"/>
<path d="M198.959 539.104H206.01V546.154H198.959V539.104Z" fill="white"/>
<path d="M198.959 532.051H206.01V539.102H198.959V532.051Z" fill="white"/>
<path d="M198.959 525H206.01V532.051H198.959V525Z" fill="white"/>
<path d="M206.163 574.589H213.214V581.64H206.163V574.589Z" fill="#322642"/>
<path d="M206.163 567.537H213.214V574.588H206.163V567.537Z" fill="#B9CEE2"/>
<path d="M206.163 560.334H213.214V567.385H206.163V560.334Z" fill="#B9CEE2"/>
<path d="M206.163 553.282H213.214V560.333H206.163V553.282Z" fill="#E4F4FF"/>
<path d="M206.163 546.307H213.214V553.358H206.163V546.307Z" fill="#E4F4FF"/>
<path d="M206.163 539.104H213.214V546.154H206.163V539.104Z" fill="white"/>
<path d="M206.163 532.051H213.214V539.102H206.163V532.051Z" fill="white"/>
<path d="M206.163 525H213.214V532.051H206.163V525Z" fill="white"/>
<path d="M213.214 574.589H220.265V581.64H213.214V574.589Z" fill="#322642"/>
<path d="M213.214 567.537H220.265V574.588H213.214V567.537Z" fill="#B9CEE2"/>
<path d="M213.214 560.334H220.265V567.385H213.214V560.334Z" fill="#B9CEE2"/>
<path d="M213.214 553.282H220.265V560.333H213.214V553.282Z" fill="#E4F4FF"/>
<path d="M213.214 546.307H220.265V553.358H213.214V546.307Z" fill="#E4F4FF"/>
<path d="M213.214 539.104H220.265V546.154H213.214V539.104Z" fill="white"/>
<path d="M213.214 532.051H220.265V539.102H213.214V532.051Z" fill="white"/>
<path d="M213.214 525H220.265V532.051H213.214V525Z" fill="white"/>
<path d="M220.265 574.589H227.316V581.64H220.265V574.589Z" fill="#322642"/>
<path d="M220.265 567.537H227.316V574.588H220.265V567.537Z" fill="#B9CEE2"/>
<path d="M220.265 560.334H227.316V567.385H220.265V560.334Z" fill="#B9CEE2"/>
<path d="M220.265 553.282H227.316V560.333H220.265V553.282Z" fill="#E4F4FF"/>
<path d="M220.265 546.307H227.316V553.358H220.265V546.307Z" fill="#E4F4FF"/>
<path d="M220.265 539.104H227.316V546.154H220.265V539.104Z" fill="white"/>
<path d="M220.265 532.051H227.316V539.102H220.265V532.051Z" fill="white"/>
<path d="M220.265 525H227.316V532.051H220.265V525Z" fill="white"/>
<path d="M227.469 574.589H234.52V581.64H227.469V574.589Z" fill="#322642"/>
<path d="M227.469 567.537H234.52V574.588H227.469V567.537Z" fill="#B9CEE2"/>
<path d="M227.469 560.334H234.52V567.385H227.469V560.334Z" fill="#B9CEE2"/>
<path d="M227.469 553.282H234.52V560.333H227.469V553.282Z" fill="#E4F4FF"/>
<path d="M227.469 546.307H234.52V553.358H227.469V546.307Z" fill="#E4F4FF"/>
<path d="M227.469 539.104H234.52V546.154H227.469V539.104Z" fill="white"/>
<path d="M227.469 532.051H234.52V539.102H227.469V532.051Z" fill="white"/>
<path d="M227.469 525H234.52V532.051H227.469V525Z" fill="white"/>
<path d="M234.52 574.589H241.571V581.64H234.52V574.589Z" fill="#322642"/>
<path d="M234.52 567.537H241.571V574.588H234.52V567.537Z" fill="#B9CEE2"/>
<path d="M234.52 560.334H241.571V567.385H234.52V560.334Z" fill="#B9CEE2"/>
<path d="M234.52 553.282H241.571V560.333H234.52V553.282Z" fill="#E4F4FF"/>
<path d="M234.52 546.307H241.571V553.358H234.52V546.307Z" fill="#E4F4FF"/>
<path d="M234.52 539.104H241.571V546.154H234.52V539.104Z" fill="white"/>
<path d="M234.52 532.051H241.571V539.102H234.52V532.051Z" fill="white"/>
<path d="M234.52 525H241.571V532.051H234.52V525Z" fill="white"/>
<path d="M241.724 574.589H248.775V581.64H241.724V574.589Z" fill="#322642"/>
<path d="M241.724 567.537H248.775V574.588H241.724V567.537Z" fill="#B9CEE2"/>
<path d="M241.724 560.334H248.775V567.385H241.724V560.334Z" fill="#B9CEE2"/>
<path d="M241.724 553.282H248.775V560.333H241.724V553.282Z" fill="#E4F4FF"/>
<path d="M241.725 546.307H248.776V553.358H241.725V546.307Z" fill="#E4F4FF"/>
<path d="M241.725 539.104H248.776V546.154H241.725V539.104Z" fill="white"/>
<path d="M241.725 532.051H248.776V539.102H241.725V532.051Z" fill="white"/>
<path d="M241.725 525H248.776V532.051H241.725V525Z" fill="white"/>
<path d="M248.775 574.589H255.826V581.64H248.775V574.589Z" fill="#322642"/>
<path d="M248.775 567.537H255.826V574.588H248.775V567.537Z" fill="#B9CEE2"/>
<path d="M248.775 560.334H255.826V567.385H248.775V560.334Z" fill="#B9CEE2"/>
<path d="M248.775 553.282H255.826V560.333H248.775V553.282Z" fill="#E4F4FF"/>
<path d="M248.775 546.307H255.826V553.358H248.775V546.307Z" fill="#E4F4FF"/>
<path d="M248.775 539.104H255.826V546.154H248.775V539.104Z" fill="white"/>
<path d="M248.775 532.051H255.826V539.102H248.775V532.051Z" fill="white"/>
<path d="M248.775 525H255.826V532.051H248.775V525Z" fill="white"/>
<path d="M255.826 574.589H262.877V581.64H255.826V574.589Z" fill="#322642"/>
<path d="M255.826 567.537H262.877V574.588H255.826V567.537Z" fill="#B9CEE2"/>
<path d="M255.826 560.334H262.877V567.385H255.826V560.334Z" fill="#B9CEE2"/>
<path d="M255.826 553.282H262.877V560.333H255.826V553.282Z" fill="#E4F4FF"/>
<path d="M255.826 546.307H262.877V553.358H255.826V546.307Z" fill="#E4F4FF"/>
<path d="M255.826 539.104H262.877V546.154H255.826V539.104Z" fill="white"/>
<path d="M255.826 532.051H262.877V539.102H255.826V532.051Z" fill="white"/>
<path d="M255.826 525H262.877V532.051H255.826V525Z" fill="white"/>
<path d="M263.031 574.589H270.082V581.64H263.031V574.589Z" fill="#322642"/>
<path d="M263.031 567.537H270.082V574.588H263.031V567.537Z" fill="#B9CEE2"/>
<path d="M263.031 560.334H270.082V567.385H263.031V560.334Z" fill="#B9CEE2"/>
<path d="M263.031 553.282H270.082V560.333H263.031V553.282Z" fill="#E4F4FF"/>
<path d="M263.031 546.307H270.082V553.358H263.031V546.307Z" fill="#E4F4FF"/>
<path d="M263.031 539.104H270.082V546.154H263.031V539.104Z" fill="white"/>
<path d="M263.031 532.051H270.082V539.102H263.031V532.051Z" fill="white"/>
<path d="M263.031 525H270.082V532.051H263.031V525Z" fill="white"/>
<path d="M270.082 574.589H277.133V581.64H270.082V574.589Z" fill="#322642"/>
<path d="M270.082 567.537H277.133V574.588H270.082V567.537Z" fill="#B9CEE2"/>
<path d="M270.082 560.334H277.133V567.385H270.082V560.334Z" fill="#B9CEE2"/>
<path d="M270.082 553.282H277.133V560.333H270.082V553.282Z" fill="#E4F4FF"/>
<path d="M270.082 546.307H277.133V553.358H270.082V546.307Z" fill="#E4F4FF"/>
<path d="M270.082 539.104H277.133V546.154H270.082V539.104Z" fill="white"/>
<path d="M270.082 532.051H277.133V539.102H270.082V532.051Z" fill="white"/>
<path d="M270.082 525H277.133V532.051H270.082V525Z" fill="white"/>
<path d="M277.133 574.589H284.184V581.64H277.133V574.589Z" fill="#322642"/>
<path d="M277.133 567.537H284.184V574.588H277.133V567.537Z" fill="#B9CEE2"/>
<path d="M277.133 560.334H284.184V567.385H277.133V560.334Z" fill="#B9CEE2"/>
<path d="M277.133 553.282H284.184V560.333H277.133V553.282Z" fill="#E4F4FF"/>
<path d="M277.133 546.307H284.184V553.358H277.133V546.307Z" fill="#E4F4FF"/>
<path d="M277.133 539.104H284.184V546.154H277.133V539.104Z" fill="white"/>
<path d="M277.133 532.051H284.184V539.102H277.133V532.051Z" fill="white"/>
<path d="M277.133 525H284.184V532.051H277.133V525Z" fill="white"/>
<path d="M284.337 574.589H291.388V581.64H284.337V574.589Z" fill="#322642"/>
<path d="M284.337 567.537H291.388V574.588H284.337V567.537Z" fill="#B9CEE2"/>
<path d="M284.337 560.334H291.388V567.385H284.337V560.334Z" fill="#B9CEE2"/>
<path d="M284.337 553.282H291.388V560.333H284.337V553.282Z" fill="#E4F4FF"/>
<path d="M284.337 546.307H291.388V553.358H284.337V546.307Z" fill="#E4F4FF"/>
<path d="M284.337 539.104H291.388V546.154H284.337V539.104Z" fill="white"/>
<path d="M284.337 532.051H291.388V539.102H284.337V532.051Z" fill="white"/>
<path d="M284.337 525H291.388V532.051H284.337V525Z" fill="white"/>
<path d="M291.388 574.589H298.439V581.64H291.388V574.589Z" fill="#322642"/>
<path d="M291.388 567.537H298.439V574.588H291.388V567.537Z" fill="#B9CEE2"/>
<path d="M291.388 560.334H298.439V567.385H291.388V560.334Z" fill="#B9CEE2"/>
<path d="M291.388 553.282H298.439V560.333H291.388V553.282Z" fill="#E4F4FF"/>
<path d="M291.388 546.307H298.439V553.358H291.388V546.307Z" fill="#E4F4FF"/>
<path d="M291.388 539.104H298.439V546.154H291.388V539.104Z" fill="white"/>
<path d="M291.388 532.051H298.439V539.102H291.388V532.051Z" fill="white"/>
<path d="M291.388 525H298.439V532.051H291.388V525Z" fill="white"/>
<path d="M298.439 574.589H305.49V581.64H298.439V574.589Z" fill="#322642"/>
<path d="M298.439 567.537H305.49V574.588H298.439V567.537Z" fill="#B9CEE2"/>
<path d="M298.439 560.334H305.49V567.385H298.439V560.334Z" fill="#B9CEE2"/>
<path d="M298.439 553.282H305.49V560.333H298.439V553.282Z" fill="#E4F4FF"/>
<path d="M298.439 546.307H305.49V553.358H298.439V546.307Z" fill="#E4F4FF"/>
<path d="M298.439 539.104H305.49V546.154H298.439V539.104Z" fill="white"/>
<path d="M298.439 532.051H305.49V539.102H298.439V532.051Z" fill="white"/>
<path d="M298.439 525H305.49V532.051H298.439V525Z" fill="white"/>
<path d="M305.643 567.537H312.694V574.588H305.643V567.537Z" fill="#B9CEE2"/>
<path d="M305.643 560.334H312.694V567.385H305.643V560.334Z" fill="#B9CEE2"/>
<path d="M305.643 553.282H312.694V560.333H305.643V553.282Z" fill="#E4F4FF"/>
<path d="M305.643 546.307H312.694V553.358H305.643V546.307Z" fill="#E4F4FF"/>
<path d="M305.643 539.104H312.694V546.154H305.643V539.104Z" fill="white"/>
<path d="M305.643 532.051H312.694V539.102H305.643V532.051Z" fill="white"/>
<path d="M305.643 525H312.694V532.051H305.643V525Z" fill="white"/>
<path d="M14.02 575H318.95V582.01H14.02V575Z" fill="#322642"/>
<path d="M304.971 574.589H315.486V581.64H304.971V574.589Z" fill="#322642"/>
<path d="M312.693 567.537H319.744V574.588H312.693V567.537Z" fill="#B9CEE2"/>
<path d="M312.693 560.334H319.744V567.385H312.693V560.334Z" fill="#B9CEE2"/>
<path d="M312.693 553.282H319.744V560.333H312.693V553.282Z" fill="#B9CEE2"/>
<path d="M312.694 546.307H319.745V553.358H312.694V546.307Z" fill="#E4F4FF"/>
<path d="M312.694 539.104H319.745V546.154H312.694V539.104Z" fill="#E4F4FF"/>
<path d="M312.694 532.051H319.745V539.102H312.694V532.051Z" fill="white"/>
<path d="M312.694 525H319.745V532.051H312.694V525Z" fill="white"/>
<path d="M319.745 567.537H326.796V574.588H319.745V567.537Z" fill="#322642"/>
<path d="M319.745 560.334H326.796V567.385H319.745V560.334Z" fill="#B9CEE2"/>
<path d="M319.745 553.282H326.796V560.333H319.745V553.282Z" fill="#B9CEE2"/>
<path d="M319.745 546.307H326.796V553.358H319.745V546.307Z" fill="#B9CEE2"/>
<path d="M319.745 539.104H326.796V546.154H319.745V539.104Z" fill="#E4F4FF"/>
<path d="M319.745 532.051H326.796V539.102H319.745V532.051Z" fill="#E4F4FF"/>
<path d="M319.745 525H326.796V532.051H319.745V525Z" fill="white"/>
<path d="M326.949 560.334H334V567.385H326.949V560.334Z" fill="#322642"/>
<path d="M326.949 553.282H334V560.333H326.949V553.282Z" fill="#322642"/>
<path d="M326.949 546.307H334V553.358H326.949V546.307Z" fill="#322642"/>
<path d="M326.949 539.104H334V546.154H326.949V539.104Z" fill="#322642"/>
<path d="M326.949 532.051H334V539.102H326.949V532.051Z" fill="#322642"/>
<path d="M326.949 525H334V532.051H326.949V525Z" fill="#322642"/>
<path d="M99.4793 567.537H106.53V574.588H99.4793V567.537Z" fill="#B9CEE2"/>
<path d="M99.4793 560.334H106.53V567.385H99.4793V560.334Z" fill="#B9CEE2"/>
<path d="M99.4793 553.282H106.53V560.333H99.4793V553.282Z" fill="#E4F4FF"/>
<path d="M99.4793 546.307H106.53V553.358H99.4793V546.307Z" fill="#E4F4FF"/>
<path d="M99.4793 539.104H106.53V546.154H99.4793V539.104Z" fill="white"/>
<path d="M99.4793 532.051H106.53V539.102H99.4793V532.051Z" fill="white"/>
<path d="M99.4793 525H106.53V532.051H99.4793V525Z" fill="white"/>
<path d="M-0.000163078 553.282H7.05078V560.333H-0.000163078V553.282Z" fill="#322642"/>
<path d="M0.000325203 546.307H7.05127V553.358H0.000325203V546.307Z" fill="#322642"/>
<path d="M0.000325203 539.104H7.05127V546.154H0.000325203V539.104Z" fill="#322642"/>
<path d="M0.000325203 532.051H7.05127V539.102H0.000325203V532.051Z" fill="#322642"/>
<path d="M0.000325203 525H7.05127V532.051H0.000325203V525Z" fill="#322642"/>
<path d="M7.20443 560.334H14.2554V567.385H7.20443V560.334Z" fill="#B9CEE2"/>
<path d="M7.20443 553.282H14.2554V560.333H7.20443V553.282Z" fill="#B9CEE2"/>
<path d="M7.20443 546.307H14.2554V553.358H7.20443V546.307Z" fill="#B9CEE2"/>
<path d="M7.20443 539.104H14.2554V546.154H7.20443V539.104Z" fill="#E4F4FF"/>
<path d="M7.20443 532.051H14.2554V539.102H7.20443V532.051Z" fill="#E4F4FF"/>
<path d="M7.20443 525H14.2554V532.051H7.20443V525Z" fill="white"/>
<path d="M14.2552 567.537H21.3062V574.588H14.2552V567.537Z" fill="#B9CEE2"/>
<path d="M14.2552 560.334H21.3062V567.385H14.2552V560.334Z" fill="#B9CEE2"/>
<path d="M14.2552 553.282H21.3062V560.333H14.2552V553.282Z" fill="#B9CEE2"/>
<path d="M14.2552 546.307H21.3062V553.358H14.2552V546.307Z" fill="#E4F4FF"/>
<path d="M14.2552 539.104H21.3062V546.154H14.2552V539.104Z" fill="#E4F4FF"/>
<path d="M14.2552 532.051H21.3062V539.102H14.2552V532.051Z" fill="white"/>
<path d="M14.2552 525H21.3062V532.051H14.2552V525Z" fill="white"/>
<path d="M21.306 574.589H28.3569V581.64H21.306V574.589Z" fill="#322642"/>
<path d="M21.306 567.537H28.3569V574.588H21.306V567.537Z" fill="#B9CEE2"/>
<path d="M21.306 560.334H28.3569V567.385H21.306V560.334Z" fill="#B9CEE2"/>
<path d="M21.306 553.282H28.3569V560.333H21.306V553.282Z" fill="#E4F4FF"/>
<path d="M21.306 546.307H28.3569V553.358H21.306V546.307Z" fill="#E4F4FF"/>
<path d="M21.306 539.104H28.3569V546.154H21.306V539.104Z" fill="white"/>
<path d="M21.306 532.051H28.3569V539.102H21.306V532.051Z" fill="white"/>
<path d="M21.306 525H28.3569V532.051H21.306V525Z" fill="white"/>
<path d="M28.5101 574.589H35.561V581.64H28.5101V574.589Z" fill="#322642"/>
<path d="M28.5101 567.537H35.561V574.588H28.5101V567.537Z" fill="#B9CEE2"/>
<path d="M28.5101 560.334H35.561V567.385H28.5101V560.334Z" fill="#B9CEE2"/>
<path d="M28.5101 553.282H35.561V560.333H28.5101V553.282Z" fill="#E4F4FF"/>
<path d="M28.5101 546.307H35.561V553.358H28.5101V546.307Z" fill="#E4F4FF"/>
<path d="M28.5101 539.104H35.561V546.154H28.5101V539.104Z" fill="white"/>
<path d="M28.5101 532.051H35.561V539.102H28.5101V532.051Z" fill="white"/>
<path d="M28.5101 525H35.561V532.051H28.5101V525Z" fill="white"/>
<path d="M35.5614 574.589H42.6123V581.64H35.5614V574.589Z" fill="#322642"/>
<path d="M35.5614 567.537H42.6123V574.588H35.5614V567.537Z" fill="#B9CEE2"/>
<path d="M35.5614 560.334H42.6123V567.385H35.5614V560.334Z" fill="#B9CEE2"/>
<path d="M35.5614 553.282H42.6123V560.333H35.5614V553.282Z" fill="#E4F4FF"/>
<path d="M35.5614 546.307H42.6123V553.358H35.5614V546.307Z" fill="#E4F4FF"/>
<path d="M35.5614 539.104H42.6123V546.154H35.5614V539.104Z" fill="white"/>
<path d="M35.5614 532.051H42.6123V539.102H35.5614V532.051Z" fill="white"/>
<path d="M35.5614 525H42.6123V532.051H35.5614V525Z" fill="white"/>
<path d="M42.6121 574.589H49.6631V581.64H42.6121V574.589Z" fill="#322642"/>
<path d="M42.6121 567.537H49.6631V574.588H42.6121V567.537Z" fill="#B9CEE2"/>
<path d="M42.6121 560.334H49.6631V567.385H42.6121V560.334Z" fill="#B9CEE2"/>
<path d="M42.6121 553.282H49.6631V560.333H42.6121V553.282Z" fill="#E4F4FF"/>
<path d="M42.6121 546.307H49.6631V553.358H42.6121V546.307Z" fill="#E4F4FF"/>
<path d="M42.6121 539.104H49.6631V546.154H42.6121V539.104Z" fill="white"/>
<path d="M42.6121 532.051H49.6631V539.102H42.6121V532.051Z" fill="white"/>
<path d="M42.6121 525H49.6631V532.051H42.6121V525Z" fill="white"/>
<path d="M49.8162 567.537H56.8672V574.588H49.8162V567.537Z" fill="#B9CEE2"/>
<path d="M49.8162 560.334H56.8672V567.385H49.8162V560.334Z" fill="#B9CEE2"/>
<path d="M49.8162 553.282H56.8672V560.333H49.8162V553.282Z" fill="#E4F4FF"/>
<path d="M49.8162 546.307H56.8672V553.358H49.8162V546.307Z" fill="#E4F4FF"/>
<path d="M49.8162 539.104H56.8672V546.154H49.8162V539.104Z" fill="white"/>
<path d="M49.8162 532.051H56.8672V539.102H49.8162V532.051Z" fill="white"/>
<path d="M49.8162 525H56.8672V532.051H49.8162V525Z" fill="white"/>
<path d="M56.8671 567.537H63.918V574.588H56.8671V567.537Z" fill="#B9CEE2"/>
<path d="M56.8671 560.334H63.918V567.385H56.8671V560.334Z" fill="#B9CEE2"/>
<path d="M56.8671 553.282H63.918V560.333H56.8671V553.282Z" fill="#E4F4FF"/>
<path d="M56.8671 546.307H63.918V553.358H56.8671V546.307Z" fill="#E4F4FF"/>
<path d="M56.8671 539.104H63.918V546.154H56.8671V539.104Z" fill="white"/>
<path d="M56.8671 532.051H63.918V539.102H56.8671V532.051Z" fill="white"/>
<path d="M56.8671 525H63.918V532.051H56.8671V525Z" fill="white"/>
<path d="M64.0716 567.537H71.1226V574.588H64.0716V567.537Z" fill="#B9CEE2"/>
<path d="M64.0716 560.334H71.1226V567.385H64.0716V560.334Z" fill="#B9CEE2"/>
<path d="M64.0716 553.282H71.1226V560.333H64.0716V553.282Z" fill="#E4F4FF"/>
<path d="M64.0716 546.307H71.1226V553.358H64.0716V546.307Z" fill="#E4F4FF"/>
<path d="M64.0716 539.104H71.1226V546.154H64.0716V539.104Z" fill="white"/>
<path d="M64.0716 532.051H71.1226V539.102H64.0716V532.051Z" fill="white"/>
<path d="M64.0716 525H71.1226V532.051H64.0716V525Z" fill="white"/>
<path d="M71.1224 567.537H78.1733V574.588H71.1224V567.537Z" fill="#B9CEE2"/>
<path d="M71.1224 560.334H78.1733V567.385H71.1224V560.334Z" fill="#B9CEE2"/>
<path d="M71.1224 553.282H78.1733V560.333H71.1224V553.282Z" fill="#E4F4FF"/>
<path d="M71.1224 546.307H78.1733V553.358H71.1224V546.307Z" fill="#E4F4FF"/>
<path d="M71.1224 539.104H78.1733V546.154H71.1224V539.104Z" fill="white"/>
<path d="M71.1224 532.051H78.1733V539.102H71.1224V532.051Z" fill="white"/>
<path d="M71.1224 525H78.1733V532.051H71.1224V525Z" fill="white"/>
<path d="M78.1737 567.537H85.2246V574.588H78.1737V567.537Z" fill="#B9CEE2"/>
<path d="M78.1737 560.334H85.2246V567.385H78.1737V560.334Z" fill="#B9CEE2"/>
<path d="M78.1737 553.282H85.2246V560.333H78.1737V553.282Z" fill="#E4F4FF"/>
<path d="M78.1737 546.307H85.2246V553.358H78.1737V546.307Z" fill="#E4F4FF"/>
<path d="M78.1737 539.104H85.2246V546.154H78.1737V539.104Z" fill="white"/>
<path d="M78.1737 532.051H85.2246V539.102H78.1737V532.051Z" fill="white"/>
<path d="M78.1737 525H85.2246V532.051H78.1737V525Z" fill="white"/>
<path d="M85.3778 567.537H92.4287V574.588H85.3778V567.537Z" fill="#B9CEE2"/>
<path d="M85.3778 560.334H92.4287V567.385H85.3778V560.334Z" fill="#B9CEE2"/>
<path d="M85.3778 553.282H92.4287V560.333H85.3778V553.282Z" fill="#E4F4FF"/>
<path d="M85.3778 546.307H92.4287V553.358H85.3778V546.307Z" fill="#E4F4FF"/>
<path d="M85.3778 539.104H92.4287V546.154H85.3778V539.104Z" fill="white"/>
<path d="M85.3778 532.051H92.4287V539.102H85.3778V532.051Z" fill="white"/>
<path d="M85.3778 525H92.4287V532.051H85.3778V525Z" fill="white"/>
<path d="M92.4285 567.537H99.4795V574.588H92.4285V567.537Z" fill="#B9CEE2"/>
<path d="M92.4285 560.334H99.4795V567.385H92.4285V560.334Z" fill="#B9CEE2"/>
<path d="M92.4285 553.282H99.4795V560.333H92.4285V553.282Z" fill="#E4F4FF"/>
<path d="M92.4285 546.307H99.4795V553.358H92.4285V546.307Z" fill="#E4F4FF"/>
<path d="M92.4285 539.104H99.4795V546.154H92.4285V539.104Z" fill="white"/>
<path d="M92.4285 532.051H99.4795V539.102H92.4285V532.051Z" fill="white"/>
<path d="M92.4285 525H99.4795V532.051H92.4285V525Z" fill="white"/>
<path d="M14 582L14 575L319 575L319 582L14 582Z" fill="#322642"/>
</svg>
