<svg width="23" height="24" viewBox="0 0 23 24" fill="none" xmlns="http://www.w3.org/2000/svg">
<g id="&#209;&#130;&#208;&#176;&#208;&#185;&#208;&#188;&#208;&#181;&#209;&#128; 1">
<path id="Vector" d="M1.30195 22.51H0.412109V23.3998H1.30195V22.51Z" fill="#774017"/>
<path id="Vector_2" d="M1.30195 21.6011H0.412109V22.4909H1.30195V21.6011Z" fill="#9B5E2C"/>
<path id="Vector_3" d="M1.30195 20.7112H0.412109V21.601H1.30195V20.7112Z" fill="#9B5E2C"/>
<path id="Vector_4" d="M1.30195 1.87012H0.412109V2.75995H1.30195V1.87012Z" fill="#774017"/>
<path id="Vector_5" d="M1.30195 0.980225H0.412109V1.87005H1.30195V0.980225Z" fill="#9B5E2C"/>
<path id="Vector_6" d="M1.30195 0.090332H0.412109V0.980168H1.30195V0.090332Z" fill="#9B5E2C"/>
<path id="Vector_7" d="M6.69892 22.51H5.80908V23.3998H6.69892V22.51Z" fill="#774017"/>
<path id="Vector_8" d="M6.69892 21.6011H5.80908V22.4909H6.69892V21.6011Z" fill="#9B5E2C"/>
<path id="Vector_9" d="M6.69892 20.7112H5.80908V21.601H6.69892V20.7112Z" fill="#9B5E2C"/>
<path id="Vector_10" d="M6.69892 19.802H5.80908V20.6918H6.69892V19.802Z" fill="#C18C52"/>
<path id="Vector_11" d="M6.69892 18.9121H5.80908V19.8019H6.69892V18.9121Z" fill="#C18C52"/>
<path id="Vector_12" d="M6.69892 18.0222H5.80908V18.9121H6.69892V18.0222Z" fill="#C18C52"/>
<path id="Vector_13" d="M6.69892 17.1133H5.80908V18.0031H6.69892V17.1133Z" fill="#C18C52"/>
<path id="Vector_14" d="M6.69892 16.2229H5.80908V17.1127H6.69892V16.2229Z" fill="#8B9CD1"/>
<path id="Vector_15" d="M6.69892 15.3335H5.80908V16.2233H6.69892V15.3335Z" fill="#AABBE8"/>
<path id="Vector_16" d="M6.69892 14.4243H5.80908V15.3141H6.69892V14.4243Z" fill="#AABBE8"/>
<path id="Vector_17" d="M6.69892 13.5344H5.80908V14.4243H6.69892V13.5344Z" fill="#49568E"/>
<path id="Vector_18" d="M6.69892 12.6445H5.80908V13.5344H6.69892V12.6445Z" fill="#49568E"/>
<path id="Vector_19" d="M6.69892 9.93652H5.80908V10.8264H6.69892V9.93652Z" fill="#49568E"/>
<path id="Vector_20" d="M6.69892 9.04663H5.80908V9.93647H6.69892V9.04663Z" fill="#8B9CD1"/>
<path id="Vector_21" d="M6.69892 8.15674H5.80908V9.04657H6.69892V8.15674Z" fill="#E5B57C"/>
<path id="Vector_22" d="M6.69892 7.24731H5.80908V8.13715H6.69892V7.24731Z" fill="#E5B57C"/>
<path id="Vector_23" d="M6.69892 6.35791H5.80908V7.24775H6.69892V6.35791Z" fill="#8B9CD1"/>
<path id="Vector_24" d="M6.69892 5.46802H5.80908V6.35785H6.69892V5.46802Z" fill="#8B9CD1"/>
<path id="Vector_25" d="M6.69892 4.55859H5.80908V5.44842H6.69892V4.55859Z" fill="#8B9CD1"/>
<path id="Vector_26" d="M6.69892 3.66919H5.80908V4.55903H6.69892V3.66919Z" fill="#8B9CD1"/>
<path id="Vector_27" d="M6.69892 2.77905H5.80908V3.66889H6.69892V2.77905Z" fill="#8B9CD1"/>
<path id="Vector_28" d="M6.69892 1.87012H5.80908V2.75995H6.69892V1.87012Z" fill="#774017"/>
<path id="Vector_29" d="M6.69892 0.980225H5.80908V1.87005H6.69892V0.980225Z" fill="#9B5E2C"/>
<path id="Vector_30" d="M6.69892 0.090332H5.80908V0.980168H6.69892V0.090332Z" fill="#9B5E2C"/>
<path id="Vector_31" d="M5.78974 22.51H4.8999V23.3998H5.78974V22.51Z" fill="#774017"/>
<path id="Vector_32" d="M5.78974 21.6011H4.8999V22.4909H5.78974V21.6011Z" fill="#9B5E2C"/>
<path id="Vector_33" d="M5.78974 20.7112H4.8999V21.601H5.78974V20.7112Z" fill="#9B5E2C"/>
<path id="Vector_34" d="M5.78974 19.802H4.8999V20.6918H5.78974V19.802Z" fill="#C18C52"/>
<path id="Vector_35" d="M5.78974 18.9121H4.8999V19.8019H5.78974V18.9121Z" fill="#C18C52"/>
<path id="Vector_36" d="M5.78974 18.0222H4.8999V18.9121H5.78974V18.0222Z" fill="#C18C52"/>
<path id="Vector_37" d="M5.78974 17.1133H4.8999V18.0031H5.78974V17.1133Z" fill="#8B9CD1"/>
<path id="Vector_38" d="M5.78974 16.2229H4.8999V17.1127H5.78974V16.2229Z" fill="#8B9CD1"/>
<path id="Vector_39" d="M5.78974 15.3335H4.8999V16.2233H5.78974V15.3335Z" fill="#C7D5F2"/>
<path id="Vector_40" d="M5.78974 14.4243H4.8999V15.3141H5.78974V14.4243Z" fill="#C7D5F2"/>
<path id="Vector_41" d="M5.78974 13.5344H4.8999V14.4243H5.78974V13.5344Z" fill="#49568E"/>
<path id="Vector_42" d="M5.78974 12.6445H4.8999V13.5344H5.78974V12.6445Z" fill="#49568E"/>
<path id="Vector_43" d="M5.78974 9.93652H4.8999V10.8264H5.78974V9.93652Z" fill="#49568E"/>
<path id="Vector_44" d="M5.78974 9.04663H4.8999V9.93647H5.78974V9.04663Z" fill="#49568E"/>
<path id="Vector_45" d="M5.78974 8.15674H4.8999V9.04657H5.78974V8.15674Z" fill="#8B9CD1"/>
<path id="Vector_46" d="M5.78974 7.24731H4.8999V8.13715H5.78974V7.24731Z" fill="#8B9CD1"/>
<path id="Vector_47" d="M5.78974 6.35791H4.8999V7.24775H5.78974V6.35791Z" fill="#8B9CD1"/>
<path id="Vector_48" d="M5.78974 5.46802H4.8999V6.35785H5.78974V5.46802Z" fill="#8B9CD1"/>
<path id="Vector_49" d="M5.78974 4.55859H4.8999V5.44842H5.78974V4.55859Z" fill="#8B9CD1"/>
<path id="Vector_50" d="M5.78974 3.66919H4.8999V4.55903H5.78974V3.66919Z" fill="#8B9CD1"/>
<path id="Vector_51" d="M5.78974 2.77905H4.8999V3.66889H5.78974V2.77905Z" fill="#8B9CD1"/>
<path id="Vector_52" d="M5.78974 1.87012H4.8999V2.75995H5.78974V1.87012Z" fill="#774017"/>
<path id="Vector_53" d="M5.78974 0.980225H4.8999V1.87005H5.78974V0.980225Z" fill="#9B5E2C"/>
<path id="Vector_54" d="M5.78974 0.090332H4.8999V0.980168H5.78974V0.090332Z" fill="#9B5E2C"/>
<path id="Vector_55" d="M4.89985 22.51H4.01001V23.3998H4.89985V22.51Z" fill="#774017"/>
<path id="Vector_56" d="M4.89985 21.6011H4.01001V22.4909H4.89985V21.6011Z" fill="#9B5E2C"/>
<path id="Vector_57" d="M4.89985 20.7112H4.01001V21.601H4.89985V20.7112Z" fill="#9B5E2C"/>
<path id="Vector_58" d="M4.89985 19.802H4.01001V20.6918H4.89985V19.802Z" fill="#C7D5F2"/>
<path id="Vector_59" d="M4.89985 18.9121H4.01001V19.8019H4.89985V18.9121Z" fill="#C7D5F2"/>
<path id="Vector_60" d="M4.89985 18.0222H4.01001V18.9121H4.89985V18.0222Z" fill="#C7D5F2"/>
<path id="Vector_61" d="M4.89985 17.1133H4.01001V18.0031H4.89985V17.1133Z" fill="#C7D5F2"/>
<path id="Vector_62" d="M4.89985 16.2229H4.01001V17.1127H4.89985V16.2229Z" fill="#C7D5F2"/>
<path id="Vector_63" d="M4.89985 15.3335H4.01001V16.2233H4.89985V15.3335Z" fill="#49568E"/>
<path id="Vector_64" d="M4.89985 14.4243H4.01001V15.3141H4.89985V14.4243Z" fill="#49568E"/>
<path id="Vector_65" d="M4.89985 8.15674H4.01001V9.04657H4.89985V8.15674Z" fill="#49568E"/>
<path id="Vector_66" d="M4.89985 7.24731H4.01001V8.13715H4.89985V7.24731Z" fill="#8B9CD1"/>
<path id="Vector_67" d="M4.89985 6.35791H4.01001V7.24775H4.89985V6.35791Z" fill="#C7D5F2"/>
<path id="Vector_68" d="M4.89985 5.46802H4.01001V6.35785H4.89985V5.46802Z" fill="#C7D5F2"/>
<path id="Vector_69" d="M4.89985 4.55859H4.01001V5.44842H4.89985V4.55859Z" fill="#C7D5F2"/>
<path id="Vector_70" d="M4.89985 3.66919H4.01001V4.55903H4.89985V3.66919Z" fill="#8B9CD1"/>
<path id="Vector_71" d="M4.89985 2.77905H4.01001V3.66889H4.89985V2.77905Z" fill="#8B9CD1"/>
<path id="Vector_72" d="M4.89985 1.87012H4.01001V2.75995H4.89985V1.87012Z" fill="#774017"/>
<path id="Vector_73" d="M4.89985 0.980225H4.01001V1.87005H4.89985V0.980225Z" fill="#9B5E2C"/>
<path id="Vector_74" d="M4.89985 0.090332H4.01001V0.980168H4.89985V0.090332Z" fill="#9B5E2C"/>
<path id="Vector_75" d="M3.99066 22.51H3.10083V23.3998H3.99066V22.51Z" fill="#774017"/>
<path id="Vector_76" d="M3.99066 21.6011H3.10083V22.4909H3.99066V21.6011Z" fill="#9B5E2C"/>
<path id="Vector_77" d="M3.99066 20.7112H3.10083V21.601H3.99066V20.7112Z" fill="#9B5E2C"/>
<path id="Vector_78" d="M3.99066 19.802H3.10083V20.6918H3.99066V19.802Z" fill="#C7D5F2"/>
<path id="Vector_79" d="M3.99066 18.9121H3.10083V19.8019H3.99066V18.9121Z" fill="#C7D5F2"/>
<path id="Vector_80" d="M3.99066 18.0222H3.10083V18.9121H3.99066V18.0222Z" fill="#C7D5F2"/>
<path id="Vector_81" d="M3.99066 17.1133H3.10083V18.0031H3.99066V17.1133Z" fill="#C7D5F2"/>
<path id="Vector_82" d="M3.99066 16.2229H3.10083V17.1127H3.99066V16.2229Z" fill="#C7D5F2"/>
<path id="Vector_83" d="M3.99066 15.3335H3.10083V16.2233H3.99066V15.3335Z" fill="#49568E"/>
<path id="Vector_84" d="M3.99066 14.4243H3.10083V15.3141H3.99066V14.4243Z" fill="#49568E"/>
<path id="Vector_85" d="M3.99066 8.15674H3.10083V9.04657H3.99066V8.15674Z" fill="#49568E"/>
<path id="Vector_86" d="M3.99066 7.24731H3.10083V8.13715H3.99066V7.24731Z" fill="#49568E"/>
<path id="Vector_87" d="M3.99066 6.35791H3.10083V7.24775H3.99066V6.35791Z" fill="#C7D5F2"/>
<path id="Vector_88" d="M3.99066 5.46802H3.10083V6.35785H3.99066V5.46802Z" fill="#C7D5F2"/>
<path id="Vector_89" d="M3.99066 4.55859H3.10083V5.44842H3.99066V4.55859Z" fill="#C7D5F2"/>
<path id="Vector_90" d="M3.99066 3.66919H3.10083V4.55903H3.99066V3.66919Z" fill="#8B9CD1"/>
<path id="Vector_91" d="M3.99066 2.77905H3.10083V3.66889H3.99066V2.77905Z" fill="#8B9CD1"/>
<path id="Vector_92" d="M3.99066 1.87012H3.10083V2.75995H3.99066V1.87012Z" fill="#774017"/>
<path id="Vector_93" d="M3.99066 0.980225H3.10083V1.87005H3.99066V0.980225Z" fill="#9B5E2C"/>
<path id="Vector_94" d="M3.99066 0.090332H3.10083V0.980168H3.99066V0.090332Z" fill="#9B5E2C"/>
<path id="Vector_95" d="M3.10102 22.51H2.21118V23.3998H3.10102V22.51Z" fill="#774017"/>
<path id="Vector_96" d="M3.10102 21.6011H2.21118V22.4909H3.10102V21.6011Z" fill="#9B5E2C"/>
<path id="Vector_97" d="M3.10102 20.7112H2.21118V21.601H3.10102V20.7112Z" fill="#9B5E2C"/>
<path id="Vector_98" d="M3.10102 19.802H2.21118V20.6918H3.10102V19.802Z" fill="#49568E"/>
<path id="Vector_99" d="M3.10102 18.9121H2.21118V19.8019H3.10102V18.9121Z" fill="#49568E"/>
<path id="Vector_100" d="M3.10102 18.0222H2.21118V18.9121H3.10102V18.0222Z" fill="#49568E"/>
<path id="Vector_101" d="M3.10102 17.1133H2.21118V18.0031H3.10102V17.1133Z" fill="#49568E"/>
<path id="Vector_102" d="M3.10102 16.2229H2.21118V17.1127H3.10102V16.2229Z" fill="#49568E"/>
<path id="Vector_103" d="M3.10102 6.35791H2.21118V7.24775H3.10102V6.35791Z" fill="#49568E"/>
<path id="Vector_104" d="M3.10102 5.46802H2.21118V6.35785H3.10102V5.46802Z" fill="#49568E"/>
<path id="Vector_105" d="M3.10102 4.55859H2.21118V5.44842H3.10102V4.55859Z" fill="#49568E"/>
<path id="Vector_106" d="M3.10102 3.66919H2.21118V4.55903H3.10102V3.66919Z" fill="#49568E"/>
<path id="Vector_107" d="M3.10102 2.77905H2.21118V3.66889H3.10102V2.77905Z" fill="#49568E"/>
<path id="Vector_108" d="M3.10102 1.87012H2.21118V2.75995H3.10102V1.87012Z" fill="#774017"/>
<path id="Vector_109" d="M3.10102 0.980225H2.21118V1.87005H3.10102V0.980225Z" fill="#9B5E2C"/>
<path id="Vector_110" d="M3.10102 0.090332H2.21118V0.980168H3.10102V0.090332Z" fill="#9B5E2C"/>
<path id="Vector_111" d="M2.21112 22.51H1.32129V23.3998H2.21112V22.51Z" fill="#774017"/>
<path id="Vector_112" d="M2.21112 21.6011H1.32129V22.4909H2.21112V21.6011Z" fill="#9B5E2C"/>
<path id="Vector_113" d="M2.21112 20.7112H1.32129V21.601H2.21112V20.7112Z" fill="#9B5E2C"/>
<path id="Vector_114" d="M2.21112 1.87012H1.32129V2.75995H2.21112V1.87012Z" fill="#774017"/>
<path id="Vector_115" d="M2.21112 0.980225H1.32129V1.87005H2.21112V0.980225Z" fill="#9B5E2C"/>
<path id="Vector_116" d="M2.21112 0.090332H1.32129V0.980168H2.21112V0.090332Z" fill="#9B5E2C"/>
<path id="Vector_117" d="M7.58881 22.51H6.69897V23.3998H7.58881V22.51Z" fill="#933725"/>
<path id="Vector_118" d="M7.58881 21.6011H6.69897V22.4909H7.58881V21.6011Z" fill="#B2683F"/>
<path id="Vector_119" d="M7.58881 20.7112H6.69897V21.601H7.58881V20.7112Z" fill="#B2683F"/>
<path id="Vector_120" d="M7.58881 19.802H6.69897V20.6918H7.58881V19.802Z" fill="#C18C52"/>
<path id="Vector_121" d="M7.58881 18.9121H6.69897V19.8019H7.58881V18.9121Z" fill="#C18C52"/>
<path id="Vector_122" d="M7.58881 18.0222H6.69897V18.9121H7.58881V18.0222Z" fill="#C18C52"/>
<path id="Vector_123" d="M7.58881 17.1133H6.69897V18.0031H7.58881V17.1133Z" fill="#C18C52"/>
<path id="Vector_124" d="M7.58881 16.2229H6.69897V17.1127H7.58881V16.2229Z" fill="#C18C52"/>
<path id="Vector_125" d="M7.58881 15.3335H6.69897V16.2233H7.58881V15.3335Z" fill="#8B9CD1"/>
<path id="Vector_126" d="M7.58881 14.4243H6.69897V15.3141H7.58881V14.4243Z" fill="#C7D5F2"/>
<path id="Vector_127" d="M7.58881 13.5344H6.69897V14.4243H7.58881V13.5344Z" fill="#C7D5F2"/>
<path id="Vector_128" d="M7.58881 12.6445H6.69897V13.5344H7.58881V12.6445Z" fill="#49568E"/>
<path id="Vector_129" d="M7.58881 11.7356H6.69897V12.6254H7.58881V11.7356Z" fill="#49568E"/>
<path id="Vector_130" d="M7.58881 10.8452H6.69897V11.735H7.58881V10.8452Z" fill="#49568E"/>
<path id="Vector_131" d="M7.58881 9.93652H6.69897V10.8264H7.58881V9.93652Z" fill="#8B9CD1"/>
<path id="Vector_132" d="M7.58881 9.04663H6.69897V9.93647H7.58881V9.04663Z" fill="#8B9CD1"/>
<path id="Vector_133" d="M7.58881 8.15674H6.69897V9.04657H7.58881V8.15674Z" fill="#E5B57C"/>
<path id="Vector_134" d="M7.58881 7.24731H6.69897V8.13715H7.58881V7.24731Z" fill="#E5B57C"/>
<path id="Vector_135" d="M7.58881 6.35791H6.69897V7.24775H7.58881V6.35791Z" fill="#8B9CD1"/>
<path id="Vector_136" d="M7.58881 5.46802H6.69897V6.35785H7.58881V5.46802Z" fill="#8B9CD1"/>
<path id="Vector_137" d="M7.58881 4.55859H6.69897V5.44842H7.58881V4.55859Z" fill="#8B9CD1"/>
<path id="Vector_138" d="M7.58881 3.66919H6.69897V4.55903H7.58881V3.66919Z" fill="#8B9CD1"/>
<path id="Vector_139" d="M7.58881 2.77905H6.69897V3.66889H7.58881V2.77905Z" fill="#8B9CD1"/>
<path id="Vector_140" d="M7.58881 1.87012H6.69897V2.75995H7.58881V1.87012Z" fill="#774017"/>
<path id="Vector_141" d="M7.58881 0.980225H6.69897V1.87005H7.58881V0.980225Z" fill="#9B5E2C"/>
<path id="Vector_142" d="M7.58881 0.090332H6.69897V0.980168H7.58881V0.090332Z" fill="#9B5E2C"/>
<path id="Vector_143" d="M8.4787 22.51H7.58887V23.3998H8.4787V22.51Z" fill="#933725"/>
<path id="Vector_144" d="M8.4787 21.6011H7.58887V22.4909H8.4787V21.6011Z" fill="#B2683F"/>
<path id="Vector_145" d="M8.4787 20.7112H7.58887V21.601H8.4787V20.7112Z" fill="#DB8F5D"/>
<path id="Vector_146" d="M8.4787 19.802H7.58887V20.6918H8.4787V19.802Z" fill="#C18C52"/>
<path id="Vector_147" d="M8.4787 18.9121H7.58887V19.8019H8.4787V18.9121Z" fill="#C18C52"/>
<path id="Vector_148" d="M8.4787 18.0222H7.58887V18.9121H8.4787V18.0222Z" fill="#C18C52"/>
<path id="Vector_149" d="M8.4787 17.1133H7.58887V18.0031H8.4787V17.1133Z" fill="#C18C52"/>
<path id="Vector_150" d="M8.4787 16.2229H7.58887V17.1127H8.4787V16.2229Z" fill="#C18C52"/>
<path id="Vector_151" d="M8.4787 15.3335H7.58887V16.2233H8.4787V15.3335Z" fill="#C18C52"/>
<path id="Vector_152" d="M8.4787 14.4243H7.58887V15.3141H8.4787V14.4243Z" fill="#C18C52"/>
<path id="Vector_153" d="M8.4787 13.5344H7.58887V14.4243H8.4787V13.5344Z" fill="#8B9CD1"/>
<path id="Vector_154" d="M8.4787 12.6445H7.58887V13.5344H8.4787V12.6445Z" fill="#8B9CD1"/>
<path id="Vector_155" d="M8.4787 11.7356H7.58887V12.6254H8.4787V11.7356Z" fill="#8B9CD1"/>
<path id="Vector_156" d="M8.4787 10.8452H7.58887V11.735H8.4787V10.8452Z" fill="#8B9CD1"/>
<path id="Vector_157" d="M8.4787 9.93652H7.58887V10.8264H8.4787V9.93652Z" fill="#8B9CD1"/>
<path id="Vector_158" d="M8.4787 9.04663H7.58887V9.93647H8.4787V9.04663Z" fill="#E5B57C"/>
<path id="Vector_159" d="M8.4787 8.15674H7.58887V9.04657H8.4787V8.15674Z" fill="#E5B57C"/>
<path id="Vector_160" d="M8.4787 7.24731H7.58887V8.13715H8.4787V7.24731Z" fill="#E5B57C"/>
<path id="Vector_161" d="M8.4787 6.35791H7.58887V7.24775H8.4787V6.35791Z" fill="#8B9CD1"/>
<path id="Vector_162" d="M8.4787 5.46802H7.58887V6.35785H8.4787V5.46802Z" fill="#8B9CD1"/>
<path id="Vector_163" d="M8.4787 4.55859H7.58887V5.44842H8.4787V4.55859Z" fill="#8B9CD1"/>
<path id="Vector_164" d="M8.4787 3.66919H7.58887V4.55903H8.4787V3.66919Z" fill="#8B9CD1"/>
<path id="Vector_165" d="M8.4787 2.77905H7.58887V3.66889H8.4787V2.77905Z" fill="#8B9CD1"/>
<path id="Vector_166" d="M8.4787 1.87012H7.58887V2.75995H8.4787V1.87012Z" fill="#933725"/>
<path id="Vector_167" d="M8.4787 0.980225H7.58887V1.87005H8.4787V0.980225Z" fill="#B2683F"/>
<path id="Vector_168" d="M8.4787 0.090332H7.58887V0.980168H8.4787V0.090332Z" fill="#B2683F"/>
<path id="Vector_169" d="M9.38788 22.51H8.49805V23.3998H9.38788V22.51Z" fill="#933725"/>
<path id="Vector_170" d="M9.38788 21.6011H8.49805V22.4909H9.38788V21.6011Z" fill="#B2683F"/>
<path id="Vector_171" d="M9.38788 20.7112H8.49805V21.601H9.38788V20.7112Z" fill="#DB8F5D"/>
<path id="Vector_172" d="M9.38788 19.802H8.49805V20.6918H9.38788V19.802Z" fill="#C18C52"/>
<path id="Vector_173" d="M9.38788 18.9121H8.49805V19.8019H9.38788V18.9121Z" fill="#C18C52"/>
<path id="Vector_174" d="M9.38788 18.0222H8.49805V18.9121H9.38788V18.0222Z" fill="#C18C52"/>
<path id="Vector_175" d="M9.38788 17.1133H8.49805V18.0031H9.38788V17.1133Z" fill="#C18C52"/>
<path id="Vector_176" d="M9.38788 16.2229H8.49805V17.1127H9.38788V16.2229Z" fill="#C18C52"/>
<path id="Vector_177" d="M9.38788 15.3335H8.49805V16.2233H9.38788V15.3335Z" fill="#C18C52"/>
<path id="Vector_178" d="M9.38788 14.4243H8.49805V15.3141H9.38788V14.4243Z" fill="#C18C52"/>
<path id="Vector_179" d="M9.38788 13.5344H8.49805V14.4243H9.38788V13.5344Z" fill="#8B9CD1"/>
<path id="Vector_180" d="M9.38788 12.6445H8.49805V13.5344H9.38788V12.6445Z" fill="#8B9CD1"/>
<path id="Vector_181" d="M9.38788 11.7356H8.49805V12.6254H9.38788V11.7356Z" fill="#8B9CD1"/>
<path id="Vector_182" d="M9.38788 10.8452H8.49805V11.735H9.38788V10.8452Z" fill="#8B9CD1"/>
<path id="Vector_183" d="M9.38788 9.93652H8.49805V10.8264H9.38788V9.93652Z" fill="#C18C52"/>
<path id="Vector_184" d="M9.38788 9.04663H8.49805V9.93647H9.38788V9.04663Z" fill="#E5B57C"/>
<path id="Vector_185" d="M9.38788 8.15674H8.49805V9.04657H9.38788V8.15674Z" fill="#E5B57C"/>
<path id="Vector_186" d="M9.38788 7.24731H8.49805V8.13715H9.38788V7.24731Z" fill="#E5B57C"/>
<path id="Vector_187" d="M9.38788 6.35791H8.49805V7.24775H9.38788V6.35791Z" fill="#8B9CD1"/>
<path id="Vector_188" d="M9.38788 5.46802H8.49805V6.35785H9.38788V5.46802Z" fill="#8B9CD1"/>
<path id="Vector_189" d="M9.38788 4.55859H8.49805V5.44842H9.38788V4.55859Z" fill="#8B9CD1"/>
<path id="Vector_190" d="M9.38788 3.66919H8.49805V4.55903H9.38788V3.66919Z" fill="#8B9CD1"/>
<path id="Vector_191" d="M9.38788 2.77905H8.49805V3.66889H9.38788V2.77905Z" fill="#8B9CD1"/>
<path id="Vector_192" d="M9.38788 1.87012H8.49805V2.75995H9.38788V1.87012Z" fill="#933725"/>
<path id="Vector_193" d="M9.38788 0.980225H8.49805V1.87005H9.38788V0.980225Z" fill="#B2683F"/>
<path id="Vector_194" d="M9.38788 0.090332H8.49805V0.980168H9.38788V0.090332Z" fill="#DB8F5D"/>
<path id="Vector_195" d="M10.2778 22.51H9.38794V23.3998H10.2778V22.51Z" fill="#933725"/>
<path id="Vector_196" d="M10.2778 21.6011H9.38794V22.4909H10.2778V21.6011Z" fill="#B2683F"/>
<path id="Vector_197" d="M10.2778 20.7112H9.38794V21.601H10.2778V20.7112Z" fill="#DB8F5D"/>
<path id="Vector_198" d="M10.2778 19.802H9.38794V20.6918H10.2778V19.802Z" fill="#E5B57C"/>
<path id="Vector_199" d="M10.2778 18.9121H9.38794V19.8019H10.2778V18.9121Z" fill="#E5B57C"/>
<path id="Vector_200" d="M10.2778 18.0222H9.38794V18.9121H10.2778V18.0222Z" fill="#E5B57C"/>
<path id="Vector_201" d="M10.2778 17.1133H9.38794V18.0031H10.2778V17.1133Z" fill="#E5B57C"/>
<path id="Vector_202" d="M10.2778 16.2229H9.38794V17.1127H10.2778V16.2229Z" fill="#E5B57C"/>
<path id="Vector_203" d="M10.2778 15.3335H9.38794V16.2233H10.2778V15.3335Z" fill="#E5B57C"/>
<path id="Vector_204" d="M10.2778 14.4243H9.38794V15.3141H10.2778V14.4243Z" fill="#C18C52"/>
<path id="Vector_205" d="M10.2778 13.5344H9.38794V14.4243H10.2778V13.5344Z" fill="#8B9CD1"/>
<path id="Vector_206" d="M10.2778 12.6445H9.38794V13.5344H10.2778V12.6445Z" fill="#8B9CD1"/>
<path id="Vector_207" d="M10.2778 11.7356H9.38794V12.6254H10.2778V11.7356Z" fill="#8B9CD1"/>
<path id="Vector_208" d="M10.2778 10.8452H9.38794V11.735H10.2778V10.8452Z" fill="#C18C52"/>
<path id="Vector_209" d="M10.2778 9.93652H9.38794V10.8264H10.2778V9.93652Z" fill="#C18C52"/>
<path id="Vector_210" d="M10.2778 9.04663H9.38794V9.93647H10.2778V9.04663Z" fill="#E5B57C"/>
<path id="Vector_211" d="M10.2778 8.15674H9.38794V9.04657H10.2778V8.15674Z" fill="#E5B57C"/>
<path id="Vector_212" d="M10.2778 7.24731H9.38794V8.13715H10.2778V7.24731Z" fill="#E5B57C"/>
<path id="Vector_213" d="M10.2778 6.35791H9.38794V7.24775H10.2778V6.35791Z" fill="#AABBE8"/>
<path id="Vector_214" d="M10.2778 5.46802H9.38794V6.35785H10.2778V5.46802Z" fill="#AABBE8"/>
<path id="Vector_215" d="M10.2778 4.55859H9.38794V5.44842H10.2778V4.55859Z" fill="#AABBE8"/>
<path id="Vector_216" d="M10.2778 3.66919H9.38794V4.55903H10.2778V3.66919Z" fill="#8B9CD1"/>
<path id="Vector_217" d="M10.2778 2.77905H9.38794V3.66889H10.2778V2.77905Z" fill="#8B9CD1"/>
<path id="Vector_218" d="M10.2778 1.87012H9.38794V2.75995H10.2778V1.87012Z" fill="#933725"/>
<path id="Vector_219" d="M10.2778 0.980225H9.38794V1.87005H10.2778V0.980225Z" fill="#B2683F"/>
<path id="Vector_220" d="M10.2778 0.090332H9.38794V0.980168H10.2778V0.090332Z" fill="#DB8F5D"/>
<path id="Vector_221" d="M11.1674 22.51H10.2776V23.3998H11.1674V22.51Z" fill="#933725"/>
<path id="Vector_222" d="M11.1674 21.6011H10.2776V22.4909H11.1674V21.6011Z" fill="#B2683F"/>
<path id="Vector_223" d="M11.1674 20.7112H10.2776V21.601H11.1674V20.7112Z" fill="#DB8F5D"/>
<path id="Vector_224" d="M11.1674 19.802H10.2776V20.6918H11.1674V19.802Z" fill="#E5B57C"/>
<path id="Vector_225" d="M11.1674 18.9121H10.2776V19.8019H11.1674V18.9121Z" fill="#E5B57C"/>
<path id="Vector_226" d="M11.1674 18.0222H10.2776V18.9121H11.1674V18.0222Z" fill="#E5B57C"/>
<path id="Vector_227" d="M11.1674 17.1133H10.2776V18.0031H11.1674V17.1133Z" fill="#E5B57C"/>
<path id="Vector_228" d="M11.1674 16.2229H10.2776V17.1127H11.1674V16.2229Z" fill="#E5B57C"/>
<path id="Vector_229" d="M11.1674 15.3335H10.2776V16.2233H11.1674V15.3335Z" fill="#E5B57C"/>
<path id="Vector_230" d="M11.1674 14.4243H10.2776V15.3141H11.1674V14.4243Z" fill="#C18C52"/>
<path id="Vector_231" d="M11.1674 13.5344H10.2776V14.4243H11.1674V13.5344Z" fill="#C18C52"/>
<path id="Vector_232" d="M11.1674 12.6445H10.2776V13.5344H11.1674V12.6445Z" fill="#C18C52"/>
<path id="Vector_233" d="M11.1674 11.7356H10.2776V12.6254H11.1674V11.7356Z" fill="#C18C52"/>
<path id="Vector_234" d="M11.1674 10.8452H10.2776V11.735H11.1674V10.8452Z" fill="#E5B57C"/>
<path id="Vector_235" d="M11.1674 9.93652H10.2776V10.8264H11.1674V9.93652Z" fill="#E5B57C"/>
<path id="Vector_236" d="M11.1674 9.04663H10.2776V9.93647H11.1674V9.04663Z" fill="#E5B57C"/>
<path id="Vector_237" d="M11.1674 8.15674H10.2776V9.04657H11.1674V8.15674Z" fill="#E5B57C"/>
<path id="Vector_238" d="M11.1674 7.24731H10.2776V8.13715H11.1674V7.24731Z" fill="#E5B57C"/>
<path id="Vector_239" d="M11.1674 6.35791H10.2776V7.24775H11.1674V6.35791Z" fill="#AABBE8"/>
<path id="Vector_240" d="M11.1674 5.46802H10.2776V6.35785H11.1674V5.46802Z" fill="#AABBE8"/>
<path id="Vector_241" d="M11.1674 4.55859H10.2776V5.44842H11.1674V4.55859Z" fill="#AABBE8"/>
<path id="Vector_242" d="M11.1674 3.66919H10.2776V4.55903H11.1674V3.66919Z" fill="#8B9CD1"/>
<path id="Vector_243" d="M11.1674 2.77905H10.2776V3.66889H11.1674V2.77905Z" fill="#8B9CD1"/>
<path id="Vector_244" d="M11.1674 1.87012H10.2776V2.75995H11.1674V1.87012Z" fill="#933725"/>
<path id="Vector_245" d="M11.1674 0.980225H10.2776V1.87005H11.1674V0.980225Z" fill="#B2683F"/>
<path id="Vector_246" d="M11.1674 0.090332H10.2776V0.980168H11.1674V0.090332Z" fill="#DB8F5D"/>
<path id="Vector_247" d="M12.0766 22.51H11.1868V23.3998H12.0766V22.51Z" fill="#933725"/>
<path id="Vector_248" d="M12.0766 21.6011H11.1868V22.4909H12.0766V21.6011Z" fill="#B2683F"/>
<path id="Vector_249" d="M12.0766 20.7112H11.1868V21.601H12.0766V20.7112Z" fill="#DB8F5D"/>
<path id="Vector_250" d="M12.0766 19.802H11.1868V20.6918H12.0766V19.802Z" fill="#FFD4A9"/>
<path id="Vector_251" d="M12.0766 18.9121H11.1868V19.8019H12.0766V18.9121Z" fill="#FFD4A9"/>
<path id="Vector_252" d="M12.0766 18.0222H11.1868V18.9121H12.0766V18.0222Z" fill="#FFD4A9"/>
<path id="Vector_253" d="M12.0766 17.1133H11.1868V18.0031H12.0766V17.1133Z" fill="#FFD4A9"/>
<path id="Vector_254" d="M12.0766 16.2229H11.1868V17.1127H12.0766V16.2229Z" fill="#FFD4A9"/>
<path id="Vector_255" d="M12.0766 15.3335H11.1868V16.2233H12.0766V15.3335Z" fill="#FFD4A9"/>
<path id="Vector_256" d="M12.0766 14.4243H11.1868V15.3141H12.0766V14.4243Z" fill="#FFD4A9"/>
<path id="Vector_257" d="M12.0766 13.5344H11.1868V14.4243H12.0766V13.5344Z" fill="#FFD4A9"/>
<path id="Vector_258" d="M12.0766 12.6445H11.1868V13.5344H12.0766V12.6445Z" fill="#FFD4A9"/>
<path id="Vector_259" d="M12.0766 11.7356H11.1868V12.6254H12.0766V11.7356Z" fill="#FFD4A9"/>
<path id="Vector_260" d="M12.0766 10.8452H11.1868V11.735H12.0766V10.8452Z" fill="#FFD4A9"/>
<path id="Vector_261" d="M12.0766 9.93652H11.1868V10.8264H12.0766V9.93652Z" fill="#FFD4A9"/>
<path id="Vector_262" d="M12.0766 9.04663H11.1868V9.93647H12.0766V9.04663Z" fill="#FFD4A9"/>
<path id="Vector_263" d="M12.0766 8.15674H11.1868V9.04657H12.0766V8.15674Z" fill="#FFD4A9"/>
<path id="Vector_264" d="M12.0766 7.24731H11.1868V8.13715H12.0766V7.24731Z" fill="#FFD4A9"/>
<path id="Vector_265" d="M12.0766 6.35791H11.1868V7.24775H12.0766V6.35791Z" fill="#AABBE8"/>
<path id="Vector_266" d="M12.0766 5.46802H11.1868V6.35785H12.0766V5.46802Z" fill="#AABBE8"/>
<path id="Vector_267" d="M12.0766 4.55859H11.1868V5.44842H12.0766V4.55859Z" fill="#AABBE8"/>
<path id="Vector_268" d="M12.0766 3.66919H11.1868V4.55903H12.0766V3.66919Z" fill="#8B9CD1"/>
<path id="Vector_269" d="M12.0766 2.77905H11.1868V3.66889H12.0766V2.77905Z" fill="#8B9CD1"/>
<path id="Vector_270" d="M12.0766 1.87012H11.1868V2.75995H12.0766V1.87012Z" fill="#933725"/>
<path id="Vector_271" d="M12.0766 0.980225H11.1868V1.87005H12.0766V0.980225Z" fill="#B2683F"/>
<path id="Vector_272" d="M12.0766 0.090332H11.1868V0.980168H12.0766V0.090332Z" fill="#DB8F5D"/>
<path id="Vector_273" d="M12.9665 22.51H12.0767V23.3998H12.9665V22.51Z" fill="#933725"/>
<path id="Vector_274" d="M12.9665 21.6011H12.0767V22.4909H12.9665V21.6011Z" fill="#B2683F"/>
<path id="Vector_275" d="M12.9665 20.7112H12.0767V21.601H12.9665V20.7112Z" fill="#DB8F5D"/>
<path id="Vector_276" d="M12.9665 19.802H12.0767V20.6918H12.9665V19.802Z" fill="#FFD4A9"/>
<path id="Vector_277" d="M12.9665 18.9121H12.0767V19.8019H12.9665V18.9121Z" fill="#FFD4A9"/>
<path id="Vector_278" d="M12.9665 18.0222H12.0767V18.9121H12.9665V18.0222Z" fill="#E5B57C"/>
<path id="Vector_279" d="M12.9665 17.1133H12.0767V18.0031H12.9665V17.1133Z" fill="#E5B57C"/>
<path id="Vector_280" d="M12.9665 16.2229H12.0767V17.1127H12.9665V16.2229Z" fill="#E5B57C"/>
<path id="Vector_281" d="M12.9665 15.3335H12.0767V16.2233H12.9665V15.3335Z" fill="#E5B57C"/>
<path id="Vector_282" d="M12.9665 14.4243H12.0767V15.3141H12.9665V14.4243Z" fill="#E5B57C"/>
<path id="Vector_283" d="M12.9665 13.5344H12.0767V14.4243H12.9665V13.5344Z" fill="#AABBE8"/>
<path id="Vector_284" d="M12.9665 12.6445H12.0767V13.5344H12.9665V12.6445Z" fill="#8B9CD1"/>
<path id="Vector_285" d="M12.9665 11.7356H12.0767V12.6254H12.9665V11.7356Z" fill="#8B9CD1"/>
<path id="Vector_286" d="M12.9665 10.8452H12.0767V11.735H12.9665V10.8452Z" fill="#E5B57C"/>
<path id="Vector_287" d="M12.9665 9.93652H12.0767V10.8264H12.9665V9.93652Z" fill="#E5B57C"/>
<path id="Vector_288" d="M12.9665 9.04663H12.0767V9.93647H12.9665V9.04663Z" fill="#E5B57C"/>
<path id="Vector_289" d="M12.9665 8.15674H12.0767V9.04657H12.9665V8.15674Z" fill="#E5B57C"/>
<path id="Vector_290" d="M12.9665 7.24731H12.0767V8.13715H12.9665V7.24731Z" fill="#E5B57C"/>
<path id="Vector_291" d="M12.9665 6.35791H12.0767V7.24775H12.9665V6.35791Z" fill="#AABBE8"/>
<path id="Vector_292" d="M12.9665 5.46802H12.0767V6.35785H12.9665V5.46802Z" fill="#AABBE8"/>
<path id="Vector_293" d="M12.9665 4.55859H12.0767V5.44842H12.9665V4.55859Z" fill="#AABBE8"/>
<path id="Vector_294" d="M12.9665 3.66919H12.0767V4.55903H12.9665V3.66919Z" fill="#8B9CD1"/>
<path id="Vector_295" d="M12.9665 2.77905H12.0767V3.66889H12.9665V2.77905Z" fill="#8B9CD1"/>
<path id="Vector_296" d="M12.9665 1.87012H12.0767V2.75995H12.9665V1.87012Z" fill="#933725"/>
<path id="Vector_297" d="M12.9665 0.980225H12.0767V1.87005H12.9665V0.980225Z" fill="#B2683F"/>
<path id="Vector_298" d="M12.9665 0.090332H12.0767V0.980168H12.9665V0.090332Z" fill="#DB8F5D"/>
<path id="Vector_299" d="M13.8564 22.51H12.9666V23.3998H13.8564V22.51Z" fill="#933725"/>
<path id="Vector_300" d="M13.8564 21.6011H12.9666V22.4909H13.8564V21.6011Z" fill="#B2683F"/>
<path id="Vector_301" d="M13.8564 20.7112H12.9666V21.601H13.8564V20.7112Z" fill="#DB8F5D"/>
<path id="Vector_302" d="M13.8564 19.802H12.9666V20.6918H13.8564V19.802Z" fill="#E5B57C"/>
<path id="Vector_303" d="M13.8564 18.9121H12.9666V19.8019H13.8564V18.9121Z" fill="#E5B57C"/>
<path id="Vector_304" d="M13.8564 18.0222H12.9666V18.9121H13.8564V18.0222Z" fill="#E5B57C"/>
<path id="Vector_305" d="M13.8564 17.1133H12.9666V18.0031H13.8564V17.1133Z" fill="#E5B57C"/>
<path id="Vector_306" d="M13.8564 16.2229H12.9666V17.1127H13.8564V16.2229Z" fill="#E5B57C"/>
<path id="Vector_307" d="M13.8564 15.3335H12.9666V16.2233H13.8564V15.3335Z" fill="#E5B57C"/>
<path id="Vector_308" d="M13.8564 14.4243H12.9666V15.3141H13.8564V14.4243Z" fill="#E5B57C"/>
<path id="Vector_309" d="M13.8564 13.5344H12.9666V14.4243H13.8564V13.5344Z" fill="#AABBE8"/>
<path id="Vector_310" d="M13.8564 12.6445H12.9666V13.5344H13.8564V12.6445Z" fill="#8B9CD1"/>
<path id="Vector_311" d="M13.8564 11.7356H12.9666V12.6254H13.8564V11.7356Z" fill="#8B9CD1"/>
<path id="Vector_312" d="M13.8564 10.8452H12.9666V11.735H13.8564V10.8452Z" fill="#C18C52"/>
<path id="Vector_313" d="M13.8564 9.93652H12.9666V10.8264H13.8564V9.93652Z" fill="#C18C52"/>
<path id="Vector_314" d="M13.8564 9.04663H12.9666V9.93647H13.8564V9.04663Z" fill="#E5B57C"/>
<path id="Vector_315" d="M13.8564 8.15674H12.9666V9.04657H13.8564V8.15674Z" fill="#E5B57C"/>
<path id="Vector_316" d="M13.8564 7.24731H12.9666V8.13715H13.8564V7.24731Z" fill="#E5B57C"/>
<path id="Vector_317" d="M13.8564 6.35791H12.9666V7.24775H13.8564V6.35791Z" fill="#AABBE8"/>
<path id="Vector_318" d="M13.8564 5.46802H12.9666V6.35785H13.8564V5.46802Z" fill="#AABBE8"/>
<path id="Vector_319" d="M13.8564 4.55859H12.9666V5.44842H13.8564V4.55859Z" fill="#AABBE8"/>
<path id="Vector_320" d="M13.8564 3.66919H12.9666V4.55903H13.8564V3.66919Z" fill="#8B9CD1"/>
<path id="Vector_321" d="M13.8564 2.77905H12.9666V3.66889H13.8564V2.77905Z" fill="#8B9CD1"/>
<path id="Vector_322" d="M13.8564 1.87012H12.9666V2.75995H13.8564V1.87012Z" fill="#933725"/>
<path id="Vector_323" d="M13.8564 0.980225H12.9666V1.87005H13.8564V0.980225Z" fill="#B2683F"/>
<path id="Vector_324" d="M13.8564 0.090332H12.9666V0.980168H13.8564V0.090332Z" fill="#DB8F5D"/>
<path id="Vector_325" d="M14.7656 22.51H13.8757V23.3998H14.7656V22.51Z" fill="#933725"/>
<path id="Vector_326" d="M14.7656 21.6011H13.8757V22.4909H14.7656V21.6011Z" fill="#B2683F"/>
<path id="Vector_327" d="M14.7656 20.7112H13.8757V21.601H14.7656V20.7112Z" fill="#DB8F5D"/>
<path id="Vector_328" d="M14.7656 19.802H13.8757V20.6918H14.7656V19.802Z" fill="#E5B57C"/>
<path id="Vector_329" d="M14.7656 18.9121H13.8757V19.8019H14.7656V18.9121Z" fill="#E5B57C"/>
<path id="Vector_330" d="M14.7656 18.0222H13.8757V18.9121H14.7656V18.0222Z" fill="#FFD4A9"/>
<path id="Vector_331" d="M14.7656 17.1133H13.8757V18.0031H14.7656V17.1133Z" fill="#FFD4A9"/>
<path id="Vector_332" d="M14.7656 16.2229H13.8757V17.1127H14.7656V16.2229Z" fill="#FFD4A9"/>
<path id="Vector_333" d="M14.7656 15.3335H13.8757V16.2233H14.7656V15.3335Z" fill="#FFD4A9"/>
<path id="Vector_334" d="M14.7656 14.4243H13.8757V15.3141H14.7656V14.4243Z" fill="#AABBE8"/>
<path id="Vector_335" d="M14.7656 13.5344H13.8757V14.4243H14.7656V13.5344Z" fill="#8B9CD1"/>
<path id="Vector_336" d="M14.7656 12.6445H13.8757V13.5344H14.7656V12.6445Z" fill="#8B9CD1"/>
<path id="Vector_337" d="M14.7656 11.7356H13.8757V12.6254H14.7656V11.7356Z" fill="#8B9CD1"/>
<path id="Vector_338" d="M14.7656 10.8452H13.8757V11.735H14.7656V10.8452Z" fill="#8B9CD1"/>
<path id="Vector_339" d="M14.7656 9.93652H13.8757V10.8264H14.7656V9.93652Z" fill="#C18C52"/>
<path id="Vector_340" d="M14.7656 9.04663H13.8757V9.93647H14.7656V9.04663Z" fill="#FFD4A9"/>
<path id="Vector_341" d="M14.7656 8.15674H13.8757V9.04657H14.7656V8.15674Z" fill="#FFD4A9"/>
<path id="Vector_342" d="M14.7656 7.24731H13.8757V8.13715H14.7656V7.24731Z" fill="#FFD4A9"/>
<path id="Vector_343" d="M14.7656 6.35791H13.8757V7.24775H14.7656V6.35791Z" fill="#C7D5F2"/>
<path id="Vector_344" d="M14.7656 5.46802H13.8757V6.35785H14.7656V5.46802Z" fill="#C7D5F2"/>
<path id="Vector_345" d="M14.7656 4.55859H13.8757V5.44842H14.7656V4.55859Z" fill="#C7D5F2"/>
<path id="Vector_346" d="M14.7656 3.66919H13.8757V4.55903H14.7656V3.66919Z" fill="#8B9CD1"/>
<path id="Vector_347" d="M14.7656 2.77905H13.8757V3.66889H14.7656V2.77905Z" fill="#8B9CD1"/>
<path id="Vector_348" d="M14.7656 1.87012H13.8757V2.75995H14.7656V1.87012Z" fill="#933725"/>
<path id="Vector_349" d="M14.7656 0.980225H13.8757V1.87005H14.7656V0.980225Z" fill="#B2683F"/>
<path id="Vector_350" d="M14.7656 0.090332H13.8757V0.980168H14.7656V0.090332Z" fill="#DB8F5D"/>
<path id="Vector_351" d="M15.6552 22.51H14.7654V23.3998H15.6552V22.51Z" fill="#933725"/>
<path id="Vector_352" d="M15.6552 21.6011H14.7654V22.4909H15.6552V21.6011Z" fill="#B2683F"/>
<path id="Vector_353" d="M15.6552 20.7112H14.7654V21.601H15.6552V20.7112Z" fill="#DB8F5D"/>
<path id="Vector_354" d="M15.6552 19.802H14.7654V20.6918H15.6552V19.802Z" fill="#C18C52"/>
<path id="Vector_355" d="M15.6552 18.9121H14.7654V19.8019H15.6552V18.9121Z" fill="#C18C52"/>
<path id="Vector_356" d="M15.6552 18.0222H14.7654V18.9121H15.6552V18.0222Z" fill="#C18C52"/>
<path id="Vector_357" d="M15.6552 17.1133H14.7654V18.0031H15.6552V17.1133Z" fill="#C18C52"/>
<path id="Vector_358" d="M15.6552 16.2229H14.7654V17.1127H15.6552V16.2229Z" fill="#E5B57C"/>
<path id="Vector_359" d="M15.6552 15.3335H14.7654V16.2233H15.6552V15.3335Z" fill="#E5B57C"/>
<path id="Vector_360" d="M15.6552 14.4243H14.7654V15.3141H15.6552V14.4243Z" fill="#AABBE8"/>
<path id="Vector_361" d="M15.6552 13.5344H14.7654V14.4243H15.6552V13.5344Z" fill="#8B9CD1"/>
<path id="Vector_362" d="M15.6552 12.6445H14.7654V13.5344H15.6552V12.6445Z" fill="#8B9CD1"/>
<path id="Vector_363" d="M15.6552 11.7356H14.7654V12.6254H15.6552V11.7356Z" fill="#8B9CD1"/>
<path id="Vector_364" d="M15.6552 10.8452H14.7654V11.735H15.6552V10.8452Z" fill="#8B9CD1"/>
<path id="Vector_365" d="M15.6552 9.93652H14.7654V10.8264H15.6552V9.93652Z" fill="#8B9CD1"/>
<path id="Vector_366" d="M15.6552 9.04663H14.7654V9.93647H15.6552V9.04663Z" fill="#C18C52"/>
<path id="Vector_367" d="M15.6552 8.15674H14.7654V9.04657H15.6552V8.15674Z" fill="#E5B57C"/>
<path id="Vector_368" d="M15.6552 7.24731H14.7654V8.13715H15.6552V7.24731Z" fill="#E5B57C"/>
<path id="Vector_369" d="M15.6552 6.35791H14.7654V7.24775H15.6552V6.35791Z" fill="#C7D5F2"/>
<path id="Vector_370" d="M15.6552 5.46802H14.7654V6.35785H15.6552V5.46802Z" fill="#C7D5F2"/>
<path id="Vector_371" d="M15.6552 4.55859H14.7654V5.44842H15.6552V4.55859Z" fill="#C7D5F2"/>
<path id="Vector_372" d="M15.6552 3.66919H14.7654V4.55903H15.6552V3.66919Z" fill="#8B9CD1"/>
<path id="Vector_373" d="M15.6552 2.77905H14.7654V3.66889H15.6552V2.77905Z" fill="#8B9CD1"/>
<path id="Vector_374" d="M15.6552 1.87012H14.7654V2.75995H15.6552V1.87012Z" fill="#933725"/>
<path id="Vector_375" d="M15.6552 0.980225H14.7654V1.87005H15.6552V0.980225Z" fill="#B2683F"/>
<path id="Vector_376" d="M15.6552 0.090332H14.7654V0.980168H15.6552V0.090332Z" fill="#DB8F5D"/>
<path id="Vector_377" d="M16.5451 22.51H15.6553V23.3998H16.5451V22.51Z" fill="#933725"/>
<path id="Vector_378" d="M16.5451 21.6011H15.6553V22.4909H16.5451V21.6011Z" fill="#B2683F"/>
<path id="Vector_379" d="M16.5451 20.7112H15.6553V21.601H16.5451V20.7112Z" fill="#DB8F5D"/>
<path id="Vector_380" d="M16.5451 19.802H15.6553V20.6918H16.5451V19.802Z" fill="#C18C52"/>
<path id="Vector_381" d="M16.5451 18.9121H15.6553V19.8019H16.5451V18.9121Z" fill="#C18C52"/>
<path id="Vector_382" d="M16.5451 18.0222H15.6553V18.9121H16.5451V18.0222Z" fill="#C18C52"/>
<path id="Vector_383" d="M16.5451 17.1133H15.6553V18.0031H16.5451V17.1133Z" fill="#C18C52"/>
<path id="Vector_384" d="M16.5451 16.2229H15.6553V17.1127H16.5451V16.2229Z" fill="#C18C52"/>
<path id="Vector_385" d="M16.5451 15.3335H15.6553V16.2233H16.5451V15.3335Z" fill="#AABBE8"/>
<path id="Vector_386" d="M16.5451 14.4243H15.6553V15.3141H16.5451V14.4243Z" fill="#8B9CD1"/>
<path id="Vector_387" d="M16.5451 13.5344H15.6553V14.4243H16.5451V13.5344Z" fill="#8B9CD1"/>
<path id="Vector_388" d="M16.5451 12.6445H15.6553V13.5344H16.5451V12.6445Z" fill="#49568E"/>
<path id="Vector_389" d="M16.5451 11.7356H15.6553V12.6254H16.5451V11.7356Z" fill="#49568E"/>
<path id="Vector_390" d="M16.5451 10.8452H15.6553V11.735H16.5451V10.8452Z" fill="#49568E"/>
<path id="Vector_391" d="M16.5451 9.93652H15.6553V10.8264H16.5451V9.93652Z" fill="#8B9CD1"/>
<path id="Vector_392" d="M16.5451 9.04663H15.6553V9.93647H16.5451V9.04663Z" fill="#8B9CD1"/>
<path id="Vector_393" d="M16.5451 8.15674H15.6553V9.04657H16.5451V8.15674Z" fill="#E5B57C"/>
<path id="Vector_394" d="M16.5451 7.24731H15.6553V8.13715H16.5451V7.24731Z" fill="#E5B57C"/>
<path id="Vector_395" d="M16.5451 6.35791H15.6553V7.24775H16.5451V6.35791Z" fill="#AABBE8"/>
<path id="Vector_396" d="M16.5451 5.46802H15.6553V6.35785H16.5451V5.46802Z" fill="#AABBE8"/>
<path id="Vector_397" d="M16.5451 4.55859H15.6553V5.44842H16.5451V4.55859Z" fill="#AABBE8"/>
<path id="Vector_398" d="M16.5451 3.66919H15.6553V4.55903H16.5451V3.66919Z" fill="#8B9CD1"/>
<path id="Vector_399" d="M16.5451 2.77905H15.6553V3.66889H16.5451V2.77905Z" fill="#8B9CD1"/>
<path id="Vector_400" d="M16.5451 1.87012H15.6553V2.75995H16.5451V1.87012Z" fill="#933725"/>
<path id="Vector_401" d="M16.5451 0.980225H15.6553V1.87005H16.5451V0.980225Z" fill="#B2683F"/>
<path id="Vector_402" d="M16.5451 0.090332H15.6553V0.980168H16.5451V0.090332Z" fill="#DB8F5D"/>
<path id="Vector_403" d="M17.4545 22.51H16.5647V23.3998H17.4545V22.51Z" fill="#933725"/>
<path id="Vector_404" d="M17.4545 21.6011H16.5647V22.4909H17.4545V21.6011Z" fill="#B2683F"/>
<path id="Vector_405" d="M17.4545 20.7112H16.5647V21.601H17.4545V20.7112Z" fill="#DB8F5D"/>
<path id="Vector_406" d="M17.4545 19.802H16.5647V20.6918H17.4545V19.802Z" fill="#C18C52"/>
<path id="Vector_407" d="M17.4545 18.9121H16.5647V19.8019H17.4545V18.9121Z" fill="#C18C52"/>
<path id="Vector_408" d="M17.4545 18.0222H16.5647V18.9121H17.4545V18.0222Z" fill="#C18C52"/>
<path id="Vector_409" d="M17.4545 17.1133H16.5647V18.0031H17.4545V17.1133Z" fill="#C18C52"/>
<path id="Vector_410" d="M17.4545 16.2229H16.5647V17.1127H17.4545V16.2229Z" fill="#AABBE8"/>
<path id="Vector_411" d="M17.4545 15.3335H16.5647V16.2233H17.4545V15.3335Z" fill="#8B9CD1"/>
<path id="Vector_412" d="M17.4545 14.4243H16.5647V15.3141H17.4545V14.4243Z" fill="#8B9CD1"/>
<path id="Vector_413" d="M17.4545 13.5344H16.5647V14.4243H17.4545V13.5344Z" fill="#49568E"/>
<path id="Vector_414" d="M17.4545 12.6445H16.5647V13.5344H17.4545V12.6445Z" fill="#49568E"/>
<path id="Vector_415" d="M17.4545 9.93652H16.5647V10.8264H17.4545V9.93652Z" fill="#49568E"/>
<path id="Vector_416" d="M17.4545 9.04663H16.5647V9.93647H17.4545V9.04663Z" fill="#8B9CD1"/>
<path id="Vector_417" d="M17.4545 8.15674H16.5647V9.04657H17.4545V8.15674Z" fill="#8B9CD1"/>
<path id="Vector_418" d="M17.4545 7.24731H16.5647V8.13715H17.4545V7.24731Z" fill="#8B9CD1"/>
<path id="Vector_419" d="M17.4545 6.35791H16.5647V7.24775H17.4545V6.35791Z" fill="#AABBE8"/>
<path id="Vector_420" d="M17.4545 5.46802H16.5647V6.35785H17.4545V5.46802Z" fill="#AABBE8"/>
<path id="Vector_421" d="M17.4545 4.55859H16.5647V5.44842H17.4545V4.55859Z" fill="#AABBE8"/>
<path id="Vector_422" d="M17.4545 3.66919H16.5647V4.55903H17.4545V3.66919Z" fill="#8B9CD1"/>
<path id="Vector_423" d="M17.4545 2.77905H16.5647V3.66889H17.4545V2.77905Z" fill="#8B9CD1"/>
<path id="Vector_424" d="M17.4545 1.87012H16.5647V2.75995H17.4545V1.87012Z" fill="#933725"/>
<path id="Vector_425" d="M17.4545 0.980225H16.5647V1.87005H17.4545V0.980225Z" fill="#B2683F"/>
<path id="Vector_426" d="M17.4545 0.090332H16.5647V0.980168H17.4545V0.090332Z" fill="#DB8F5D"/>
<path id="Vector_427" d="M18.3442 22.51H17.4543V23.3998H18.3442V22.51Z" fill="#933725"/>
<path id="Vector_428" d="M18.3442 21.6011H17.4543V22.4909H18.3442V21.6011Z" fill="#B2683F"/>
<path id="Vector_429" d="M18.3442 20.7112H17.4543V21.601H18.3442V20.7112Z" fill="#B2683F"/>
<path id="Vector_430" d="M18.3442 19.802H17.4543V20.6918H18.3442V19.802Z" fill="#C18C52"/>
<path id="Vector_431" d="M18.3442 18.9121H17.4543V19.8019H18.3442V18.9121Z" fill="#C18C52"/>
<path id="Vector_432" d="M18.3442 18.0222H17.4543V18.9121H18.3442V18.0222Z" fill="#C18C52"/>
<path id="Vector_433" d="M18.3442 17.1133H17.4543V18.0031H18.3442V17.1133Z" fill="#AABBE8"/>
<path id="Vector_434" d="M18.3442 16.2229H17.4543V17.1127H18.3442V16.2229Z" fill="#8B9CD1"/>
<path id="Vector_435" d="M18.3442 15.3335H17.4543V16.2233H18.3442V15.3335Z" fill="#8B9CD1"/>
<path id="Vector_436" d="M18.3442 14.4243H17.4543V15.3141H18.3442V14.4243Z" fill="#8B9CD1"/>
<path id="Vector_437" d="M18.3442 13.5344H17.4543V14.4243H18.3442V13.5344Z" fill="#49568E"/>
<path id="Vector_438" d="M18.3442 12.6445H17.4543V13.5344H18.3442V12.6445Z" fill="#49568E"/>
<path id="Vector_439" d="M18.3442 9.93652H17.4543V10.8264H18.3442V9.93652Z" fill="#49568E"/>
<path id="Vector_440" d="M18.3442 9.04663H17.4543V9.93647H18.3442V9.04663Z" fill="#49568E"/>
<path id="Vector_441" d="M18.3442 8.15674H17.4543V9.04657H18.3442V8.15674Z" fill="#8B9CD1"/>
<path id="Vector_442" d="M18.3442 7.24731H17.4543V8.13715H18.3442V7.24731Z" fill="#8B9CD1"/>
<path id="Vector_443" d="M18.3442 6.35791H17.4543V7.24775H18.3442V6.35791Z" fill="#AABBE8"/>
<path id="Vector_444" d="M18.3442 5.46802H17.4543V6.35785H18.3442V5.46802Z" fill="#AABBE8"/>
<path id="Vector_445" d="M18.3442 4.55859H17.4543V5.44842H18.3442V4.55859Z" fill="#AABBE8"/>
<path id="Vector_446" d="M18.3442 3.66919H17.4543V4.55903H18.3442V3.66919Z" fill="#8B9CD1"/>
<path id="Vector_447" d="M18.3442 2.77905H17.4543V3.66889H18.3442V2.77905Z" fill="#8B9CD1"/>
<path id="Vector_448" d="M18.3442 1.87012H17.4543V2.75995H18.3442V1.87012Z" fill="#933725"/>
<path id="Vector_449" d="M18.3442 0.980225H17.4543V1.87005H18.3442V0.980225Z" fill="#B2683F"/>
<path id="Vector_450" d="M18.3442 0.090332H17.4543V0.980168H18.3442V0.090332Z" fill="#B2683F"/>
<path id="Vector_451" d="M19.2341 22.51H18.3442V23.3998H19.2341V22.51Z" fill="#774017"/>
<path id="Vector_452" d="M19.2341 21.6011H18.3442V22.4909H19.2341V21.6011Z" fill="#9B5E2C"/>
<path id="Vector_453" d="M19.2341 20.7112H18.3442V21.601H19.2341V20.7112Z" fill="#9B5E2C"/>
<path id="Vector_454" d="M19.2341 19.802H18.3442V20.6918H19.2341V19.802Z" fill="#8B9CD1"/>
<path id="Vector_455" d="M19.2341 18.9121H18.3442V19.8019H19.2341V18.9121Z" fill="#8B9CD1"/>
<path id="Vector_456" d="M19.2341 18.0222H18.3442V18.9121H19.2341V18.0222Z" fill="#8B9CD1"/>
<path id="Vector_457" d="M19.2341 17.1133H18.3442V18.0031H19.2341V17.1133Z" fill="#8B9CD1"/>
<path id="Vector_458" d="M19.2341 16.2229H18.3442V17.1127H19.2341V16.2229Z" fill="#8B9CD1"/>
<path id="Vector_459" d="M19.2341 15.3335H18.3442V16.2233H19.2341V15.3335Z" fill="#49568E"/>
<path id="Vector_460" d="M19.2341 14.4243H18.3442V15.3141H19.2341V14.4243Z" fill="#49568E"/>
<path id="Vector_461" d="M19.2341 8.15674H18.3442V9.04657H19.2341V8.15674Z" fill="#49568E"/>
<path id="Vector_462" d="M19.2341 7.24731H18.3442V8.13715H19.2341V7.24731Z" fill="#8B9CD1"/>
<path id="Vector_463" d="M19.2341 6.35791H18.3442V7.24775H19.2341V6.35791Z" fill="#8B9CD1"/>
<path id="Vector_464" d="M19.2341 5.46802H18.3442V6.35785H19.2341V5.46802Z" fill="#8B9CD1"/>
<path id="Vector_465" d="M19.2341 4.55859H18.3442V5.44842H19.2341V4.55859Z" fill="#8B9CD1"/>
<path id="Vector_466" d="M19.2341 3.66919H18.3442V4.55903H19.2341V3.66919Z" fill="#8B9CD1"/>
<path id="Vector_467" d="M19.2341 2.77905H18.3442V3.66889H19.2341V2.77905Z" fill="#8B9CD1"/>
<path id="Vector_468" d="M19.2341 1.87012H18.3442V2.75995H19.2341V1.87012Z" fill="#774017"/>
<path id="Vector_469" d="M19.2341 0.980225H18.3442V1.87005H19.2341V0.980225Z" fill="#9B5E2C"/>
<path id="Vector_470" d="M19.2341 0.090332H18.3442V0.980168H19.2341V0.090332Z" fill="#9B5E2C"/>
<path id="Vector_471" d="M20.1433 22.51H19.2534V23.3998H20.1433V22.51Z" fill="#774017"/>
<path id="Vector_472" d="M20.1433 21.6011H19.2534V22.4909H20.1433V21.6011Z" fill="#9B5E2C"/>
<path id="Vector_473" d="M20.1433 20.7112H19.2534V21.601H20.1433V20.7112Z" fill="#9B5E2C"/>
<path id="Vector_474" d="M20.1433 19.802H19.2534V20.6918H20.1433V19.802Z" fill="#8B9CD1"/>
<path id="Vector_475" d="M20.1433 18.9121H19.2534V19.8019H20.1433V18.9121Z" fill="#8B9CD1"/>
<path id="Vector_476" d="M20.1433 18.0222H19.2534V18.9121H20.1433V18.0222Z" fill="#8B9CD1"/>
<path id="Vector_477" d="M20.1433 17.1133H19.2534V18.0031H20.1433V17.1133Z" fill="#8B9CD1"/>
<path id="Vector_478" d="M20.1433 16.2229H19.2534V17.1127H20.1433V16.2229Z" fill="#8B9CD1"/>
<path id="Vector_479" d="M20.1433 15.3335H19.2534V16.2233H20.1433V15.3335Z" fill="#49568E"/>
<path id="Vector_480" d="M20.1433 14.4243H19.2534V15.3141H20.1433V14.4243Z" fill="#49568E"/>
<path id="Vector_481" d="M20.1433 8.15674H19.2534V9.04657H20.1433V8.15674Z" fill="#49568E"/>
<path id="Vector_482" d="M20.1433 7.24731H19.2534V8.13715H20.1433V7.24731Z" fill="#49568E"/>
<path id="Vector_483" d="M20.1433 6.35791H19.2534V7.24775H20.1433V6.35791Z" fill="#8B9CD1"/>
<path id="Vector_484" d="M20.1433 5.46802H19.2534V6.35785H20.1433V5.46802Z" fill="#8B9CD1"/>
<path id="Vector_485" d="M20.1433 4.55859H19.2534V5.44842H20.1433V4.55859Z" fill="#8B9CD1"/>
<path id="Vector_486" d="M20.1433 3.66919H19.2534V4.55903H20.1433V3.66919Z" fill="#8B9CD1"/>
<path id="Vector_487" d="M20.1433 2.77905H19.2534V3.66889H20.1433V2.77905Z" fill="#8B9CD1"/>
<path id="Vector_488" d="M20.1433 1.87012H19.2534V2.75995H20.1433V1.87012Z" fill="#774017"/>
<path id="Vector_489" d="M20.1433 0.980225H19.2534V1.87005H20.1433V0.980225Z" fill="#9B5E2C"/>
<path id="Vector_490" d="M20.1433 0.090332H19.2534V0.980168H20.1433V0.090332Z" fill="#9B5E2C"/>
<path id="Vector_491" d="M21.0331 22.51H20.1433V23.3998H21.0331V22.51Z" fill="#774017"/>
<path id="Vector_492" d="M21.0331 21.6011H20.1433V22.4909H21.0331V21.6011Z" fill="#9B5E2C"/>
<path id="Vector_493" d="M21.0331 20.7112H20.1433V21.601H21.0331V20.7112Z" fill="#9B5E2C"/>
<path id="Vector_494" d="M21.0331 19.802H20.1433V20.6918H21.0331V19.802Z" fill="#49568E"/>
<path id="Vector_495" d="M21.0331 18.9121H20.1433V19.8019H21.0331V18.9121Z" fill="#49568E"/>
<path id="Vector_496" d="M21.0331 18.0222H20.1433V18.9121H21.0331V18.0222Z" fill="#49568E"/>
<path id="Vector_497" d="M21.0331 17.1133H20.1433V18.0031H21.0331V17.1133Z" fill="#49568E"/>
<path id="Vector_498" d="M21.0331 16.2229H20.1433V17.1127H21.0331V16.2229Z" fill="#49568E"/>
<path id="Vector_499" d="M21.0331 6.35791H20.1433V7.24775H21.0331V6.35791Z" fill="#49568E"/>
<path id="Vector_500" d="M21.0331 5.46802H20.1433V6.35785H21.0331V5.46802Z" fill="#49568E"/>
<path id="Vector_501" d="M21.0331 4.55859H20.1433V5.44842H21.0331V4.55859Z" fill="#49568E"/>
<path id="Vector_502" d="M21.0331 3.66919H20.1433V4.55903H21.0331V3.66919Z" fill="#49568E"/>
<path id="Vector_503" d="M21.0331 2.77905H20.1433V3.66889H21.0331V2.77905Z" fill="#49568E"/>
<path id="Vector_504" d="M21.0331 1.87012H20.1433V2.75995H21.0331V1.87012Z" fill="#774017"/>
<path id="Vector_505" d="M21.0331 0.980225H20.1433V1.87005H21.0331V0.980225Z" fill="#9B5E2C"/>
<path id="Vector_506" d="M21.0331 0.090332H20.1433V0.980168H21.0331V0.090332Z" fill="#9B5E2C"/>
<path id="Vector_507" d="M21.9423 22.51H21.0525V23.3998H21.9423V22.51Z" fill="#774017"/>
<path id="Vector_508" d="M21.9423 21.6011H21.0525V22.4909H21.9423V21.6011Z" fill="#9B5E2C"/>
<path id="Vector_509" d="M21.9423 20.7112H21.0525V21.601H21.9423V20.7112Z" fill="#9B5E2C"/>
<path id="Vector_510" d="M21.9423 1.87012H21.0525V2.75995H21.9423V1.87012Z" fill="#774017"/>
<path id="Vector_511" d="M21.9423 0.980225H21.0525V1.87005H21.9423V0.980225Z" fill="#9B5E2C"/>
<path id="Vector_512" d="M21.9423 0.090332H21.0525V0.980168H21.9423V0.090332Z" fill="#9B5E2C"/>
<path id="Vector_513" d="M22.832 22.51H21.9421V23.3998H22.832V22.51Z" fill="#774017"/>
<path id="Vector_514" d="M22.832 21.6011H21.9421V22.4909H22.832V21.6011Z" fill="#9B5E2C"/>
<path id="Vector_515" d="M22.832 20.7112H21.9421V21.601H22.832V20.7112Z" fill="#9B5E2C"/>
<path id="Vector_516" d="M22.832 1.87012H21.9421V2.75995H22.832V1.87012Z" fill="#774017"/>
<path id="Vector_517" d="M22.832 0.980225H21.9421V1.87005H22.832V0.980225Z" fill="#9B5E2C"/>
<path id="Vector_518" d="M22.832 0.090332H21.9421V0.980168H22.832V0.090332Z" fill="#9B5E2C"/>
</g>
</svg>
