<svg xmlns="http://www.w3.org/2000/svg" viewBox="0 0 128.7 33"><defs><style>.cls-1{fill:#fff;}</style></defs><title>Asset 1</title><g id="Layer_2" data-name="Layer 2"><g id="Layer_1-2" data-name="Layer 1"><path class="cls-1" d="M0,0V32.51H4.66V9H5l9.58,23.49h3.87L28,9h.3V32.51H33V0H27L16.67,25.27h-.38L6,0Z"/><path class="cls-1" d="M51.05,33c5.31,0,9.07-2.62,10.15-6.59l-4.49-.81c-.86,2.3-2.92,3.48-5.62,3.48-4.06,0-6.79-2.64-6.91-7.33H61.5V20.06c0-8.81-5.27-12.25-10.79-12.25-6.79,0-11.26,5.17-11.26,12.67S43.86,33,51.05,33ZM44.19,18.19a6.55,6.55,0,0,1,6.56-6.46c3.68,0,6.09,2.73,6.1,6.46Z"/><path class="cls-1" d="M85,14.08c-1-3.79-4-6.27-9.22-6.27-5.51,0-9.41,2.9-9.41,7.22,0,3.46,2.09,5.76,6.66,6.78l4.13.9c2.35.53,3.44,1.58,3.44,3.1,0,1.89-2,3.36-5.12,3.36-2.84,0-4.67-1.22-5.24-3.61l-4.58.69c.79,4.32,4.38,6.75,9.85,6.75,5.88,0,10-3.13,10-7.54,0-3.44-2.19-5.57-6.66-6.6L75,18c-2.68-.64-3.84-1.54-3.83-3.19,0-1.88,2-3.21,4.72-3.21a4.71,4.71,0,0,1,4.87,3.27Z"/><path class="cls-1" d="M102.09,8.13h-5V2.29H92.35V8.13H88.78v3.81h3.57V26.33c0,4.43,3.37,6.57,7.11,6.5a9.37,9.37,0,0,0,3.08-.51l-.86-3.92a8,8,0,0,1-1.67.2c-1.53,0-2.91-.5-2.91-3.25V11.94h5Z"/><path class="cls-1" d="M117.34,33c6.87,0,11.36-5,11.36-12.57S124.21,7.81,117.34,7.81,106,12.84,106,20.43,110.47,33,117.34,33Zm0-4c-4.49,0-6.58-3.92-6.58-8.61s2.09-8.63,6.58-8.63,6.55,4,6.55,8.63S121.82,29,117.36,29Z"/></g></g></svg>