<?xml version="1.0" encoding="utf-8"?>
<!-- Generator: Adobe Illustrator 22.0.0, SVG Export Plug-In . SVG Version: 6.00 Build 0)  -->
<svg version="1.1" id="Layer_1" xmlns="http://www.w3.org/2000/svg" xmlns:xlink="http://www.w3.org/1999/xlink" x="0px" y="0px"
	 width="120px" height="120px" viewBox="0 0 120 120" style="enable-background:new 0 0 120 120;" xml:space="preserve">
<style type="text/css">
	.st0{fill:#F5DE19;}
</style>
<path class="st0" d="M0,0h120v120H0V0z"/>
<path d="M80.6,93.7c1,2.1,2.6,3.8,4.6,5c2,1.2,4.2,1.8,6.6,1.8c4.7,0,7.7-2.3,7.7-5.6c0-3.9-3.1-5.2-8.2-7.5l-2.8-1.2
	c-8.1-3.5-13.5-7.8-13.5-17c0-8.5,6.4-14.9,16.5-14.9c3.3-0.2,6.5,0.5,9.4,2.1c2.9,1.6,5.2,4,6.7,6.9l-8.8,5.6
	c-0.6-1.4-1.6-2.7-2.9-3.5c-1.3-0.9-2.8-1.3-4.4-1.3c-0.7-0.1-1.4,0-2,0.2c-0.6,0.2-1.2,0.6-1.8,1c-0.5,0.5-0.9,1-1.2,1.6
	c-0.3,0.6-0.4,1.3-0.4,2c0,3.4,2.1,4.8,6.9,6.9l2.8,1.2c9.6,4.1,15,8.3,15,17.7c0,10.2-8,15.7-18.7,15.7c-4.2,0.3-8.3-0.7-12-2.7
	c-3.6-2-6.6-5.1-8.6-8.8L80.6,93.7z M40.8,94.7c1.8,3.1,3.4,5.8,7.3,5.8c3.7,0,6-1.4,6-7.1V55.1h11.3v38.5c0,11.7-6.9,17-16.8,17
	c-3.5,0.2-7-0.7-10.1-2.5c-3-1.8-5.4-4.5-6.9-7.8L40.8,94.7z"/>
</svg>
