<?xml version="1.0" encoding="utf-8"?>
<!-- Generator: Adobe Illustrator 22.0.0, SVG Export Plug-In . SVG Version: 6.00 Build 0)  -->
<svg version="1.1" id="Layer_1" xmlns="http://www.w3.org/2000/svg" xmlns:xlink="http://www.w3.org/1999/xlink" x="0px" y="0px"
	 width="120px" height="120px" viewBox="0 0 120 120" style="enable-background:new 0 0 120 120;" xml:space="preserve">
<style type="text/css">
	.st0{fill:#E44F26;}
	.st1{fill:#F1662A;}
	.st2{fill:#EBEBEB;}
	.st3{fill:#FFFFFF;}
</style>
<path class="st0" d="M16.7,108L7.1,0h105.8l-9.6,108l-43.3,12L16.7,108z"/>
<path class="st1" d="M60,110.8l35-9.7l8.2-92.3H60V110.8z"/>
<path class="st2" d="M60,48.9H42.5l-1.2-13.6H60V22.1H26.8l0.3,3.6l3.3,36.5H60V48.9z M60,83.3L60,83.3l-14.8-4l-0.9-10.6H30.9
	l1.9,20.8l27.1,7.5l0.1,0V83.3z"/>
<path class="st3" d="M60,48.9v13.2h16.3l-1.5,17.2l-14.8,4v13.8l27.2-7.5l0.2-2.2l3.1-34.9l0.3-3.6H60z M60,22.1v13.2h32l0.3-3
	l0.6-6.7l0.3-3.6H60z"/>
</svg>
